<svg width="22" height="20" viewBox="0 0 22 20" fill="none" xmlns="http://www.w3.org/2000/svg">
<path d="M15.2628 19.0052H5.76317C4.21545 19.0796 2.70006 18.5455 1.54109 17.517C1.01803 16.9655 0.612607 16.3133 0.349497 15.6002C0.0863856 14.8871 -0.0289105 14.1279 0.0105955 13.3688V5.64241C-0.0359161 4.88702 0.0710292 4.13001 0.324999 3.41708C0.57897 2.70415 0.974697 2.05008 1.48831 1.49423C2.65015 0.470632 4.16349 -0.0628568 5.71039 0.00590998H15.2101C16.7566 -0.0606464 18.2692 0.47256 19.4321 1.49423C19.9532 2.04715 20.3573 2.69948 20.6202 3.41225C20.8832 4.12502 20.9997 4.88357 20.9626 5.64241H16.4872C15.5017 5.63391 14.5526 6.01516 13.8468 6.70314C13.1411 7.39113 12.7357 8.33011 12.719 9.31559C12.7145 9.79827 12.8054 10.2771 12.9865 10.7245C13.1677 11.172 13.4355 11.5792 13.7745 11.9228C14.4942 12.6075 15.4517 12.9859 16.445 12.9783H20.9204V13.3055C20.9575 14.0643 20.841 14.8228 20.578 15.5356C20.3151 16.2483 19.9109 16.9007 19.3899 17.4537C18.2635 18.48 16.7864 19.0353 15.2628 19.0052ZM4.93986 4.10133C4.78239 4.09622 4.62706 4.13889 4.49426 4.22367C4.36146 4.30845 4.2574 4.4314 4.19575 4.57639C4.1341 4.72138 4.11775 4.88159 4.14882 5.03605C4.1799 5.19051 4.25695 5.33199 4.36988 5.44185C4.52208 5.59099 4.72678 5.67435 4.93986 5.67404H10.9035C11.1162 5.67215 11.3201 5.58911 11.4735 5.44185C11.5872 5.33139 11.6646 5.18893 11.6955 5.03341C11.7263 4.87789 11.709 4.71666 11.646 4.57117C11.583 4.42568 11.4772 4.30282 11.3427 4.2189C11.2082 4.13498 11.0514 4.09396 10.893 4.10133H4.93986Z" fill="#FFBE78"/>
<path opacity="0.4" d="M14.7562 9.82227C14.8549 10.3063 15.1202 10.7404 15.5059 11.049C15.8916 11.3575 16.3734 11.5211 16.8672 11.5111H20.2977C20.3975 11.5098 20.496 11.4887 20.5877 11.4492C20.6794 11.4098 20.7624 11.3526 20.832 11.2811C20.9016 11.2095 20.9564 11.1249 20.9933 11.0322C21.0302 10.9395 21.0485 10.8404 21.0471 10.7406V8.07014C21.0472 7.86659 20.9678 7.67107 20.8258 7.52518C20.6839 7.37929 20.4906 7.29456 20.2871 7.28906H16.7722C16.2215 7.30283 15.6981 7.53128 15.3135 7.9257C14.929 8.32011 14.7138 8.84924 14.714 9.4001C14.6984 9.53687 14.6984 9.67499 14.714 9.81177" fill="#FFBE78"/>
<path d="M16.825 10.466C17.408 10.466 17.8806 9.99345 17.8806 9.4105C17.8806 8.82755 17.408 8.35498 16.825 8.35498C16.2421 8.35498 15.7695 8.82755 15.7695 9.4105C15.7695 9.99345 16.2421 10.466 16.825 10.466Z" fill="#FFBE78"/>
</svg>
