<svg width="24" height="24" viewBox="0 0 19 23" fill="none" xmlns="http://www.w3.org/2000/svg">
<path d="M10.9829 17.5291C11.0026 17.8099 11.1283 18.0728 11.3344 18.2645C11.5406 18.4562 11.8119 18.5625 12.0934 18.5618L17.1795 18.8506C17.5321 18.8506 17.8705 18.7121 18.1219 18.4649C18.3732 18.2176 18.5174 17.8816 18.5232 17.5291C18.5217 17.3541 18.4858 17.181 18.4175 17.0199C18.3492 16.8588 18.2498 16.7127 18.1251 16.59C18.0003 16.4673 17.8526 16.3703 17.6903 16.3047C17.5281 16.2391 17.3545 16.2061 17.1795 16.2076L12.0934 16.4852C11.8101 16.4847 11.5373 16.5925 11.3308 16.7866C11.1244 16.9806 10.9999 17.2463 10.9829 17.5291Z" fill="#FFEECF"/>
<path d="M0.755133 16.1078C0.592706 16.257 0.44408 16.4205 0.310973 16.5964C0.109979 16.8617 0.00079883 17.1853 0 17.5181C0.00159948 17.8749 0.118444 18.2216 0.333137 18.5065C0.388662 18.562 0.577464 18.773 0.766249 18.9506C2.31854 20.3933 4.09187 21.5781 6.0189 22.4599C6.3736 22.608 6.74747 22.7051 7.1294 22.7485C7.4103 22.7467 7.6873 22.6822 7.94011 22.5598C8.25879 22.3808 8.51172 22.1046 8.6619 21.7714C8.75074 21.4715 8.8285 21.1606 8.89513 20.8496C9.05846 19.7469 9.13275 18.6328 9.11724 17.5181C9.12848 16.4449 9.06168 15.3723 8.91736 14.3087C8.85011 13.9293 8.74593 13.5574 8.60639 13.1982C8.469 12.9372 8.26297 12.7186 8.01054 12.566C7.7581 12.4134 7.46886 12.3325 7.17387 12.3321C6.75597 12.3944 6.34863 12.5139 5.96339 12.6874C4.08314 13.5632 2.35193 14.7287 0.832876 16.1411" fill="#FFBE78"/>
<path d="M7.45142 5.76908C7.43556 5.4974 7.32055 5.24101 7.12811 5.04858C6.93568 4.85615 6.67923 4.74107 6.40755 4.7252L1.3215 4.44758C0.971017 4.44758 0.634851 4.58684 0.387022 4.83467C0.139193 5.08249 0 5.41859 0 5.76908C0 6.11956 0.139193 6.45573 0.387022 6.70355C0.634851 6.95138 0.971017 7.09058 1.3215 7.09058L6.40755 6.80183C6.54411 6.8033 6.67964 6.77771 6.80623 6.72646C6.93281 6.67522 7.04798 6.59938 7.14506 6.50333C7.24214 6.40729 7.31919 6.29291 7.37178 6.16688C7.42438 6.04084 7.45143 5.90564 7.45142 5.76908Z" fill="#FFEECF"/>
<path d="M10.5385 0.727614C10.2173 0.903333 9.96341 1.18058 9.81666 1.51603C9.71682 1.81725 9.63892 2.12531 9.5835 2.43776C9.42016 3.5405 9.34588 4.6546 9.36138 5.76927C9.34979 6.84249 9.41659 7.91514 9.56127 8.97863C9.62559 9.37675 9.72979 9.76737 9.87224 10.1446C10.0093 10.4027 10.214 10.6187 10.4644 10.7693C10.7148 10.9199 11.0014 10.9996 11.2936 10.9998H11.3492C11.7643 10.9411 12.1684 10.8213 12.5485 10.6444C14.4368 9.77679 16.1729 8.61065 17.6901 7.19074C17.8466 7.03961 17.9949 6.88022 18.1343 6.71324C18.3354 6.44375 18.4445 6.11665 18.4453 5.78038C18.4421 5.4239 18.3254 5.07768 18.1121 4.79202L17.679 4.34786C16.1243 2.906 14.3468 1.72473 12.4153 0.849753C12.0597 0.702101 11.6864 0.601289 11.3048 0.549896C11.0239 0.551728 10.7469 0.616273 10.4941 0.73873" fill="#FFBE78"/>
</svg>
