<svg width="21" height="23" viewBox="0 0 21 23" fill="none" xmlns="http://www.w3.org/2000/svg">
    <path d="M5.99414 22.9827C5.26574 23.0392 4.5332 22.9534 3.83843 22.7304C3.14367 22.5074 2.50032 22.1514 1.94519 21.6828C1.39006 21.2143 0.934066 20.6423 0.603287 19.9997C0.272509 19.3572 0.0734356 18.6565 0.0174788 17.938C-0.00582626 17.655 -0.00582626 17.3706 0.0174788 17.0876V8.34277H20.9882V17.1566C20.9882 20.7649 18.6581 22.9827 14.9999 22.9827H5.99414Z" fill="#FFBE78"/>
    <path d="M0.0175781 8.34242C0.0276345 7.52349 0.0898971 6.70599 0.203989 5.89476C0.452864 4.73269 1.09209 3.6875 2.01819 2.92838C2.94429 2.16925 4.10306 1.74061 5.30687 1.71191H15.7107C16.913 1.75007 18.0683 2.18189 18.9943 2.93925C19.9204 3.6966 20.5645 4.73641 20.8252 5.89476C20.9413 6.70562 20.9997 7.52351 20.9999 8.34242H0.0175781Z" fill="#FEF8F1"/>
    <path d="M6.19214 5.27454C6.30673 5.27919 6.42109 5.26088 6.52834 5.22081C6.63559 5.18074 6.73353 5.1197 6.81624 5.04133C6.89896 4.96297 6.96475 4.86894 7.00966 4.76485C7.05457 4.66076 7.07766 4.54875 7.07756 4.43563V0.884853C7.08388 0.65818 6.99937 0.438183 6.84236 0.272554C6.68534 0.106924 6.46845 0.00898492 6.23874 5.24213e-08C6.00789 -7.88031e-05 5.78615 0.0888102 5.62075 0.247655C5.45535 0.4065 5.35939 0.622728 5.35331 0.850345V4.38969C5.34863 4.50326 5.36709 4.61663 5.40758 4.72305C5.44808 4.82947 5.50978 4.92679 5.58907 5.00928C5.66836 5.09177 5.76362 5.15772 5.8692 5.20328C5.97479 5.24884 6.08855 5.2731 6.20379 5.27454" fill="#FFBE78"/>
    <path d="M14.8019 5.27454C14.917 5.27761 15.0317 5.25789 15.139 5.21654C15.2463 5.17518 15.3441 5.11303 15.4266 5.03376C15.5092 4.95449 15.5747 4.85966 15.6195 4.75496C15.6643 4.65026 15.6873 4.53782 15.6873 4.42419V0.884853C15.6905 0.6571 15.6034 0.43708 15.4445 0.271782C15.2856 0.106485 15.0676 0.00896906 14.8368 5.24213e-08C14.606 -7.88031e-05 14.3842 0.0888102 14.2188 0.247655C14.0534 0.4065 13.9575 0.622728 13.9514 0.850345V4.38969C13.9467 4.50326 13.9652 4.61663 14.0057 4.72305C14.0461 4.82947 14.1079 4.92679 14.1872 5.00928C14.2664 5.09177 14.3617 5.15772 14.4673 5.20328C14.5729 5.24884 14.6866 5.2731 14.8019 5.27454Z" fill="#FFBE78"/>
</svg>
