<svg width="23" height="24" viewBox="0 0 23 24" fill="none" xmlns="http://www.w3.org/2000/svg">
<path d="M14.569 22.974H6.16043C5.33498 23.0542 4.50203 22.9506 3.72135 22.6707C2.94068 22.3908 2.23167 21.9415 1.64524 21.3551C1.05881 20.7687 0.609506 20.0596 0.3296 19.2789C0.0496929 18.4983 -0.0538749 17.6653 0.026332 16.8399V8.45427C-0.0532889 7.62792 0.0504886 6.79418 0.330266 6.01257C0.610043 5.23095 1.05893 4.52076 1.64486 3.93264C2.23079 3.34451 2.93932 2.89296 3.71988 2.61026C4.50045 2.32756 5.33378 2.22068 6.16043 2.29721H15.3501C15.2949 2.57715 15.268 2.86192 15.2697 3.14725C15.2697 4.36587 15.7538 5.53459 16.6155 6.39629C17.4772 7.25798 18.6459 7.74208 19.8645 7.74208C20.1461 7.74381 20.427 7.71686 20.7031 7.66166V16.8513C20.7833 17.6768 20.6797 18.5098 20.3998 19.2904C20.1199 20.0711 19.6706 20.7802 19.0842 21.3666C18.4978 21.953 17.7887 22.4022 17.0081 22.6822C16.2274 22.9621 15.3944 23.0657 14.569 22.9855V22.974ZM8.32001 10.4301H8.20513C8.0932 10.4431 7.98526 10.4794 7.88829 10.5368C7.79133 10.5942 7.70752 10.6713 7.64227 10.7632L4.19615 15.1398C4.08192 15.292 4.02132 15.4779 4.02383 15.6682C4.01444 15.8918 4.09362 16.11 4.24416 16.2756C4.3947 16.4412 4.60447 16.5408 4.82794 16.5527C4.97716 16.5579 5.1252 16.5247 5.25794 16.4563C5.39067 16.3879 5.50365 16.2866 5.58608 16.1621L8.42339 12.4862L11.5709 14.956C11.726 15.0744 11.9156 15.1389 12.1107 15.1398C12.2429 15.1398 12.3731 15.1086 12.4909 15.0487C12.6087 14.9888 12.7107 14.9019 12.7885 14.7952L16.0738 10.5564C16.1923 10.3785 16.2414 10.1632 16.2117 9.9515C16.1821 9.73978 16.0758 9.54628 15.913 9.40772C15.7391 9.28006 15.5226 9.22433 15.3087 9.25214C15.0947 9.27995 14.8998 9.38918 14.7643 9.55706L11.9959 13.118L8.84842 10.6368C8.70022 10.511 8.51425 10.4382 8.32001 10.4301Z" fill="#FFBE78"/>
<path d="M20.1223 5.74354C21.7083 5.74354 22.994 4.45781 22.994 2.87177C22.994 1.28574 21.7083 0 20.1223 0C18.5362 0 17.2505 1.28574 17.2505 2.87177C17.2505 4.45781 18.5362 5.74354 20.1223 5.74354Z" fill="#FEF8F1"/>
</svg>
