<svg width="30" height="30" viewBox="0 0 30 30" fill="none" xmlns="http://www.w3.org/2000/svg">
<mask id="mask0_1_15" style="mask-type:alpha" maskUnits="userSpaceOnUse" x="0" y="0" width="30" height="30">
<rect width="30" height="30" fill="#C4C4C4"/>
</mask>
<g mask="url(#mask0_1_15)">
<path d="M25.5 20.6838C25.1761 21.5973 24.7506 22.4745 24.2308 23.3003C23.7651 24.0542 23.1995 24.7372 22.5815 25.3891C22.0965 25.9124 21.5261 26.3564 20.8928 26.7038C20.2037 27.0733 19.4569 27.069 18.7195 26.8453C18.1166 26.6621 17.5298 26.4315 16.9302 26.2376C16.0163 25.9394 15.0272 25.9299 14.1073 26.2104C13.5383 26.3781 12.992 26.6167 12.4263 26.7978C11.1116 27.2153 9.94908 26.9665 8.90327 26.0812C7.91526 25.2444 7.22287 24.2059 6.56938 23.132C5.99102 22.1837 5.52752 21.1749 5.18794 20.1253C4.949 19.3895 4.80507 18.6221 4.66671 17.8607C4.5578 17.3176 4.50199 16.7659 4.5 16.2129C4.51778 14.9495 4.65948 13.7032 5.24907 12.5381C5.60749 11.8284 6.04648 11.1823 6.63829 10.642C7.49349 9.86076 8.49651 9.33106 9.6729 9.15378C10.203 9.07369 10.742 9.00053 11.2766 9C12.0546 9 12.7981 9.20344 13.5216 9.48057C14.0167 9.668 14.5135 9.87731 15.0303 9.97716C15.3381 10.037 15.6971 9.93979 16.015 9.84954C16.7079 9.65304 17.3792 9.38446 18.076 9.20504C18.8094 9.02293 19.5699 8.9635 20.3243 9.02937C21.1834 9.09398 21.9964 9.27393 22.7555 9.6413C23.4745 9.98891 24.1269 10.4374 24.627 11.0627C24.6931 11.146 24.7898 11.2069 24.8921 11.295C23.1172 12.5141 21.9592 14.0231 22.1059 16.1979C22.2526 18.3728 23.6012 19.7173 25.5 20.6838Z" fill="black"/>
<path d="M15.0667 8.99374C14.604 6.70596 16.602 3.22641 19.4495 3C19.8932 6.24525 17.331 9.15313 15.0667 8.99374Z" fill="black"/>
</g>
</svg>
