<svg width="61" height="61" viewBox="0 0 61 61" fill="none" xmlns="http://www.w3.org/2000/svg">
<defs>
<filter id="filter0_f_37_860" x="0" y="0" width="61" height="61" filterUnits="userSpaceOnUse" color-interpolation-filters="sRGB">
<feFlood flood-opacity="0" result="BackgroundImageFix"/>
<feBlend mode="normal" in="SourceGraphic" in2="BackgroundImageFix" result="shape"/>
<feGaussianBlur stdDeviation="3" result="effect1_foregroundBlur_37_860"/>
</filter>
<linearGradient id="paint0_linear_37_860" x1="43.2562" y1="33.2122" x2="38.1577" y2="34.2527" gradientUnits="userSpaceOnUse">
<stop stop-color="#F7D4AC"/>
<stop offset="1" stop-color="#F8A877"/>
</linearGradient>
<linearGradient id="paint1_linear_37_860" x1="-374.405" y1="4636.64" x2="-263.678" y2="4659.22" gradientUnits="userSpaceOnUse">
<stop stop-color="#F7D4AC"/>
<stop offset="1" stop-color="#F8A877"/>
</linearGradient>
<radialGradient id="paint2_radial_37_860" cx="0" cy="0" r="1" gradientUnits="userSpaceOnUse" gradientTransform="translate(30.2739 15.7499) scale(10.249 5.43198)">
<stop stop-color="white" stop-opacity="0.8"/>
<stop offset="1" stop-color="white" stop-opacity="0"/>
</radialGradient>
<linearGradient id="paint3_linear_37_860" x1="-337.759" y1="905.727" x2="-337.759" y2="893.237" gradientUnits="userSpaceOnUse">
<stop stop-color="white" stop-opacity="0.8"/>
<stop offset="1" stop-color="white" stop-opacity="0"/>
</linearGradient>
<linearGradient id="paint4_linear_37_860" x1="-337.759" y1="905.727" x2="-337.759" y2="893.237" gradientUnits="userSpaceOnUse">
<stop stop-color="white" stop-opacity="0.8"/>
<stop offset="1" stop-color="white" stop-opacity="0"/>
</linearGradient>
<linearGradient id="paint5_linear_37_860" x1="33.8362" y1="30.8306" x2="33.6769" y2="30.0305" gradientUnits="userSpaceOnUse">
<stop stop-color="white" stop-opacity="0.8"/>
<stop offset="0.88" stop-color="white" stop-opacity="0"/>
</linearGradient>
<radialGradient id="paint6_radial_37_860" cx="0" cy="0" r="1" gradientUnits="userSpaceOnUse" gradientTransform="translate(34.4588 31.259) rotate(-3.43363) scale(2.66849 1.99897)">
<stop offset="0.83" stop-color="#1F1E21" stop-opacity="0"/>
<stop offset="1" stop-color="#1F1E21" stop-opacity="0.8"/>
</radialGradient>
<linearGradient id="paint7_linear_37_860" x1="-300.486" y1="905.726" x2="-300.486" y2="893.237" gradientUnits="userSpaceOnUse">
<stop stop-color="white" stop-opacity="0.8"/>
<stop offset="1" stop-color="white" stop-opacity="0"/>
</linearGradient>
<linearGradient id="paint8_linear_37_860" x1="-300.486" y1="905.726" x2="-300.486" y2="893.237" gradientUnits="userSpaceOnUse">
<stop stop-color="white" stop-opacity="0.8"/>
<stop offset="1" stop-color="white" stop-opacity="0"/>
</linearGradient>
<linearGradient id="paint9_linear_37_860" x1="3.42033" y1="360.71" x2="2.78254" y2="357.507" gradientUnits="userSpaceOnUse">
<stop stop-color="white" stop-opacity="0.8"/>
<stop offset="0.88" stop-color="white" stop-opacity="0"/>
</linearGradient>
<radialGradient id="paint10_radial_37_860" cx="0" cy="0" r="1" gradientUnits="userSpaceOnUse" gradientTransform="translate(-11052.1 -559.709) rotate(-176.566) scale(57.5205 17.6522)">
<stop offset="0.83" stop-color="#1F1E21" stop-opacity="0"/>
<stop offset="1" stop-color="#1F1E21" stop-opacity="0.8"/>
</radialGradient>
<linearGradient id="paint11_linear_37_860" x1="31.1602" y1="32.5732" x2="32.2215" y2="32.3463" gradientUnits="userSpaceOnUse">
<stop stop-color="#996849"/>
<stop offset="1" stop-color="#F8A877" stop-opacity="0"/>
</linearGradient>
</defs>
<g filter="url(#filter0_f_37_860)">
<circle cx="30.5" cy="30.5" r="24.5" fill="white"/>
</g>
<path d="M45.2358 49.8305C45.1089 49.9408 44.9799 50.051 44.8509 50.1572C41.0852 53.2643 36.4098 55.0599 31.5323 55.2723C31.1952 55.2869 30.8539 55.2931 30.5147 55.2931C30.1755 55.2931 29.8363 55.2931 29.4992 55.2723C29.3369 55.2723 29.1746 55.2557 29.0122 55.2453C24.3087 54.9364 19.8213 53.1564 16.1849 50.1572C16.0558 50.051 15.9268 49.9491 15.7999 49.8305C15.829 49.7264 15.8644 49.6224 15.9039 49.5204C16.1973 48.7567 16.4595 48.0866 16.6406 47.6475C17.4064 45.7746 18.6238 45.0961 20.299 44.6758C21.4182 44.4345 22.4713 43.9523 23.3852 43.2628C23.4538 43.2149 23.5204 43.1629 23.5933 43.1088C23.7327 43.0026 23.8784 42.8882 24.0261 42.7654C24.101 42.7071 24.178 42.6426 24.255 42.576C24.3625 42.4859 24.4789 42.4071 24.6026 42.3409C24.9419 42.1712 25.3107 42.0681 25.6889 42.0371C25.7825 42.0266 25.8803 42.0183 25.976 42.0142H26.1113H26.3902H34.6747H34.9535H35.0888C35.1845 42.0142 35.2803 42.0266 35.376 42.0371C35.7542 42.0681 36.1229 42.1712 36.4623 42.3409C36.5859 42.4071 36.7024 42.4859 36.8098 42.576L36.9825 42.7217L37.2635 42.9506C37.4112 43.0651 37.5527 43.1712 37.6901 43.2711C38.5968 43.9523 39.6405 44.4287 40.7492 44.6675C42.4244 45.0837 43.6418 45.7746 44.4076 47.6391C44.5886 48.0866 44.8509 48.7567 45.1422 49.5121C45.1792 49.6164 45.2105 49.7227 45.2358 49.8305Z" fill="#77483C"/>
<path d="M37.9 44.4589C37.9 48.263 34.0813 50.8185 30.5124 50.8185C26.8851 50.8185 23.1289 48.4378 23.1289 44.4589C23.1312 44.0482 23.2132 43.6418 23.3703 43.2623C23.6394 43.0667 23.928 42.8378 24.236 42.5756C24.8104 42.0865 25.6324 42.0033 26.3878 42.0033H34.639C35.3944 42.0033 36.2164 42.0865 36.7908 42.5756C37.1029 42.8419 37.3964 43.0729 37.671 43.2727C37.8186 43.651 37.8961 44.0529 37.9 44.4589Z" fill="#BA1C28"/>
<path d="M37.9 44.4599C37.9 48.264 34.0792 50.8174 30.5124 50.8174C26.8851 50.8174 23.1289 48.4408 23.1289 44.4599C23.1317 44.0494 23.2129 43.6432 23.3682 43.2633C23.6457 43.0677 23.935 42.8388 24.236 42.5765C24.3597 42.4735 24.4952 42.3854 24.6397 42.3143C25.1914 42.0798 25.7891 41.9738 26.3878 42.0043H34.639C35.2377 41.9738 35.8354 42.0798 36.3871 42.3143C36.5315 42.3854 36.6671 42.4735 36.7908 42.5765C37.1029 42.845 37.3964 43.0739 37.671 43.2716C37.8184 43.6507 37.8959 44.0532 37.9 44.4599Z" fill="#5B2B1A"/>
<g style="mix-blend-mode:overlay" opacity="0.5">
<g style="mix-blend-mode:overlay" opacity="0.5">
<path d="M36.5289 43.0173C36.5289 45.8641 33.5551 47.9659 30.5127 47.9659C27.4702 47.9659 24.5006 46.0223 24.5006 43.0173C24.5025 42.8664 24.552 42.7199 24.642 42.5988C24.7321 42.4777 24.8581 42.3882 25.0021 42.343C25.4532 42.2187 25.9204 42.1625 26.3881 42.1765H34.6393C35.1077 42.1625 35.5756 42.2187 36.0274 42.343C36.1712 42.3885 36.297 42.4781 36.3871 42.5991C36.4771 42.7201 36.5267 42.8664 36.5289 43.0173Z" fill="black"/>
</g>
</g>
<path d="M36.2998 44.4597C36.2998 47.1983 33.4384 49.219 30.5125 49.219C27.5866 49.219 24.7294 47.3461 24.7294 44.4597C24.7294 44.0976 24.8813 43.7542 25.2371 43.7043C26.0238 43.5878 26.3671 43.0176 26.3671 42.3516V37.2178H34.6496V42.3537C34.6369 42.5738 34.6803 42.7934 34.7756 42.9922C34.871 43.1909 35.0152 43.3622 35.1948 43.49L35.276 43.5399C35.2776 43.5407 35.2794 43.541 35.2812 43.541C35.283 43.541 35.2847 43.5407 35.2864 43.5399C35.4394 43.6214 35.6057 43.675 35.7775 43.6981C36.15 43.7584 36.2998 44.0997 36.2998 44.4597Z" fill="#F7D1A5"/>
<g style="mix-blend-mode:overlay" opacity="0.6">
<path d="M35.2011 43.4893C34.7495 43.2375 34.2313 43.3894 34.0357 43.4248C33.6111 43.5052 33.1936 43.6194 32.7871 43.7661C31.9206 44.0822 30.9814 44.1422 30.0818 43.9388C29.1788 43.7393 28.3524 43.2842 27.7011 42.6278C27.3977 42.3256 27.0714 42.0473 26.7251 41.7954C26.6065 41.708 26.4879 41.6185 26.3734 41.5269V39.0609H34.6559V42.3531C34.6432 42.5731 34.6866 42.7928 34.7819 42.9915C34.8773 43.1902 35.0215 43.3615 35.2011 43.4893Z" fill="#352420"/>
</g>
<g style="mix-blend-mode:overlay" opacity="0.6">
<path d="M35.2927 43.5439H35.2822C35.2839 43.5447 35.2857 43.5451 35.2875 43.5451C35.2893 43.5451 35.2911 43.5447 35.2927 43.5439Z" fill="#352420"/>
</g>
<path d="M38.5558 32.0934C38.997 31.4483 39.5006 30.7845 40.2207 30.4286C40.8242 30.1206 41.4963 29.8584 42.1518 30.1831C43.2173 30.7096 43.2257 32.1684 42.8573 33.1319L42.1685 34.9299C41.9604 35.4793 41.9188 36.1348 41.5338 36.6051C40.7805 37.5332 39.4236 37.1711 38.7868 36.3262L38.7098 36.268L38.5558 32.0934Z" fill="url(#paint0_linear_37_860)"/>
<g style="mix-blend-mode:overlay" opacity="0.4">
<path d="M39.794 34.989C39.7497 35.0152 39.712 35.0512 39.6838 35.0942C39.6556 35.1371 39.6376 35.186 39.6312 35.237C39.6248 35.288 39.6301 35.3398 39.6468 35.3885C39.6634 35.4371 39.691 35.4813 39.7274 35.5176C39.8165 35.5978 39.9247 35.6536 40.0416 35.6799C40.1303 35.705 40.2207 35.7238 40.3121 35.7361C40.3764 35.7434 40.4414 35.7434 40.5057 35.7361C40.6492 35.7146 40.7843 35.6549 40.8969 35.5634C41.157 35.3624 41.36 35.097 41.4858 34.7934C41.6116 34.4915 41.6868 34.1709 41.7085 33.8445C41.7126 33.7661 41.7126 33.6877 41.7085 33.6093C41.7 33.3486 41.6217 33.0949 41.4817 32.8747C41.387 32.7348 41.2797 32.6038 41.1612 32.4835C41.1273 32.4376 41.0801 32.4035 41.0259 32.3857C41.1305 32.3974 41.2313 32.4315 41.3214 32.4857C41.4116 32.5399 41.489 32.613 41.5482 32.6999C41.799 33.005 41.9661 33.37 42.0331 33.7592C42.0331 33.7238 42.1268 33.601 42.1455 33.5656C42.3904 33.0946 42.4639 32.5532 42.3536 32.034C42.3164 31.8121 42.2225 31.6035 42.0811 31.4285C41.9396 31.2535 41.7554 31.118 41.5462 31.0351C40.9968 30.8541 40.6326 31.3015 40.385 31.7239C40.187 32.0699 40.0604 32.452 40.0125 32.8477C39.9799 33.0458 39.9743 33.2474 39.9958 33.447C40.0433 33.6159 40.1133 33.7776 40.2039 33.9277C40.3558 34.2877 40.3038 34.7726 39.9022 34.9391C39.8668 34.9557 39.8252 34.9724 39.794 34.989Z" fill="#352420"/>
</g>
<g style="mix-blend-mode:overlay" opacity="0.4">
<path d="M39.794 34.9886C39.7497 35.0147 39.712 35.0507 39.6838 35.0937C39.6556 35.1367 39.6376 35.1855 39.6312 35.2365C39.6248 35.2875 39.6301 35.3394 39.6468 35.388C39.6634 35.4366 39.691 35.4808 39.7274 35.5171C39.8165 35.5973 39.9247 35.6532 40.0416 35.6795C40.1303 35.7046 40.2207 35.7233 40.3121 35.7356C40.3764 35.743 40.4414 35.743 40.5057 35.7356C40.6492 35.7141 40.7843 35.6544 40.8969 35.5629C40.9498 35.5234 41.0005 35.481 41.0488 35.436C41.08 35.4048 41.1216 35.386 41.1529 35.3569C40.9652 35.5015 40.7412 35.5915 40.5057 35.617C40.4357 35.6157 40.3661 35.608 40.2976 35.5941C40.1933 35.5844 40.0931 35.5487 40.0062 35.4901C39.9637 35.46 39.9317 35.4172 39.9149 35.3679C39.8981 35.3186 39.8973 35.2652 39.9126 35.2154C39.9501 35.1482 40.0056 35.0927 40.0728 35.0552C40.1822 34.9832 40.2626 34.8748 40.2996 34.7492C40.3072 34.7018 40.3107 34.6537 40.31 34.6057C40.3179 34.4665 40.3102 34.3269 40.2872 34.1895C40.3005 34.2631 40.3005 34.3385 40.2872 34.4121C40.2768 34.484 40.2565 34.554 40.2268 34.6202C40.1641 34.757 40.0518 34.8649 39.9126 34.922C39.8668 34.9553 39.8252 34.9719 39.794 34.9886Z" fill="#352420"/>
</g>
<g style="mix-blend-mode:overlay" opacity="0.5">
<path d="M41.6833 34.123C41.7194 33.957 41.7306 33.7866 41.7166 33.6173C41.7081 33.3565 41.6298 33.1028 41.4898 32.8827C41.3025 32.5893 41.0361 32.2833 40.6573 32.2792C40.827 32.3565 40.9813 32.4636 41.1131 32.5955C41.1607 32.6512 41.2032 32.7111 41.24 32.7745C41.484 33.1864 41.6353 33.6466 41.6833 34.123Z" fill="#352420"/>
</g>
<g style="mix-blend-mode:overlay" opacity="0.5">
<path d="M42.4096 32.7164C42.393 32.6124 42.4096 32.5083 42.4096 32.3939C42.4036 32.2756 42.3883 32.158 42.3639 32.0422C42.3266 31.8202 42.2328 31.6117 42.0913 31.4367C41.9499 31.2617 41.7656 31.1262 41.5564 31.0433C41.4559 31.0086 41.3491 30.9964 41.2433 31.0075C41.1376 31.0187 41.0356 31.0529 40.9446 31.1078C40.8534 31.1652 40.7707 31.2353 40.699 31.3159C40.6183 31.3838 40.5512 31.4664 40.5013 31.5594C40.6989 31.4022 40.942 31.3131 41.1943 31.3055C41.4483 31.3001 41.6952 31.389 41.8873 31.5552C41.9369 31.6014 41.9835 31.6507 42.0267 31.703C42.2571 31.9925 42.391 32.3469 42.4096 32.7164Z" fill="#352420"/>
</g>
<path d="M22.438 32.0934C21.9947 31.4483 21.4932 30.7845 20.7732 30.4286C20.1676 30.1206 19.4975 29.8584 18.842 30.1831C17.7765 30.7096 17.7661 32.1684 18.1365 33.1319C18.3654 33.7312 18.595 34.3305 18.8253 34.9299C19.0334 35.4793 19.0751 36.1348 19.4496 36.6051C20.205 37.5332 21.5619 37.1711 22.1966 36.3262L22.2736 36.268L22.438 32.0934Z" fill="url(#paint1_linear_37_860)"/>
<g style="mix-blend-mode:overlay" opacity="0.3">
<path d="M21.198 34.989C21.2426 35.0149 21.2806 35.0508 21.309 35.0937C21.3375 35.1367 21.3557 35.1857 21.3621 35.2368C21.3685 35.288 21.3631 35.3399 21.3462 35.3886C21.3293 35.4373 21.3014 35.4815 21.2646 35.5176C21.1762 35.5977 21.0687 35.6536 20.9524 35.6799C20.8637 35.7048 20.7733 35.7236 20.6819 35.7361C20.6176 35.7434 20.5527 35.7434 20.4884 35.7361C20.3444 35.7139 20.2088 35.6544 20.0951 35.5634C19.835 35.3624 19.632 35.097 19.5061 34.7934C19.382 34.4911 19.3075 34.1706 19.2856 33.8445C19.2814 33.7661 19.2814 33.6877 19.2856 33.6093C19.2924 33.3486 19.3701 33.0946 19.5103 32.8747C19.605 32.7348 19.7122 32.6038 19.8308 32.4835C19.8658 32.438 19.9136 32.4039 19.9681 32.3857C19.8635 32.3971 19.7626 32.4311 19.6724 32.4853C19.5822 32.5396 19.5049 32.6128 19.4458 32.6999C19.1948 33.0051 19.027 33.37 18.9588 33.7592C18.9588 33.7238 18.8652 33.601 18.8465 33.5656C18.6016 33.0946 18.528 32.5532 18.6384 32.034C18.6752 31.8119 18.7689 31.6032 18.9104 31.4281C19.0519 31.2531 19.2364 31.1177 19.4458 31.0351C19.9931 30.8541 20.3573 31.3015 20.6049 31.7239C20.8063 32.0662 20.9365 32.4456 20.9878 32.8393C21.0194 33.0375 21.025 33.239 21.0045 33.4387C20.9569 33.6075 20.887 33.7692 20.7964 33.9194C20.6445 34.2794 20.6965 34.7643 21.0981 34.9308C21.1323 34.9486 21.1656 34.9681 21.198 34.989Z" fill="#352420"/>
</g>
<g style="mix-blend-mode:overlay" opacity="0.4">
<path d="M21.1983 34.9886C21.2428 35.0145 21.2808 35.0503 21.3093 35.0933C21.3377 35.1363 21.3559 35.1852 21.3623 35.2364C21.3688 35.2875 21.3633 35.3395 21.3464 35.3882C21.3295 35.4369 21.3016 35.481 21.2648 35.5171C21.1765 35.5972 21.069 35.6531 20.9527 35.6795C20.8639 35.7044 20.7735 35.7231 20.6822 35.7356C20.6179 35.7429 20.5529 35.7429 20.4886 35.7356C20.3447 35.7135 20.209 35.6539 20.0953 35.5629C20.0433 35.5234 19.9933 35.4797 19.9455 35.436C19.8976 35.3923 19.8706 35.386 19.8414 35.3569C20.0289 35.5019 20.253 35.5919 20.4886 35.617C20.5586 35.616 20.6282 35.6083 20.6967 35.5941C20.801 35.5844 20.9012 35.5487 20.9881 35.4901C21.0314 35.4606 21.0639 35.4179 21.0808 35.3684C21.0977 35.3188 21.098 35.2651 21.0817 35.2154C21.0441 35.149 20.9895 35.0937 20.9236 35.0552C20.8136 34.9838 20.7331 34.8752 20.6967 34.7492C20.6884 34.7018 20.6842 34.6538 20.6842 34.6057C20.678 34.4664 20.6864 34.3269 20.7092 34.1895C20.6947 34.263 20.6947 34.3386 20.7092 34.4121C20.7177 34.4843 20.7381 34.5547 20.7696 34.6202C20.8314 34.7569 20.943 34.8648 21.0817 34.922C21.1217 34.9421 21.1606 34.9643 21.1983 34.9886Z" fill="#352420"/>
</g>
<g style="mix-blend-mode:overlay" opacity="0.5">
<path d="M19.3079 34.123C19.2725 33.9569 19.262 33.7865 19.2767 33.6173C19.2835 33.3565 19.3612 33.1026 19.5015 32.8827C19.6888 32.5893 19.9572 32.2833 20.3339 32.2792C20.1642 32.3565 20.0099 32.4636 19.8781 32.5955C19.8311 32.6512 19.7893 32.7111 19.7533 32.7745C19.5096 33.1867 19.3577 33.6467 19.3079 34.123Z" fill="#352420"/>
</g>
<g style="mix-blend-mode:overlay" opacity="0.5">
<path d="M18.5842 32.7167C18.5904 32.6093 18.5904 32.5016 18.5842 32.3941C18.5909 32.2758 18.6069 32.1582 18.632 32.0424C18.6688 31.8204 18.7626 31.6116 18.9041 31.4366C19.0456 31.2615 19.23 31.1261 19.4395 31.0436C19.54 31.009 19.6468 30.9969 19.7525 31.008C19.8582 31.0192 19.9602 31.0533 20.0513 31.1081C20.1419 31.1655 20.2239 31.2356 20.2948 31.3162C20.3799 31.3824 20.4507 31.4652 20.5029 31.5596C20.3045 31.4024 20.0608 31.3134 19.8078 31.3058C19.5545 31.3007 19.3084 31.3896 19.1169 31.5555C19.0662 31.6006 19.0196 31.65 18.9775 31.7032C18.7416 31.9904 18.6038 32.3456 18.5842 32.7167Z" fill="#352420"/>
</g>
<path d="M39.6899 25.1307V33.6483C39.6899 37.2401 37.4632 40.3304 34.2667 41.708C33.8727 41.8789 33.4927 42.0807 33.1305 42.3115C32.3516 42.8102 31.4458 43.0746 30.5209 43.0732C29.5958 43.0742 28.6899 42.8091 27.9113 42.3095C27.5484 42.0792 27.1686 41.8767 26.7751 41.7039C23.7389 40.3949 21.5725 37.5418 21.3644 34.181C21.3499 34.0062 21.3457 33.8272 21.3457 33.6483V25.1307C21.3457 23.9716 21.8061 22.8601 22.6257 22.0405C23.4452 21.221 24.5568 20.7605 25.7158 20.7605H35.3031C35.8784 20.7583 36.4484 20.8698 36.9806 21.0884C37.5127 21.307 37.9964 21.6286 38.404 22.0346C38.8116 22.4406 39.135 22.9231 39.3556 23.4544C39.5763 23.9857 39.6899 24.5554 39.6899 25.1307Z" fill="#F7D1A5"/>
<path d="M42.6177 26.0255C42.4297 25.9482 42.2505 25.8512 42.0829 25.7362C42.0003 25.6918 41.9282 25.6302 41.8715 25.5555C41.8148 25.4808 41.7747 25.3949 41.7541 25.3034C41.7671 25.4509 41.7887 25.5975 41.8186 25.7425C41.8332 25.909 41.8061 26.09 41.8082 26.2565C41.8082 26.5999 41.8394 26.9432 41.8415 27.2866C41.8415 27.8318 41.8519 28.3791 41.8519 28.9264C41.8519 29.2178 41.8519 29.4238 41.8519 29.7172C41.8519 29.7172 41.8519 30.0668 41.8519 30.071C41.745 30.0348 41.6309 30.0254 41.5195 30.0436C41.4082 30.0617 41.3029 30.1068 41.213 30.175C40.4472 30.6828 39.9186 32.6723 39.7022 33.6004C39.7022 33.617 39.7022 33.6316 39.7022 33.6503C39.7022 33.6316 39.7022 33.617 39.7022 33.6004C39.723 32.9761 39.723 32.3518 39.7022 31.7275C39.6918 31.2655 39.7438 30.7556 39.594 30.3124C39.557 30.2104 39.5118 30.1115 39.4587 30.0169C39.3097 29.77 39.1276 29.5445 38.9177 29.3468C38.618 29.0513 38.3475 28.7225 38.0686 28.4103C37.7175 28.004 37.4622 27.5239 37.3215 27.0057C37.1236 26.3941 37.0369 25.752 37.0656 25.1099C36.9262 25.6408 36.906 26.196 37.0064 26.7356C37.1068 27.2753 37.3253 27.786 37.6462 28.2314C36.6931 27.7652 35.7046 27.2471 35.1052 26.3709C34.7021 25.7522 34.49 25.0284 34.4955 24.2899C34.3519 24.9347 34.3813 25.606 34.5808 26.2357C34.11 25.6458 33.8247 24.9296 33.7609 24.1776C33.759 24.5654 33.6802 24.949 33.5291 25.3062C33.378 25.6634 33.1576 25.9871 32.8806 26.2586C32.2855 26.8725 31.4822 27.1971 30.681 27.4531C31.8172 27.091 32.3645 25.9964 32.4852 24.8705C32.5507 24.3998 32.5058 23.9204 32.3541 23.47C32.2681 23.2306 32.1303 23.0131 31.9504 22.8333C31.7705 22.6534 31.5531 22.5155 31.3136 22.4295C30.9328 22.288 30.4458 22.5252 30.1587 22.777C29.9119 22.5516 29.5897 22.4269 29.2555 22.4274C28.9475 22.4274 28.4959 22.5377 28.3711 22.854C28.2399 23.2235 28.173 23.6128 28.1734 24.0048C28.1579 24.6038 28.3288 25.1928 28.6624 25.6904C28.8848 26.0143 29.1706 26.2896 29.5026 26.4995C29.8345 26.7095 30.2057 26.8499 30.5936 26.912C30.0149 27.0455 29.4116 27.0283 28.8414 26.8621C28.5903 26.7859 28.3454 26.6906 28.1089 26.577C27.6366 26.3478 27.237 25.9925 26.9542 25.5503C26.6714 25.1081 26.5164 24.5962 26.5065 24.0714C26.4987 24.4426 26.4371 24.8106 26.3233 25.164C26.2082 25.6242 26.0457 26.0712 25.8385 26.4979C25.2142 27.7194 23.9822 28.5623 22.6545 28.8952C23.4121 28.3936 23.9748 27.6473 24.2486 26.7809C24.5167 25.9119 24.477 24.977 24.1362 24.1339C24.207 25.5906 23.9156 27.555 22.6545 28.4915C21.9012 29.0471 21.8346 29.9919 21.7118 30.8451C21.6431 31.3175 21.4205 33.2862 21.3185 33.7336C21.3736 32.7098 21.153 31.69 20.6796 30.7806C20.6137 30.6424 20.5305 30.513 20.432 30.3956C20.2497 30.1947 19.9988 30.0692 19.7286 30.0439C19.7286 30.0439 19.7411 29.6277 19.7411 29.5924C19.7411 28.5019 19.7577 27.4135 19.7598 26.3252C19.7242 26.5402 19.6479 26.7464 19.5351 26.9328C19.3532 27.2144 19.1395 27.4742 18.8983 27.707C19.1563 26.8641 19.4144 25.9901 19.3145 25.1119C19.2275 24.5759 19.1002 24.0472 18.9337 23.5304C18.6943 22.6189 18.8296 21.7865 19.1085 20.9C19.1293 20.8292 19.1542 20.7564 19.1813 20.6919C19.2742 20.4222 19.3826 20.1582 19.5059 19.9011C19.705 19.4949 19.936 19.1052 20.1968 18.7357C20.5384 18.2164 20.9598 17.7543 21.4454 17.3664C21.6998 17.1735 21.98 17.0173 22.2779 16.9023C22.4308 16.8406 22.5898 16.7952 22.7523 16.7671C22.9248 16.7662 23.0966 16.7452 23.2643 16.7046C22.6191 16.6588 22.1051 16.1365 21.7826 15.5767C22.0614 15.7848 22.4464 15.7848 22.796 15.7557C23.4643 15.7464 24.1258 15.6196 24.7501 15.3811C24.9582 15.2916 25.1434 15.173 25.3453 15.096C25.5593 15.008 25.7782 14.9323 26.0008 14.8692L26.7229 14.6507C26.9931 14.558 27.272 14.4931 27.5553 14.4571C28.1431 14.4022 28.7352 14.4945 29.2784 14.7256C29.5739 14.8754 30.2232 15.2521 30.1836 15.6475C30.2973 15.5019 30.3956 15.345 30.4771 15.1792C30.6595 14.8785 30.9317 14.6427 31.2554 14.505C31.665 14.3827 32.099 14.367 32.5165 14.4592C32.2617 14.4775 32.0137 14.5492 31.7886 14.6697C31.5634 14.7901 31.3661 14.9567 31.2096 15.1584C31.2853 15.0908 31.3676 15.0309 31.4551 14.9795C31.5535 14.9126 31.6564 14.8528 31.7631 14.8005C31.9786 14.6943 32.2075 14.618 32.4436 14.5737C32.9612 14.4928 33.4886 14.4984 34.0044 14.5903L34.2791 14.6361L34.3457 14.6465C34.7848 14.7107 35.2163 14.8187 35.6338 14.9691C36.0667 15.1439 36.4496 15.4269 36.8824 15.6183C37.5943 15.9329 38.3968 15.9759 39.1383 15.739C38.9938 15.9693 38.8234 16.1823 38.6305 16.3737C38.4328 16.5612 38.1792 16.6789 37.9084 16.7088C38.7028 16.8123 39.4397 17.1786 40.0019 17.7493C40.4518 18.184 40.8454 18.6733 41.1735 19.206C41.6618 19.9983 42.007 20.8704 42.1932 21.7823C42.3846 22.7292 42.3368 23.6968 42.3368 24.6562C42.3368 25.0911 42.3534 25.5489 42.5657 25.9235C42.5801 25.9589 42.5975 25.993 42.6177 26.0255Z" fill="#804035"/>
<path style="mix-blend-mode:overlay" opacity="0.7" d="M39.8819 31.6195C39.8819 31.5113 39.8819 31.401 39.8819 31.2887C39.9059 30.9025 39.8658 30.5151 39.7633 30.142C39.7223 30.0282 39.6715 29.9182 39.6114 29.8132C39.4525 29.5496 39.2586 29.3088 39.0349 29.0973C38.8164 28.8892 38.6063 28.6416 38.4106 28.4085L38.2025 28.1713C37.8718 27.7872 37.632 27.3333 37.5012 26.8436C37.3561 26.3973 37.268 25.9344 37.239 25.466C37.239 25.2579 37.1953 25.0747 37.1953 24.8791C37.1953 24.6252 37.1953 24.3713 37.2224 24.1175C37.119 24.2785 37.0332 24.4501 36.9664 24.6294C36.8776 24.8626 36.808 25.1028 36.7583 25.3473C36.7171 25.6074 36.7018 25.8709 36.7125 26.134C36.7249 26.3957 36.7625 26.6557 36.8249 26.9102C36.8582 27.0413 36.8977 27.1703 36.9414 27.2973C36.9664 27.3618 37.0226 27.6032 37.083 27.6344C36.3504 27.2452 35.6928 26.802 35.2537 26.1631C34.9822 25.755 34.8052 25.2915 34.7356 24.8063C34.6939 24.542 34.6731 24.2798 34.6357 24.0176C34.6148 23.8734 34.6023 23.7282 34.5982 23.5826C34.5803 23.4441 34.5845 23.3036 34.6107 23.1664C34.5441 23.335 34.4775 23.5036 34.4172 23.6742C34.2587 24.1154 34.1784 24.5809 34.1799 25.0498C34.1626 24.969 34.1353 24.8907 34.0988 24.8167C34.0738 24.7397 34.053 24.6606 34.0343 24.5815C34.0142 24.4301 33.9822 24.2805 33.9385 24.1341C33.8137 23.8469 33.7179 23.5452 33.6139 23.2455C33.6014 23.3143 33.5931 23.3838 33.5889 23.4536C33.5702 23.7054 33.6014 23.9572 33.5702 24.209C33.5394 24.4257 33.4907 24.6393 33.4245 24.8479C33.2826 25.2879 33.0396 25.6884 32.7149 26.0174C32.5271 26.2061 32.3176 26.3716 32.0906 26.5106C32.4196 25.9952 32.6182 25.4074 32.6691 24.798C32.7414 24.2949 32.6921 23.7819 32.5255 23.3017C32.4295 23.0337 32.2754 22.7903 32.0743 22.5888C31.8732 22.3874 31.63 22.2328 31.3622 22.1363C31.259 22.0983 31.1497 22.0793 31.0397 22.0802C30.7114 22.0978 30.3959 22.2138 30.1344 22.4131C29.8738 22.2251 29.5609 22.1233 29.2396 22.1218C28.8338 22.1218 28.3135 22.2716 28.1533 22.6816C28.0131 23.0727 27.9427 23.4855 27.9452 23.901C27.9297 24.5435 28.1128 25.175 28.4696 25.7094C28.75 26.1185 29.1247 26.4539 29.5622 26.6875C29.3315 26.6719 29.1032 26.6307 28.8817 26.5647C28.6364 26.495 28.397 26.4059 28.1658 26.2984C28.0321 26.2363 27.9046 26.1618 27.785 26.0757C27.3587 25.7689 27.0335 25.3423 26.8506 24.85C26.7575 24.5612 26.6913 24.2644 26.6529 23.9635C26.603 23.67 26.4989 23.387 26.4448 23.0936C26.4493 23.2974 26.4204 23.5005 26.3595 23.695C26.306 24.1405 26.217 24.581 26.0931 25.0123C25.9818 25.4593 25.8249 25.8938 25.6249 26.3088C25.1712 27.1492 24.4591 27.8212 23.5938 28.2254C23.9697 27.7952 24.2531 27.2923 24.4262 26.7479C24.5882 26.2252 24.6448 25.6756 24.5927 25.1309C24.5657 24.8529 24.5114 24.5783 24.4304 24.311C24.4156 24.2207 24.3876 24.133 24.3471 24.0509L23.8206 23.2351C23.8544 23.3266 23.8782 23.4215 23.8914 23.5181C23.9137 23.6122 23.9235 23.7087 23.9205 23.8053C23.9205 24.028 23.9205 24.2507 23.9205 24.4733C23.9127 24.9199 23.8703 25.3652 23.7936 25.8052C23.6313 26.7125 23.2712 27.6614 22.5054 28.2275C21.7396 28.7935 21.6231 29.6946 21.5128 30.4958L21.4816 30.7185C21.4587 30.8704 21.4212 31.1763 21.3754 31.5384C21.363 31.6507 21.3484 31.7673 21.3317 31.888C21.2193 31.4365 21.0537 30.9999 20.8385 30.5873C20.7631 30.4344 20.6695 30.2912 20.5597 30.1607C20.3889 29.9728 20.1668 29.839 19.9208 29.7758C19.9208 29.6988 19.9208 29.6072 19.9208 29.4969C19.9208 28.9121 19.9208 28.3274 19.9208 27.7426C19.9208 27.0142 20.0124 26.2568 19.7668 25.5596C19.7371 25.7731 19.6833 25.9825 19.6066 26.1839C19.5302 26.3615 19.4397 26.5327 19.336 26.6958C19.4863 26.1403 19.5391 25.563 19.4921 24.9894C19.4391 24.5855 19.3499 24.1871 19.2257 23.7991C19.1841 23.6576 19.1446 23.5181 19.1071 23.3829C18.8595 22.4402 19.0551 21.5807 19.2778 20.8669C19.2986 20.8003 19.3215 20.7296 19.3464 20.6588C19.4385 20.3959 19.5448 20.1382 19.6648 19.8868C19.8591 19.4901 20.0845 19.1094 20.3391 18.7484C20.6693 18.2459 21.0783 17.7997 21.5502 17.427C21.787 17.2459 22.0484 17.0995 22.3265 16.9921C22.4659 16.9353 22.611 16.8934 22.7593 16.8672C22.9482 16.852 23.135 16.8178 23.317 16.7652C23.5032 16.703 23.6803 16.6162 23.8435 16.5072C23.8935 16.4556 23.9596 16.4226 24.0308 16.4135C23.6894 16.4681 23.3401 16.4446 23.009 16.3449C22.8598 16.2988 22.7192 16.2285 22.5928 16.1368C22.5317 16.0925 22.4733 16.0445 22.418 15.9932C22.3951 15.9724 22.3161 15.8642 22.289 15.8621C22.3556 15.8621 22.4201 15.8621 22.4763 15.8621C22.5762 15.8621 22.6844 15.8621 22.778 15.8517C23.4739 15.8475 24.1636 15.7207 24.8154 15.4771C24.9194 15.4313 25.0235 15.3793 25.1213 15.3293C25.2191 15.2794 25.3106 15.2336 25.4085 15.1899C25.6124 15.1088 25.8209 15.0393 26.0328 14.9818L26.1867 14.9339L26.7528 14.7633C27.0137 14.6745 27.2828 14.6118 27.5561 14.576C27.6435 14.576 27.7392 14.5635 27.8391 14.5635C28.2951 14.5543 28.7479 14.643 29.1668 14.8236C29.4187 14.9382 29.6473 15.0983 29.841 15.296C29.8923 15.3576 29.9318 15.4282 29.9576 15.5041C30.0246 15.6146 30.0844 15.7293 30.1365 15.8475C30.2385 15.7851 30.2843 15.6685 30.3696 15.5874C30.4415 15.5271 30.5003 15.4527 30.5423 15.3689C30.5715 15.3127 30.5985 15.2586 30.6297 15.2107C30.7874 14.9444 31.0257 14.7352 31.3102 14.6135L31.3497 14.601C31.1874 14.6551 31.073 14.8944 31.0251 15.0401C31.0043 15.1004 30.9835 15.1587 30.9668 15.2211C30.9373 15.3316 30.9171 15.4444 30.9065 15.5582C31.0364 15.4127 31.1872 15.2871 31.3539 15.1857C31.51 15.09 31.6536 14.9776 31.8201 14.8986C32.018 14.8017 32.2279 14.7317 32.4444 14.6905C32.6503 14.6531 32.8593 14.6349 33.0687 14.6364C33.3614 14.6391 33.6535 14.6635 33.9427 14.7092L34.2132 14.7529C34.24 14.7593 34.2671 14.7642 34.2944 14.7675H34.3048C34.7211 14.8278 35.1303 14.9296 35.5264 15.0713C35.7465 15.1671 35.96 15.2776 36.1652 15.4022C36.3582 15.5187 36.5576 15.6243 36.7625 15.7185C37.1936 15.9097 37.6601 16.0083 38.1318 16.0077C38.2891 16.0078 38.4462 15.9974 38.6021 15.9765C38.5554 16.0315 38.5053 16.0837 38.4523 16.1326C38.2798 16.2718 38.0764 16.3675 37.8592 16.4115C37.6235 16.4831 37.3978 16.5837 37.187 16.7111C37.1766 16.7111 37.1641 16.7278 37.1683 16.7403C37.3632 16.7299 37.5586 16.7509 37.7468 16.8027C38.118 16.862 38.4807 16.9661 38.8268 17.1128C39.1929 17.2949 39.5279 17.5337 39.8195 17.8203C40.2579 18.2384 40.6423 18.7096 40.964 19.2229C41.4401 19.9945 41.7761 20.8441 41.9567 21.7326C42.0849 22.5116 42.1323 23.3017 42.0982 24.0904C42.0982 24.2486 42.0982 24.4067 42.0982 24.5649C42.0919 24.8686 42.1184 25.1721 42.1773 25.4701C42.1773 25.4306 42.0066 25.3328 41.9692 25.2974C41.9065 25.2324 41.8488 25.1629 41.7965 25.0893C41.6803 24.9482 41.5888 24.7885 41.5259 24.6169C41.5672 24.9705 41.5804 25.3267 41.5655 25.6824C41.5655 26.007 41.5655 26.3338 41.5884 26.6584C41.5884 26.8353 41.6029 27.0122 41.605 27.189V27.6053C41.605 28.011 41.605 28.4168 41.605 28.8226C41.605 28.9933 41.605 29.1348 41.605 29.2825C41.605 29.3866 41.605 29.4907 41.605 29.6134C41.605 29.6426 41.605 29.68 41.605 29.7279H41.5551C41.3741 29.7307 41.1986 29.7904 41.0535 29.8985C40.5645 30.2232 40.1712 31.0473 39.8694 31.9525C39.8791 31.8457 39.8833 31.7347 39.8819 31.6195Z" fill="url(#paint2_radial_37_860)"/>
<g style="mix-blend-mode:overlay" opacity="0.3">
<path d="M42.6177 26.0256C42.4297 25.9483 42.2505 25.8513 42.0829 25.7363C42.0003 25.6919 41.9282 25.6302 41.8715 25.5556C41.8148 25.4809 41.7747 25.3949 41.7541 25.3035C41.7671 25.4509 41.7887 25.5975 41.8186 25.7425C41.8332 25.909 41.8061 26.0901 41.8082 26.2566C41.8082 26.5999 41.8394 26.9433 41.8415 27.2867C41.8415 27.8319 41.8519 28.3792 41.8519 28.9265C41.8519 29.2178 41.8519 29.4239 41.8519 29.7173C41.8519 29.7173 41.8519 30.0669 41.8519 30.0711C41.745 30.0349 41.6309 30.0255 41.5195 30.0436C41.4082 30.0618 41.3029 30.1069 41.213 30.1751C40.4472 30.6829 39.9186 32.6723 39.7022 33.6005C39.7022 33.6171 39.7022 33.6317 39.7022 33.6504C39.7022 33.6317 39.7022 33.6171 39.7022 33.6005C39.723 32.9762 39.723 32.3519 39.7022 31.7276C39.6918 31.2656 39.7438 30.7557 39.594 30.3125C39.557 30.2104 39.5118 30.1116 39.4587 30.017C39.3097 29.77 39.1276 29.5446 38.9177 29.3469C38.618 29.0514 38.3475 28.7226 38.0686 28.4104C37.7175 28.0041 37.4622 27.524 37.3215 27.0057C37.1236 26.3942 37.0369 25.7521 37.0656 25.1099C36.9262 25.6409 36.906 26.196 37.0064 26.7357C37.1068 27.2753 37.3253 27.7861 37.6462 28.2314C36.6931 27.7653 35.7046 27.2471 35.1052 26.371C34.7021 25.7523 34.49 25.0285 34.4955 24.29C34.3519 24.9348 34.3813 25.606 34.5808 26.2358C34.11 25.6459 33.8247 24.9296 33.7609 24.1776C33.759 24.5655 33.6802 24.9491 33.5291 25.3063C33.378 25.6635 33.1576 25.9872 32.8806 26.2586C32.2855 26.8725 31.4822 27.1972 30.681 27.4531C31.8172 27.091 32.3645 25.9964 32.4852 24.8706C32.5507 24.3999 32.5058 23.9204 32.3541 23.4701C32.2681 23.2307 32.1303 23.0132 31.9504 22.8333C31.7705 22.6534 31.5531 22.5156 31.3136 22.4296C30.9328 22.2881 30.4458 22.5253 30.1587 22.7771C29.9119 22.5517 29.5897 22.427 29.2555 22.4275C28.9475 22.4275 28.4959 22.5378 28.3711 22.8541C28.2399 23.2236 28.173 23.6128 28.1734 24.0049C28.1579 24.6039 28.3288 25.1929 28.6624 25.6905C28.8848 26.0144 29.1706 26.2896 29.5026 26.4996C29.8345 26.7096 30.2057 26.8499 30.5936 26.9121C30.0149 27.0455 29.4116 27.0283 28.8414 26.8621C28.5903 26.786 28.3454 26.6907 28.1089 26.577C27.6366 26.3479 27.237 25.9926 26.9542 25.5503C26.6714 25.1081 26.5164 24.5963 26.5065 24.0715C26.4987 24.4426 26.4371 24.8107 26.3233 25.164C26.2082 25.6242 26.0457 26.0713 25.8385 26.498C25.2142 27.7195 23.9822 28.5623 22.6545 28.8953C23.4121 28.3937 23.9748 27.6474 24.2486 26.781C24.5167 25.912 24.477 24.9771 24.1362 24.1339C24.207 25.5906 23.9156 27.5551 22.6545 28.4916C21.9012 29.0472 21.8346 29.992 21.7118 30.8452C21.6431 31.3176 21.4205 33.2862 21.3185 33.7337C21.3736 32.7099 21.153 31.6901 20.6796 30.7807C20.6137 30.6424 20.5305 30.5131 20.432 30.3957C20.2497 30.1947 19.9988 30.0693 19.7286 30.044C19.7286 30.044 19.7411 29.6278 19.7411 29.5924C19.7411 28.502 19.7577 27.4136 19.7598 26.3252C19.7242 26.5402 19.6479 26.7465 19.5351 26.9329C19.3532 27.2145 19.1395 27.4743 18.8983 27.707C19.1563 26.8642 19.4144 25.9902 19.3145 25.112C19.2275 24.576 19.1002 24.0473 18.9337 23.5304C18.6943 22.6189 18.8296 21.7865 19.1085 20.9C19.1293 20.8293 19.1542 20.7564 19.1813 20.6919C19.1616 21.3463 19.2466 21.9997 19.4331 22.6273C19.5436 22.9898 19.6943 23.3388 19.8826 23.6678C19.9596 23.8051 20.0324 23.9508 20.1094 24.084C20.1531 24.1589 20.3945 24.3691 20.3904 24.4377C20.4799 23.133 21.5537 22.159 22.4964 21.3807C22.642 21.2621 22.8897 21.2101 23.0125 21.0936C22.7772 21.3174 22.5976 21.5932 22.488 21.8989C22.3654 22.3031 22.3174 22.7262 22.3465 23.1475C22.3611 23.8551 22.461 24.6209 22.95 25.1349C22.8083 23.8023 23.1731 22.4651 23.9718 21.3891C24.0181 21.6258 24.0922 21.8563 24.1924 22.0758C24.4699 22.7542 24.7473 23.4319 25.0248 24.109C25.2329 23.2141 25.3952 22.3692 25.8177 21.5389C25.967 21.2487 26.1316 20.9667 26.3109 20.694C26.3891 20.5694 26.476 20.4505 26.571 20.3381C26.6501 20.2487 26.8478 20.1488 26.8998 20.0572C26.784 20.3202 26.7184 20.6025 26.7063 20.8896C26.6255 21.4253 26.6703 21.9725 26.8374 22.4878C26.8402 22.2783 26.8811 22.071 26.9581 21.876C27.3514 20.7419 28.1422 19.693 29.2576 19.2498C29.1533 19.7118 29.2198 20.196 29.4449 20.6128C29.6695 21.0251 29.9495 21.4046 30.2773 21.7408C30.4354 21.0519 30.5915 20.334 30.4271 19.6472C31.1786 20.0095 31.7884 20.6112 32.1606 21.3578C32.1918 20.592 32.2147 19.7825 31.8422 19.1124C32.3126 19.3974 32.7471 19.7376 33.1366 20.1259C33.6522 20.7102 34.0046 21.4201 34.1584 22.184C34.2271 21.7678 34.5267 21.3516 34.7993 21.027C34.949 20.851 35.114 20.6887 35.2925 20.5421C35.3799 20.4713 35.4673 20.4068 35.561 20.3444C35.613 20.3069 35.8211 20.2216 35.844 20.1696C35.5394 20.9259 35.4302 21.7467 35.5266 22.5564C35.623 23.366 35.9218 24.1383 36.3955 24.8019C36.2543 24.2875 36.2404 23.7465 36.3549 23.2255C36.4695 22.7045 36.7091 22.2192 37.0531 21.8115C36.8221 22.7188 37.3631 23.6407 37.9874 24.3399C38.6118 25.0392 39.3588 25.676 39.6793 26.5562C39.8146 25.9923 39.4129 25.4574 39.1924 24.9185C38.8677 24.1235 38.9343 23.2266 39.0071 22.3651C39.4546 23.3598 39.9977 24.4461 41.0216 24.8207C40.5545 23.9138 40.4582 22.8609 40.7531 21.8843C40.9884 22.69 41.2663 23.4826 41.5855 24.2588C41.8083 24.8709 42.1365 25.4393 42.5553 25.9382C42.5737 25.9689 42.5946 25.9981 42.6177 26.0256Z" fill="black"/>
</g>
<path d="M36.6015 30.9322C35.9419 31.5625 35.0644 31.9137 34.1521 31.9124C33.5105 31.9281 32.8883 31.6921 32.4186 31.2548C32.3253 31.1507 32.2734 31.0159 32.2729 30.876C32.2704 30.777 32.2948 30.6792 32.3437 30.593C32.6288 30.0957 33.2906 29.2445 34.4872 29.2591C35.3341 29.2695 36.0916 29.7211 36.5432 30.0624C36.6376 30.1381 36.7048 30.2426 36.7346 30.3599C36.7611 30.4589 36.7628 30.5629 36.7396 30.6627C36.7164 30.7625 36.6689 30.8551 36.6015 30.9322Z" fill="white"/>
<path d="M35.7193 30.7C35.7138 31.0495 35.5698 31.3826 35.3189 31.6261C35.068 31.8696 34.7308 32.0035 34.3812 31.9985C34.0316 32.0035 33.6943 31.8696 33.4435 31.6261C33.1926 31.3826 33.0486 31.0495 33.0431 30.7C33.0458 30.527 33.0826 30.3562 33.1513 30.1974C33.22 30.0386 33.3193 29.8949 33.4436 29.7745C33.5678 29.6542 33.7146 29.5594 33.8755 29.4958C34.0363 29.4321 34.2082 29.4007 34.3812 29.4035C34.5542 29.4007 34.726 29.4321 34.8869 29.4958C35.0478 29.5594 35.1945 29.6542 35.3188 29.7745C35.443 29.8949 35.5424 30.0386 35.6111 30.1974C35.6798 30.3562 35.7166 30.527 35.7193 30.7Z" fill="#4B212B"/>
<path style="mix-blend-mode:overlay" d="M35.4986 30.7005C35.4936 30.9922 35.3732 31.2699 35.1637 31.4728C34.9541 31.6757 34.6727 31.7871 34.3811 31.7827C34.2368 31.7849 34.0934 31.7586 33.9593 31.7054C33.8251 31.6522 33.7028 31.5731 33.5992 31.4727C33.4956 31.3722 33.4128 31.2523 33.3556 31.1198C33.2984 30.9873 33.2678 30.8448 33.2656 30.7005C33.2678 30.5562 33.2984 30.4138 33.3556 30.2813C33.4128 30.1488 33.4956 30.0289 33.5992 29.9284C33.7028 29.8279 33.8251 29.7488 33.9593 29.6956C34.0934 29.6425 34.2368 29.6162 34.3811 29.6184C34.6727 29.614 34.9541 29.7254 35.1637 29.9283C35.3732 30.1312 35.4936 30.4089 35.4986 30.7005Z" fill="url(#paint3_linear_37_860)"/>
<path style="mix-blend-mode:overlay" opacity="0.5" d="M35.4986 30.7005C35.4936 30.9922 35.3732 31.2699 35.1637 31.4728C34.9541 31.6757 34.6727 31.7871 34.3811 31.7827C34.2368 31.7849 34.0934 31.7586 33.9593 31.7054C33.8251 31.6522 33.7028 31.5731 33.5992 31.4727C33.4956 31.3722 33.4128 31.2523 33.3556 31.1198C33.2984 30.9873 33.2678 30.8448 33.2656 30.7005C33.2678 30.5562 33.2984 30.4138 33.3556 30.2813C33.4128 30.1488 33.4956 30.0289 33.5992 29.9284C33.7028 29.8279 33.8251 29.7488 33.9593 29.6956C34.0934 29.6425 34.2368 29.6162 34.3811 29.6184C34.6727 29.614 34.9541 29.7254 35.1637 29.9283C35.3732 30.1312 35.4936 30.4089 35.4986 30.7005Z" fill="url(#paint4_linear_37_860)"/>
<path d="M35.1701 30.6997C35.1684 30.8017 35.1467 30.9023 35.1062 30.9959C35.0657 31.0894 35.0072 31.1741 34.9339 31.245C34.8607 31.3159 34.7742 31.3717 34.6794 31.4092C34.5846 31.4467 34.4833 31.4651 34.3814 31.4635C34.2794 31.4651 34.1782 31.4467 34.0833 31.4092C33.9885 31.3717 33.902 31.3159 33.8288 31.245C33.7556 31.1741 33.697 31.0894 33.6565 30.9959C33.616 30.9023 33.5943 30.8017 33.5927 30.6997C33.5943 30.5978 33.616 30.4972 33.6565 30.4036C33.697 30.3101 33.7556 30.2254 33.8288 30.1545C33.902 30.0836 33.9885 30.0278 34.0833 29.9903C34.1782 29.9528 34.2794 29.9344 34.3814 29.936C34.4833 29.9344 34.5846 29.9528 34.6794 29.9903C34.7742 30.0278 34.8607 30.0836 34.9339 30.1545C35.0072 30.2254 35.0657 30.3101 35.1062 30.4036C35.1467 30.4972 35.1684 30.5978 35.1701 30.6997Z" fill="#33141D"/>
<path d="M34.1709 30.3505C34.1814 30.4047 34.181 30.4606 34.1697 30.5147C34.1584 30.5688 34.1364 30.6202 34.105 30.6657C34.0736 30.7112 34.0334 30.7501 33.9869 30.7799C33.9403 30.8097 33.8883 30.83 33.8338 30.8395C33.7235 30.8624 33.6086 30.841 33.514 30.7798C33.4193 30.7187 33.3526 30.6228 33.3281 30.5128C33.3176 30.4585 33.3181 30.4026 33.3294 30.3485C33.3407 30.2944 33.3627 30.2431 33.3941 30.1975C33.4255 30.152 33.4656 30.1132 33.5122 30.0833C33.5587 30.0535 33.6108 30.0332 33.6653 30.0237C33.7755 30.0014 33.8901 30.023 33.9846 30.0841C34.0791 30.1451 34.146 30.2407 34.1709 30.3505Z" fill="url(#paint5_linear_37_860)"/>
<path d="M36.7141 30.747C36.6814 30.6525 36.6221 30.5694 36.5434 30.5077C36.0918 30.1643 35.3364 29.7127 34.4853 29.7044C33.2908 29.6898 32.629 30.5368 32.3439 31.0383C32.3335 31.057 32.3252 31.0779 32.3169 31.0966C32.2832 31.016 32.2682 30.9289 32.2729 30.8417C32.2776 30.7545 32.3018 30.6695 32.3439 30.593C32.629 30.0935 33.2908 29.2466 34.4853 29.259C35.3364 29.2695 36.0918 29.721 36.5434 30.0644C36.6405 30.1455 36.7093 30.2552 36.7399 30.3779C36.7706 30.5006 36.7615 30.6298 36.7141 30.747Z" fill="url(#paint6_radial_37_860)"/>
<path d="M29.2244 31.2547C29.3041 31.1659 29.3541 31.0544 29.3675 30.9358C29.3809 30.8172 29.3571 30.6974 29.2993 30.593C29.0142 30.0935 28.3524 29.2466 27.1558 29.259C26.3068 29.2695 25.5514 29.721 25.0998 30.0623C25.0381 30.1151 24.9875 30.1797 24.9511 30.2523C24.9146 30.3248 24.8931 30.404 24.8877 30.485C24.8822 30.566 24.893 30.6473 24.9195 30.7241C24.9459 30.8009 24.9874 30.8716 25.0415 30.9322C25.7016 31.563 26.5799 31.9142 27.4929 31.9123C28.134 31.9287 28.7558 31.6925 29.2244 31.2547Z" fill="white"/>
<path d="M28.4731 30.7C28.4676 31.0495 28.3236 31.3826 28.0727 31.6261C27.8218 31.8696 27.4845 32.0035 27.135 31.9985C26.7854 32.0035 26.4481 31.8696 26.1972 31.6261C25.9464 31.3826 25.8024 31.0495 25.7969 30.7C25.7996 30.527 25.8364 30.3562 25.9051 30.1974C25.9738 30.0386 26.0731 29.8949 26.1974 29.7745C26.3216 29.6542 26.4684 29.5594 26.6293 29.4958C26.7901 29.4321 26.962 29.4007 27.135 29.4035C27.308 29.4007 27.4798 29.4321 27.6407 29.4958C27.8016 29.5594 27.9483 29.6542 28.0726 29.7745C28.1968 29.8949 28.2962 30.0386 28.3649 30.1974C28.4336 30.3562 28.4704 30.527 28.4731 30.7Z" fill="#4B212B"/>
<path style="mix-blend-mode:overlay" d="M28.2504 30.7005C28.2482 30.8448 28.2176 30.9873 28.1604 31.1198C28.1032 31.2523 28.0204 31.3722 27.9168 31.4727C27.8132 31.5731 27.6909 31.6522 27.5567 31.7054C27.4226 31.7586 27.2793 31.7849 27.135 31.7827C26.9907 31.7849 26.8473 31.7586 26.7132 31.7054C26.579 31.6522 26.4567 31.5731 26.3531 31.4727C26.2495 31.3722 26.1667 31.2523 26.1095 31.1198C26.0523 30.9873 26.0217 30.8448 26.0195 30.7005C26.0217 30.5562 26.0523 30.4138 26.1095 30.2813C26.1667 30.1488 26.2495 30.0289 26.3531 29.9284C26.4567 29.8279 26.579 29.7488 26.7132 29.6956C26.8473 29.6425 26.9907 29.6162 27.135 29.6184C27.2793 29.6162 27.4226 29.6425 27.5567 29.6956C27.6909 29.7488 27.8132 29.8279 27.9168 29.9284C28.0204 30.0289 28.1032 30.1488 28.1604 30.2813C28.2176 30.4138 28.2482 30.5562 28.2504 30.7005Z" fill="url(#paint7_linear_37_860)"/>
<path style="mix-blend-mode:overlay" opacity="0.5" d="M28.2504 30.7005C28.2482 30.8448 28.2176 30.9873 28.1604 31.1198C28.1032 31.2523 28.0204 31.3722 27.9168 31.4727C27.8132 31.5731 27.6909 31.6522 27.5567 31.7054C27.4226 31.7586 27.2793 31.7849 27.135 31.7827C26.9907 31.7849 26.8473 31.7586 26.7132 31.7054C26.579 31.6522 26.4567 31.5731 26.3531 31.4727C26.2495 31.3722 26.1667 31.2523 26.1095 31.1198C26.0523 30.9873 26.0217 30.8448 26.0195 30.7005C26.0217 30.5562 26.0523 30.4138 26.1095 30.2813C26.1667 30.1488 26.2495 30.0289 26.3531 29.9284C26.4567 29.8279 26.579 29.7488 26.7132 29.6956C26.8473 29.6425 26.9907 29.6162 27.135 29.6184C27.2793 29.6162 27.4226 29.6425 27.5567 29.6956C27.6909 29.7488 27.8132 29.8279 27.9168 29.9284C28.0204 30.0289 28.1032 30.1488 28.1604 30.2813C28.2176 30.4138 28.2482 30.5562 28.2504 30.7005Z" fill="url(#paint8_linear_37_860)"/>
<path d="M27.9235 30.7C27.9219 30.8019 27.9002 30.9025 27.8596 30.9961C27.8191 31.0896 27.7606 31.1743 27.6873 31.2452C27.6141 31.3161 27.5276 31.3719 27.4328 31.4094C27.338 31.4469 27.2367 31.4653 27.1348 31.4637C27.0328 31.4653 26.9316 31.4469 26.8368 31.4094C26.742 31.3719 26.6555 31.3161 26.5822 31.2452C26.509 31.1743 26.4504 31.0896 26.4099 30.9961C26.3694 30.9025 26.3477 30.8019 26.3461 30.7C26.3488 30.4944 26.4329 30.2984 26.58 30.1549C26.7271 30.0113 26.9251 29.9319 27.1306 29.9341C27.2331 29.9319 27.335 29.95 27.4304 29.9874C27.5258 30.0248 27.6129 30.0807 27.6866 30.1519C27.7603 30.2231 27.8192 30.3082 27.8598 30.4022C27.9005 30.4963 27.9221 30.5975 27.9235 30.7Z" fill="#33141D"/>
<path d="M26.9228 30.3504C26.9333 30.4047 26.9328 30.4605 26.9215 30.5147C26.9102 30.5688 26.8882 30.6201 26.8568 30.6657C26.8254 30.7112 26.7853 30.75 26.7387 30.7799C26.6922 30.8097 26.6401 30.83 26.5856 30.8395C26.4756 30.8623 26.3609 30.8408 26.2666 30.7797C26.1723 30.7185 26.106 30.6226 26.082 30.5127C26.0715 30.4584 26.072 30.4026 26.0833 30.3485C26.0946 30.2943 26.1166 30.243 26.148 30.1975C26.1794 30.152 26.2195 30.1131 26.2661 30.0833C26.3126 30.0535 26.3647 30.0332 26.4192 30.0237C26.5292 30.0014 26.6435 30.0231 26.7377 30.0842C26.8319 30.1453 26.8983 30.2409 26.9228 30.3504Z" fill="url(#paint9_linear_37_860)"/>
<path d="M24.9295 30.747C24.9622 30.6519 25.0223 30.5687 25.1022 30.5077C25.5517 30.1643 26.3071 29.7127 27.1582 29.7044C28.3527 29.6898 29.0145 30.5368 29.2996 31.0383C29.3109 31.0569 29.3207 31.0764 29.3287 31.0966C29.3616 31.0158 29.3761 30.9286 29.371 30.8415C29.366 30.7544 29.3416 30.6695 29.2996 30.593C29.0145 30.0935 28.3527 29.2466 27.1582 29.259C26.3071 29.2695 25.5517 29.721 25.1022 30.0644C25.0048 30.1452 24.9356 30.2548 24.9045 30.3775C24.8735 30.5002 24.8822 30.6296 24.9295 30.747Z" fill="url(#paint10_radial_37_860)"/>
<path d="M25.0937 30.0624C24.9993 30.1377 24.9326 30.2424 24.9044 30.3599C28.5565 28.3434 29.3661 30.876 29.3661 30.876C29.3686 30.777 29.3442 30.6792 29.2953 30.593C29.0081 30.0957 28.3484 29.2445 27.1519 29.2591C26.2986 29.2695 25.5474 29.7252 25.0937 30.0624Z" fill="black"/>
<path d="M29.8363 29.0346C29.7819 29.0945 29.7111 29.1372 29.6328 29.1576C29.5544 29.1779 29.4718 29.1749 29.3951 29.149C28.5045 28.866 25.6243 28.0877 24.4007 29.378C24.4007 29.378 25.3975 27.0888 29.6365 28.4269C29.6987 28.4421 29.756 28.4728 29.8031 28.5163C29.8501 28.5597 29.8852 28.6144 29.9052 28.6753C29.9252 28.7361 29.9294 28.801 29.9173 28.8639C29.9053 28.9267 29.8774 28.9855 29.8363 29.0346Z" fill="#804035"/>
<path d="M32.0565 29.0346C32.1109 29.0945 32.1817 29.1372 32.26 29.1576C32.3384 29.1779 32.421 29.1749 32.4977 29.149C33.3883 28.866 36.2685 28.0877 37.5025 29.378C37.5025 29.378 36.5057 27.0888 32.2667 28.4269C32.2036 28.4407 32.1451 28.4705 32.0969 28.5133C32.0486 28.5562 32.0122 28.6108 31.9911 28.6718C31.97 28.7328 31.9649 28.7982 31.9764 28.8617C31.9878 28.9253 32.0154 28.9848 32.0565 29.0346Z" fill="#804035"/>
<g opacity="0.5">
<path opacity="0.5" d="M31.4453 33.3806C31.3872 32.9928 31.3073 32.6086 31.206 32.2298C31.0541 31.464 30.9334 29.9407 30.9334 29.9407C30.9744 30.1866 31.0328 30.4293 31.1082 30.6669C31.3241 31.4739 31.5854 32.268 31.8907 33.0456C32.0321 33.3892 32.1225 33.7516 32.1591 34.1214C32.1591 34.3129 32.1113 34.5959 31.9302 34.6979C31.8262 34.7562 31.695 34.7478 31.5889 34.804C31.4287 34.8935 31.3808 35.112 31.2351 35.2202C31.1862 35.2556 31.1301 35.2798 31.0708 35.2913C31.0115 35.3028 30.9504 35.3013 30.8918 35.2868C30.7066 35.2514 30.6046 35.1182 30.4527 35.0225C30.2967 34.922 30.1191 34.8599 29.9345 34.8415C30.1875 34.8539 30.4398 34.8047 30.6696 34.6981C30.8994 34.5916 31.0999 34.4308 31.2539 34.2297C31.4144 33.9775 31.4821 33.6773 31.4453 33.3806Z" fill="url(#paint11_linear_37_860)"/>
</g>
<path d="M36.5432 30.0624C36.6376 30.1381 36.7048 30.2426 36.7346 30.3599C33.0825 28.3434 32.2729 30.876 32.2729 30.876C32.2704 30.777 32.2948 30.6792 32.3437 30.593C32.6288 30.0957 33.2906 29.2445 34.4871 29.2591C35.3341 29.2695 36.0916 29.7252 36.5432 30.0624Z" fill="black"/>
<path d="M38.1122 31.2305L38.0187 31.1702L38.1122 31.2305Z" fill="#352420"/>
<g style="mix-blend-mode:overlay" opacity="0.4">
<g style="mix-blend-mode:overlay" opacity="0.4">
<path d="M30.5898 38.9648C29.373 38.9613 28.2015 38.5025 27.306 37.6787C27.2847 37.6616 27.2675 37.6398 27.2557 37.6152C27.2439 37.5905 27.2378 37.5635 27.2378 37.5362C27.2378 37.5088 27.2439 37.4818 27.2557 37.4572C27.2675 37.4325 27.2847 37.4108 27.306 37.3936C27.3522 37.3554 27.4104 37.3345 27.4704 37.3345C27.5304 37.3345 27.5885 37.3554 27.6348 37.3936C28.4372 38.1355 29.4886 38.5498 30.5815 38.5548C31.6584 38.5507 32.6959 38.149 33.4949 37.4269C33.541 37.3883 33.5992 37.3671 33.6593 37.3671C33.7194 37.3671 33.7776 37.3883 33.8237 37.4269C33.845 37.4441 33.8622 37.4658 33.874 37.4905C33.8858 37.5151 33.8919 37.5421 33.8919 37.5695C33.8919 37.5968 33.8858 37.6238 33.874 37.6485C33.8622 37.6731 33.845 37.6949 33.8237 37.712C32.9356 38.5117 31.7848 38.9574 30.5898 38.9648Z" fill="white"/>
</g>
</g>
<path d="M30.4748 38.7282C29.2574 38.7248 28.0852 38.266 27.1889 37.4421C27.1676 37.425 27.1504 37.4033 27.1386 37.3786C27.1269 37.3539 27.1207 37.3269 27.1207 37.2996C27.1207 37.2722 27.1269 37.2453 27.1386 37.2206C27.1504 37.1959 27.1676 37.1742 27.1889 37.157C27.2355 37.1186 27.294 37.0977 27.3543 37.0977C27.4147 37.0977 27.4732 37.1186 27.5198 37.157C28.3223 37.899 29.3736 38.3133 30.4665 38.3183C31.5435 38.3126 32.5807 37.9103 33.3799 37.1883C33.4263 37.1504 33.4844 37.1297 33.5443 37.1297C33.6042 37.1297 33.6623 37.1504 33.7087 37.1883C33.73 37.2056 33.7472 37.2275 33.759 37.2524C33.7708 37.2772 33.777 37.3043 33.777 37.3318C33.777 37.3593 33.7708 37.3865 33.759 37.4113C33.7472 37.4362 33.73 37.4581 33.7087 37.4754C32.8207 38.2752 31.6699 38.7211 30.4748 38.7282Z" fill="#804035"/>

</svg>
