<svg width="13" height="21" viewBox="0 0 13 21" fill="none" xmlns="http://www.w3.org/2000/svg">
    <path d="M11.6995 1.29211C11.8725 1.46063 11.9779 1.68649 11.9959 1.92734C12.0139 2.1682 11.9432 2.40735 11.7972 2.59973L11.6995 2.70983L3.47452 10.7759L11.6995 18.8298C11.8734 19.0003 11.9793 19.2283 11.9973 19.4713C12.0153 19.7142 11.9441 19.9553 11.7972 20.1496L11.6995 20.2597C11.5244 20.43 11.2949 20.5332 11.0513 20.5511C10.8076 20.569 10.5655 20.5004 10.3674 20.3574L10.2451 20.2597L1.29908 11.4847C1.12606 11.3162 1.02065 11.0902 1.00264 10.8493C0.984635 10.6085 1.05533 10.3694 1.20136 10.1771L1.29908 10.067L10.2451 1.29211C10.4407 1.10462 10.7014 1 10.9723 1C11.2433 1 11.5038 1.10462 11.6995 1.29211Z" fill="black" stroke="black" stroke-width="0.2"/>
</svg>
