<svg width="24" height="26" viewBox="0 0 24 26" fill="none" xmlns="http://www.w3.org/2000/svg">
<path d="M1.11646 9.90039H22.531" stroke="#FFBE78" stroke-width="1.5" stroke-linecap="round" stroke-linejoin="round"/>
<path d="M16.6816 1V4.95107" stroke="#FFBE78" stroke-width="1.5" stroke-linecap="round" stroke-linejoin="round"/>
<path d="M6.97998 1V4.95107" stroke="#FFBE78" stroke-width="1.5" stroke-linecap="round" stroke-linejoin="round"/>
<path d="M16.9208 2.89819H6.74083C3.21158 2.89819 1.0181 4.8667 1.0181 8.5225V19.3493C0.954354 20.1125 1.05945 20.8804 1.32594 21.5985C1.59243 22.3165 2.01377 22.9671 2.56002 23.504C3.10627 24.0408 3.76405 24.4508 4.48661 24.7048C5.20917 24.9588 5.9788 25.0506 6.74083 24.9736H16.9068C20.4501 24.9736 22.6435 22.991 22.6435 19.3493V8.48031C22.6435 4.8667 20.4501 2.89819 16.9208 2.89819Z" stroke="#FFBE78" stroke-width="1.5" stroke-linecap="round" stroke-linejoin="round"/>
<path d="M7.21826 14.6548C7.21826 15.2071 6.77055 15.6548 6.21826 15.6548C5.66598 15.6548 5.21826 15.2071 5.21826 14.6548C5.21826 14.1025 5.66598 13.6548 6.21826 13.6548C6.77055 13.6548 7.21826 14.1025 7.21826 14.6548Z" fill="#FFBE78"/>
<path d="M7.21826 20.2793C7.21826 20.8316 6.77055 21.2793 6.21826 21.2793C5.66598 21.2793 5.21826 20.8316 5.21826 20.2793C5.21826 19.727 5.66598 19.2793 6.21826 19.2793C6.77055 19.2793 7.21826 19.727 7.21826 20.2793Z" fill="#FFBE78"/>
<path d="M12.8428 14.6548C12.8428 15.2071 12.3951 15.6548 11.8428 15.6548C11.2905 15.6548 10.8428 15.2071 10.8428 14.6548C10.8428 14.1025 11.2905 13.6548 11.8428 13.6548C12.3951 13.6548 12.8428 14.1025 12.8428 14.6548Z" fill="#FFBE78"/>
<path d="M12.8428 20.2793C12.8428 20.8316 12.3951 21.2793 11.8428 21.2793C11.2905 21.2793 10.8428 20.8316 10.8428 20.2793C10.8428 19.727 11.2905 19.2793 11.8428 19.2793C12.3951 19.2793 12.8428 19.727 12.8428 20.2793Z" fill="#FFBE78"/>
<path d="M18.4668 14.6548C18.4668 15.2071 18.0191 15.6548 17.4668 15.6548C16.9145 15.6548 16.4668 15.2071 16.4668 14.6548C16.4668 14.1025 16.9145 13.6548 17.4668 13.6548C18.0191 13.6548 18.4668 14.1025 18.4668 14.6548Z" fill="#FFBE78"/>
<path d="M18.4668 20.2793C18.4668 20.8316 18.0191 21.2793 17.4668 21.2793C16.9145 21.2793 16.4668 20.8316 16.4668 20.2793C16.4668 19.727 16.9145 19.2793 17.4668 19.2793C18.0191 19.2793 18.4668 19.727 18.4668 20.2793Z" fill="#FFBE78"/>
</svg>
