<svg width="33" height="23" viewBox="0 0 33 23" fill="none" xmlns="http://www.w3.org/2000/svg">
    <path opacity="0.8" d="M11.9973 21.9967C11.7988 21.9973 11.6023 21.9576 11.4202 21.8801C11.2381 21.8025 11.0743 21.6888 10.9392 21.5461L1.61537 12.0847C1.43669 11.9569 1.28907 11.7919 1.18312 11.6015C1.07716 11.4111 1.0155 11.2 1.00257 10.9835C0.989628 10.7669 1.02573 10.5502 1.10829 10.3489C1.19085 10.1477 1.31781 9.96687 1.48005 9.81948C1.6423 9.67209 1.83579 9.56178 2.04665 9.49647C2.2575 9.43117 2.48048 9.41249 2.69957 9.44178C2.91865 9.47107 3.12841 9.54761 3.31377 9.66588C3.49913 9.78416 3.65549 9.94124 3.77163 10.1258L12.0373 18.5098L29.4071 1.46761C29.5442 1.32326 29.7095 1.20749 29.8932 1.12719C30.0768 1.04689 30.2751 1.00371 30.4762 1.00023C30.6772 0.996748 30.877 1.03304 31.0634 1.10693C31.2499 1.18082 31.4192 1.2908 31.5614 1.43031C31.7036 1.56982 31.8157 1.736 31.891 1.91893C31.9663 2.10187 32.0033 2.29781 31.9998 2.49508C31.9962 2.69234 31.9522 2.88688 31.8704 3.0671C31.7885 3.24732 31.6705 3.40951 31.5234 3.54401L13.0755 21.6441C12.7773 21.896 12.39 22.0227 11.9973 21.9967Z" fill="white" stroke="white" stroke-width="0.3"/>
</svg>
