<svg width="34" height="36" viewBox="0 0 34 36" fill="none" xmlns="http://www.w3.org/2000/svg">
<path d="M22.0824 19.2444H20.57V21.4093H22.0824V19.2444Z" fill="#FA8A00"/>
<path d="M4.31762 19.2444H2.80516V21.4093H4.31762V19.2444Z" fill="#FA8A00"/>
<path d="M12.4442 26.6863C17.7661 26.6863 22.0804 24.3236 22.0804 21.4091C22.0804 18.4945 17.7661 16.1318 12.4442 16.1318C7.12224 16.1318 2.80795 18.4945 2.80795 21.4091C2.80795 24.3236 7.12224 26.6863 12.4442 26.6863Z" fill="#FA8A00"/>
<path d="M12.4442 24.5212C17.7661 24.5212 22.0804 22.1585 22.0804 19.244C22.0804 16.3295 17.7661 13.9668 12.4442 13.9668C7.12224 13.9668 2.80795 16.3295 2.80795 19.244C2.80795 22.1585 7.12224 24.5212 12.4442 24.5212Z" fill="#FFCA00"/>
<path d="M12.4445 22.9509C16.7462 22.9509 20.2334 21.2914 20.2334 19.2444C20.2334 17.1973 16.7462 15.5378 12.4445 15.5378C8.1428 15.5378 4.65559 17.1973 4.65559 19.2444C4.65559 21.2914 8.1428 22.9509 12.4445 22.9509Z" fill="#FA8A00"/>
<path d="M12.4431 22.9498C16.7453 22.9498 20.2329 21.3355 20.2329 19.3443C20.2329 17.353 16.7453 15.7388 12.4431 15.7388C8.14088 15.7388 4.65327 17.353 4.65327 19.3443C4.65327 21.3355 8.14088 22.9498 12.4431 22.9498Z" fill="#FFE700"/>
<path d="M12.444 22.6786C16.7467 22.6786 20.2347 21.1251 20.2347 19.2087C20.2347 17.2923 16.7467 15.7388 12.444 15.7388C8.14129 15.7388 4.65327 17.2923 4.65327 19.2087C4.65327 21.1251 8.14129 22.6786 12.444 22.6786Z" fill="#FF9F00"/>
<path d="M11.7932 18.6281C10.6466 19.2406 10.2926 19.317 10.0169 19.2424C9.75842 19.1723 9.6383 18.9266 10.1352 18.4689C10.5105 18.1321 10.9416 17.8633 11.4092 17.6744L11.7796 17.5161L10.8505 16.8281L10.5001 16.9701C10.0259 17.1612 9.57866 17.4132 9.16964 17.7199L8.15861 17.456L7.08751 18.3661L8.19591 18.6646C7.60076 19.4918 7.83191 20.207 8.8484 20.4955C10.157 20.865 11.5239 20.2407 12.7542 19.5373C13.7926 18.9548 14.2021 18.9485 14.4687 19.0176C14.8882 19.1268 14.8955 19.5127 14.476 19.9632C14.0438 20.4038 13.5268 20.7524 12.9562 20.9878L12.5012 21.1799L13.6242 22.0416L13.9882 21.8897C14.614 21.6145 15.1875 21.2334 15.6836 20.7631L16.9021 21.0925L17.7994 20.0323L16.5254 19.7002C16.9958 18.7192 16.3543 18.083 15.4743 17.8628C14.1047 17.5197 12.8043 18.083 11.7932 18.6281Z" fill="#FFCA00"/>
<g style="mix-blend-mode:soft-light">
<g style="mix-blend-mode:soft-light">
<path d="M16.5309 19.7009C16.8722 18.9902 16.6219 18.4633 16.1305 18.1411L14.7764 19.4415C14.7297 19.6422 14.6253 19.8247 14.4761 19.9666C14.1539 20.2993 13.7807 20.5782 13.3704 20.7929L12.7598 21.379L13.6279 22.046L13.9919 21.894C14.2564 21.7799 14.5109 21.6438 14.7527 21.4873L16.5964 19.7145L16.5309 19.7009Z" fill="white"/>
</g>
<g style="mix-blend-mode:soft-light">
<path d="M11.7942 18.6288C10.9561 19.0756 10.5438 19.2358 10.2736 19.2612L8.96222 20.5207C10.2363 20.8247 11.5594 20.224 12.7543 19.5406C13.034 19.3788 13.3261 19.2394 13.6279 19.1238L15.0221 17.7852C13.819 17.6505 12.6924 18.1446 11.7942 18.6288Z" fill="white"/>
</g>
<g style="mix-blend-mode:soft-light">
<path d="M10.1361 18.4696C10.3654 18.2592 10.6182 18.0759 10.8896 17.9236L11.5184 17.3202L10.8505 16.8252L10.6685 16.8971L7.88106 19.5826C7.90563 19.8792 8.08309 20.1286 8.40796 20.3106L9.79938 18.9728C9.80939 18.8509 9.90313 18.6844 10.1361 18.4696Z" fill="white"/>
</g>
</g>
<g style="mix-blend-mode:soft-light">
<g style="mix-blend-mode:soft-light">
<path d="M13.3451 15.5667L14.8357 14.1343C14.4489 14.0797 14.0613 14.0433 13.6745 14.0142L12.0856 15.5412C12.5015 15.5321 12.9228 15.543 13.3451 15.5667Z" fill="white"/>
</g>
<g style="mix-blend-mode:soft-light">
<path d="M13.256 22.927C12.5624 22.9623 11.8672 22.9532 11.1748 22.8997L9.71875 24.3002C9.79792 24.3129 9.87255 24.3293 9.95263 24.3411C10.2347 24.383 10.5187 24.4139 10.8017 24.4412C11.0847 24.4685 11.3477 24.484 11.6207 24.4967H11.6262L13.256 22.927Z" fill="white"/>
</g>
<g style="mix-blend-mode:soft-light">
<path d="M6.8429 21.8139C6.5646 21.6782 6.29637 21.5228 6.04027 21.3489L4.85724 22.4873C5.10842 22.6635 5.36908 22.8257 5.63803 22.9733L6.8429 21.8139Z" fill="white"/>
</g>
<g style="mix-blend-mode:soft-light">
<path d="M8.49613 24.0519L9.86116 22.7369C9.00627 22.6013 8.16907 22.3712 7.36496 22.0508L6.13734 23.2293C6.89381 23.5824 7.68411 23.858 8.49613 24.0519Z" fill="white"/>
</g>
<g style="mix-blend-mode:soft-light">
<path d="M17.7879 16.5471C18.2521 16.7515 18.6902 17.0105 19.0929 17.3188L20.2832 16.1749C20.0898 16.0269 19.889 15.8887 19.6817 15.7608C19.4688 15.6289 19.2431 15.5024 19.0065 15.3813L17.7879 16.5471Z" fill="white"/>
</g>
<g style="mix-blend-mode:soft-light">
<path d="M14.4596 15.664C15.2268 15.7587 15.9842 15.921 16.7228 16.1491L17.9887 14.9333C17.18 14.6261 16.3442 14.3955 15.4925 14.2444L14.0583 15.6185C14.192 15.6358 14.3258 15.6467 14.4596 15.664Z" fill="white"/>
</g>
</g>
<path d="M22.0824 16.4624H20.57V18.6273H22.0824V16.4624Z" fill="#FA8A00"/>
<path d="M4.31762 16.4624H2.80516V18.6273H4.31762V16.4624Z" fill="#FA8A00"/>
<path d="M12.4442 23.9045C17.7661 23.9045 22.0804 21.5418 22.0804 18.6273C22.0804 15.7128 17.7661 13.3501 12.4442 13.3501C7.12224 13.3501 2.80795 15.7128 2.80795 18.6273C2.80795 21.5418 7.12224 23.9045 12.4442 23.9045Z" fill="#FA8A00"/>
<path d="M12.4442 21.7393C17.7661 21.7393 22.0804 19.3766 22.0804 16.462C22.0804 13.5475 17.7661 11.1848 12.4442 11.1848C7.12224 11.1848 2.80795 13.5475 2.80795 16.462C2.80795 19.3766 7.12224 21.7393 12.4442 21.7393Z" fill="#FFCA00"/>
<path d="M12.4445 20.1689C16.7462 20.1689 20.2334 18.5094 20.2334 16.4624C20.2334 14.4153 16.7462 12.7559 12.4445 12.7559C8.1428 12.7559 4.65559 14.4153 4.65559 16.4624C4.65559 18.5094 8.1428 20.1689 12.4445 20.1689Z" fill="#FA8A00"/>
<path d="M12.4431 20.1678C16.7453 20.1678 20.2329 18.5536 20.2329 16.5623C20.2329 14.571 16.7453 12.9568 12.4431 12.9568C8.14088 12.9568 4.65327 14.571 4.65327 16.5623C4.65327 18.5536 8.14088 20.1678 12.4431 20.1678Z" fill="#FFE700"/>
<path d="M12.444 19.8966C16.7467 19.8966 20.2347 18.3431 20.2347 16.4267C20.2347 14.5103 16.7467 12.9568 12.444 12.9568C8.14129 12.9568 4.65327 14.5103 4.65327 16.4267C4.65327 18.3431 8.14129 19.8966 12.444 19.8966Z" fill="#FF9F00"/>
<path d="M11.7932 15.8464C10.6466 16.4589 10.2926 16.5353 10.0169 16.4607C9.75842 16.3906 9.6383 16.1449 10.1352 15.6872C10.5105 15.3504 10.9416 15.0815 11.4092 14.8927L11.7796 14.7344L10.8505 14.0464L10.5001 14.1884C10.0261 14.3798 9.57886 14.6318 9.16964 14.9382L8.15861 14.6743L7.08751 15.5843L8.19591 15.8828C7.60076 16.71 7.83191 17.4253 8.8484 17.7138C10.157 18.0832 11.5239 17.459 12.7542 16.7555C13.7926 16.1731 14.2021 16.1667 14.4687 16.2359C14.8882 16.3451 14.8955 16.731 14.476 17.1814C14.0441 17.6223 13.5275 17.9712 12.9572 18.207L12.5021 18.399L13.6251 19.2608L13.9891 19.1088C14.6163 18.835 15.1914 18.4548 15.689 17.985L16.9076 18.3144L17.8021 17.2506L16.5281 16.9184C16.9986 15.9374 16.357 15.3013 15.477 15.0811C14.1047 14.738 12.8043 15.3013 11.7932 15.8464Z" fill="#FFCA00"/>
<g style="mix-blend-mode:soft-light">
<g style="mix-blend-mode:soft-light">
<path d="M16.5309 16.9182C16.8722 16.2074 16.6219 15.6805 16.1305 15.3584L14.7764 16.6588C14.7297 16.8594 14.6253 17.042 14.4761 17.1839C14.1539 17.5165 13.7807 17.7955 13.3704 18.0102L12.7598 18.5963L13.6279 19.2633L13.9919 19.1113C14.2564 18.9971 14.5109 18.8611 14.7527 18.7046L16.5937 16.9355L16.5309 16.9182Z" fill="white"/>
</g>
<g style="mix-blend-mode:soft-light">
<path d="M11.7942 15.8461C10.9561 16.2929 10.5438 16.453 10.2736 16.4785L8.96222 17.738C10.2363 18.0419 11.5594 17.4413 12.7543 16.7579C13.034 16.596 13.3261 16.4567 13.6279 16.3411L15.0221 15.0025C13.819 14.8678 12.6924 15.3619 11.7942 15.8461Z" fill="white"/>
</g>
<g style="mix-blend-mode:soft-light">
<path d="M10.1361 15.6869C10.3653 15.4777 10.6182 15.296 10.8896 15.1454L11.5184 14.5412L10.8505 14.0461L10.6685 14.118L7.88106 16.8017C7.90563 17.0984 8.08309 17.3477 8.40796 17.5297L9.79938 16.192C9.80939 16.0682 9.90313 15.9017 10.1361 15.6869Z" fill="white"/>
</g>
</g>
<g style="mix-blend-mode:soft-light">
<g style="mix-blend-mode:soft-light">
<path d="M13.3451 12.7852L14.8357 11.3528C14.4489 11.2982 14.0613 11.2618 13.6745 11.2327L12.0856 12.7597C12.5015 12.7506 12.9228 12.7615 13.3451 12.7852Z" fill="white"/>
</g>
<g style="mix-blend-mode:soft-light">
<path d="M13.256 20.1455C12.5624 20.1808 11.8672 20.1717 11.1748 20.1182L9.71875 21.5187C9.79792 21.5314 9.87255 21.5478 9.95263 21.5596C10.2347 21.6015 10.5187 21.6324 10.8017 21.6597C11.0847 21.687 11.3477 21.7025 11.6207 21.7162H11.6262L13.256 20.1455Z" fill="white"/>
</g>
<g style="mix-blend-mode:soft-light">
<path d="M6.8429 19.0324C6.5646 18.8968 6.29637 18.7413 6.04027 18.5674L4.85724 19.7058C5.10842 19.882 5.36908 20.0442 5.63803 20.1918L6.8429 19.0324Z" fill="white"/>
</g>
<g style="mix-blend-mode:soft-light">
<path d="M8.49613 21.2704L9.86116 19.9554C9.00627 19.8198 8.16907 19.5897 7.36496 19.2693L6.13734 20.4478C6.89381 20.8009 7.68411 21.0765 8.49613 21.2704Z" fill="white"/>
</g>
<g style="mix-blend-mode:soft-light">
<path d="M17.7879 13.7653C18.2521 13.9697 18.6902 14.2288 19.0929 14.537L20.2832 13.3931C20.0898 13.2451 19.889 13.1069 19.6817 12.9791C19.4688 12.8471 19.2431 12.7206 19.0065 12.5996L17.7879 13.7653Z" fill="white"/>
</g>
<g style="mix-blend-mode:soft-light">
<path d="M14.4596 12.8823C15.2268 12.9769 15.9842 13.1392 16.7228 13.3673L17.9887 12.1515C17.18 11.8444 16.3442 11.6138 15.4925 11.4626L14.0583 12.8413C14.192 12.8541 14.3258 12.865 14.4596 12.8823Z" fill="white"/>
</g>
</g>
<path d="M22.0824 13.6567H20.57V15.8217H22.0824V13.6567Z" fill="#FA8A00"/>
<path d="M4.31762 13.6567H2.80516V15.8217H4.31762V13.6567Z" fill="#FA8A00"/>
<path d="M12.4442 21.0989C17.7661 21.0989 22.0804 18.7362 22.0804 15.8217C22.0804 12.9071 17.7661 10.5444 12.4442 10.5444C7.12224 10.5444 2.80795 12.9071 2.80795 15.8217C2.80795 18.7362 7.12224 21.0989 12.4442 21.0989Z" fill="#FA8A00"/>
<path d="M12.4442 18.9341C17.7661 18.9341 22.0804 16.5714 22.0804 13.6569C22.0804 10.7423 17.7661 8.37964 12.4442 8.37964C7.12224 8.37964 2.80795 10.7423 2.80795 13.6569C2.80795 16.5714 7.12224 18.9341 12.4442 18.9341Z" fill="#FFCA00"/>
<path d="M12.4445 17.3632C16.7462 17.3632 20.2334 15.7038 20.2334 13.6567C20.2334 11.6097 16.7462 9.9502 12.4445 9.9502C8.1428 9.9502 4.65559 11.6097 4.65559 13.6567C4.65559 15.7038 8.1428 17.3632 12.4445 17.3632Z" fill="#FA8A00"/>
<path d="M12.4431 17.3631C16.7453 17.3631 20.2329 15.7489 20.2329 13.7576C20.2329 11.7663 16.7453 10.1521 12.4431 10.1521C8.14088 10.1521 4.65327 11.7663 4.65327 13.7576C4.65327 15.7489 8.14088 17.3631 12.4431 17.3631Z" fill="#FFE700"/>
<path d="M12.444 17.0919C16.7467 17.0919 20.2347 15.5384 20.2347 13.622C20.2347 11.7056 16.7467 10.1521 12.444 10.1521C8.14129 10.1521 4.65327 11.7056 4.65327 13.622C4.65327 15.5384 8.14129 17.0919 12.444 17.0919Z" fill="#FF9F00"/>
<path d="M11.7932 13.0407C10.6466 13.6532 10.2926 13.7296 10.0169 13.655C9.75842 13.5849 9.6383 13.3392 10.1352 12.8824C10.5107 12.5457 10.9418 12.2766 11.4092 12.087L11.7796 11.9296L10.8505 11.2407L10.5001 11.3827C10.0263 11.5745 9.57909 11.8265 9.16964 12.1325L8.15861 11.8695L7.08751 12.7796L8.19591 13.079C7.60076 13.9053 7.83191 14.6205 8.8484 14.909C10.157 15.2794 11.5239 14.6542 12.7542 13.9517C13.7926 13.3693 14.2021 13.362 14.4687 13.4321C14.8882 13.5413 14.8955 13.9262 14.476 14.3776C14.0441 14.8182 13.5274 15.1668 12.9572 15.4023L12.5021 15.5943L13.6251 16.457L13.9891 16.3041C14.615 16.0296 15.1886 15.6487 15.6845 15.1784L16.903 15.5078L17.7976 14.4431L16.5235 14.1118C16.994 13.1308 16.3525 12.4938 15.4725 12.2736C14.1047 11.9332 12.8043 12.4956 11.7932 13.0407Z" fill="#FFCA00"/>
<g style="mix-blend-mode:soft-light">
<g style="mix-blend-mode:soft-light">
<path d="M16.5309 14.1135C16.8721 13.4019 16.6219 12.8749 16.1305 12.5537L14.7764 13.8532C14.7296 14.054 14.6252 14.2369 14.4761 14.3792C14.1541 14.7118 13.7808 14.9905 13.3704 15.2046L12.7598 15.7916L13.6279 16.4586L13.9919 16.3057C14.2566 16.1919 14.5111 16.0558 14.7527 15.899L16.5937 14.1299L16.5309 14.1135Z" fill="white"/>
</g>
<g style="mix-blend-mode:soft-light">
<path d="M11.7942 13.0406C10.9561 13.4884 10.5438 13.6476 10.2735 13.6731L8.9622 14.9326C10.2362 15.2365 11.5594 14.6359 12.7543 13.9534C13.034 13.7913 13.3261 13.6516 13.6279 13.5357L15.022 12.1971C13.819 12.0624 12.6924 12.5565 11.7942 13.0406Z" fill="white"/>
</g>
<g style="mix-blend-mode:soft-light">
<path d="M10.136 12.8815C10.3654 12.6726 10.6183 12.4909 10.8895 12.34L11.5183 11.7358L10.8504 11.2407L10.6684 11.3135L7.88095 13.9954C7.90552 14.292 8.08298 14.5414 8.40786 14.7234L9.79927 13.3866C9.80929 13.2628 9.90302 13.0963 10.136 12.8815Z" fill="white"/>
</g>
</g>
<g style="mix-blend-mode:soft-light">
<g style="mix-blend-mode:soft-light">
<path d="M13.3451 9.97639L14.8357 8.54402C14.4489 8.48942 14.0613 8.45302 13.6745 8.4248L12.0856 9.95182C12.5015 9.94545 12.9228 9.95546 13.3451 9.97639Z" fill="white"/>
</g>
<g style="mix-blend-mode:soft-light">
<path d="M13.256 17.3394C12.5624 17.3755 11.8672 17.3667 11.1748 17.313L9.71875 18.7126C9.79792 18.7253 9.87255 18.7426 9.95263 18.7545C10.2347 18.7954 10.5187 18.8273 10.8017 18.8537C11.0847 18.88 11.3477 18.8973 11.6207 18.9101H11.6262L13.256 17.3394Z" fill="white"/>
</g>
<g style="mix-blend-mode:soft-light">
<path d="M6.8429 16.2266C6.56463 16.0912 6.2964 15.9361 6.04027 15.7625L4.85724 16.9C5.10821 17.0764 5.36888 17.2387 5.63803 17.3859L6.8429 16.2266Z" fill="white"/>
</g>
<g style="mix-blend-mode:soft-light">
<path d="M8.49613 18.464L9.86116 17.15C9.00614 17.0145 8.16889 16.784 7.36496 16.4629L6.13734 17.6459C6.89399 17.9975 7.68428 18.2716 8.49613 18.464Z" fill="white"/>
</g>
<g style="mix-blend-mode:soft-light">
<path d="M17.7879 10.9599C18.2523 11.1639 18.6904 11.423 19.0929 11.7316L20.2832 10.5877C20.0898 10.4393 19.889 10.3008 19.6817 10.1727C19.4688 10.0407 19.2431 9.91425 19.0065 9.79321L17.7879 10.9599Z" fill="white"/>
</g>
<g style="mix-blend-mode:soft-light">
<path d="M14.4596 10.0764C15.2268 10.1714 15.9841 10.3338 16.7228 10.5614L17.9887 9.34563C17.18 9.03848 16.3442 8.80784 15.4925 8.65674L14.0583 10.0354C14.192 10.0491 14.3258 10.0591 14.4596 10.0764Z" fill="white"/>
</g>
</g>
<path d="M22.0824 10.8638H20.57V13.0287H22.0824V10.8638Z" fill="#FA8A00"/>
<path d="M4.31762 10.8638H2.80516V13.0287H4.31762V10.8638Z" fill="#FA8A00"/>
<path d="M12.4442 18.3066C17.7661 18.3066 22.0804 15.9439 22.0804 13.0294C22.0804 10.1149 17.7661 7.7522 12.4442 7.7522C7.12224 7.7522 2.80795 10.1149 2.80795 13.0294C2.80795 15.9439 7.12224 18.3066 12.4442 18.3066Z" fill="#FA8A00"/>
<path d="M12.4442 16.1411C17.7661 16.1411 22.0804 13.7784 22.0804 10.8639C22.0804 7.94936 17.7661 5.58667 12.4442 5.58667C7.12224 5.58667 2.80795 7.94936 2.80795 10.8639C2.80795 13.7784 7.12224 16.1411 12.4442 16.1411Z" fill="#FFCA00"/>
<path d="M12.4445 14.5703C16.7462 14.5703 20.2334 12.9108 20.2334 10.8637C20.2334 8.81669 16.7462 7.15723 12.4445 7.15723C8.1428 7.15723 4.65559 8.81669 4.65559 10.8637C4.65559 12.9108 8.1428 14.5703 12.4445 14.5703Z" fill="#FA8A00"/>
<path d="M12.4431 14.5704C16.7453 14.5704 20.2329 12.9562 20.2329 10.9649C20.2329 8.97362 16.7453 7.35938 12.4431 7.35938C8.14088 7.35938 4.65327 8.97362 4.65327 10.9649C4.65327 12.9562 8.14088 14.5704 12.4431 14.5704Z" fill="#FFE700"/>
<path d="M12.444 14.2992C16.7467 14.2992 20.2347 12.7457 20.2347 10.8293C20.2347 8.91291 16.7467 7.35938 12.444 7.35938C8.14129 7.35938 4.65327 8.91291 4.65327 10.8293C4.65327 12.7457 8.14129 14.2992 12.444 14.2992Z" fill="#FF9F00"/>
<path d="M11.7932 10.2495C10.6466 10.8619 10.2926 10.9384 10.0169 10.8638C9.75842 10.7946 9.6383 10.548 10.1352 10.0911C10.5105 9.75435 10.9416 9.48551 11.4092 9.29669L11.7796 9.13835L10.8505 8.44946L10.5001 8.59234C10.0261 8.78346 9.57891 9.03521 9.16964 9.34129L8.15861 9.07829L7.08751 9.98831L8.19591 10.2877C7.60076 11.114 7.83191 11.8302 8.8484 12.1187C10.157 12.4881 11.5239 11.863 12.7542 11.1604C13.7926 10.578 14.2021 10.5716 14.4687 10.6408C14.8882 10.75 14.8955 11.1349 14.476 11.5863C14.0442 12.0287 13.5272 12.3788 12.9562 12.6155L12.5012 12.8076L13.6242 13.6703L13.9882 13.5183C14.614 13.2431 15.1875 12.862 15.6836 12.3917L16.9021 12.7211L17.7967 11.6573L16.5226 11.3251C16.9931 10.3441 16.3515 9.70711 15.4715 9.4878C14.1047 9.14017 12.8043 9.70347 11.7932 10.2495Z" fill="#FFCA00"/>
<g style="mix-blend-mode:soft-light">
<g style="mix-blend-mode:soft-light">
<path d="M16.5309 11.321C16.8721 10.6103 16.6219 10.0825 16.1305 9.76123L14.7764 11.0607C14.7296 11.2616 14.6252 11.4444 14.4761 11.5867C14.1541 11.9193 13.7808 12.198 13.3704 12.4121L12.7598 12.9991L13.6279 13.6661L13.9919 13.5142C14.2564 13.3996 14.5109 13.2633 14.7527 13.1065L16.5964 11.3419L16.5309 11.321Z" fill="white"/>
</g>
<g style="mix-blend-mode:soft-light">
<path d="M11.7942 10.2499C10.9561 10.6976 10.5438 10.8578 10.2735 10.8824L8.9622 12.1418C10.2362 12.4467 11.5594 11.8452 12.7543 11.1627C13.0342 11.0009 13.3263 10.8613 13.6279 10.745L15.022 9.40631C13.819 9.26981 12.6924 9.76486 11.7942 10.2499Z" fill="white"/>
</g>
<g style="mix-blend-mode:soft-light">
<path d="M10.136 10.0897C10.365 9.87891 10.6179 9.69566 10.8895 9.54364L11.5183 8.93939L10.8504 8.44434L10.6684 8.51714L7.88095 11.2026C7.90552 11.4993 8.08298 11.7486 8.40786 11.9306L9.79927 10.5938C9.80929 10.47 9.90302 10.3044 10.136 10.0897Z" fill="white"/>
</g>
</g>
<g style="mix-blend-mode:soft-light">
<g style="mix-blend-mode:soft-light">
<path d="M13.3451 7.18684L14.8357 5.75447C14.4489 5.70078 14.0613 5.66346 13.6745 5.63525L12.0856 7.16227C12.5015 7.1559 12.9228 7.16318 13.3451 7.18684Z" fill="white"/>
</g>
<g style="mix-blend-mode:soft-light">
<path d="M13.256 14.5471C12.5624 14.5833 11.8672 14.5745 11.1748 14.5208L9.71875 15.9213C9.79792 15.934 9.87255 15.9504 9.95263 15.9622C10.2347 16.0041 10.5187 16.035 10.8017 16.0614C11.0847 16.0878 11.3477 16.1051 11.6207 16.1178H11.6262L13.256 14.5471Z" fill="white"/>
</g>
<g style="mix-blend-mode:soft-light">
<path d="M6.8429 13.4351C6.56463 13.2997 6.2964 13.1446 6.04027 12.9709L4.85724 14.1085C5.10844 14.2843 5.36909 14.4462 5.63803 14.5935L6.8429 13.4351Z" fill="white"/>
</g>
<g style="mix-blend-mode:soft-light">
<path d="M8.49613 15.6725L9.86116 14.3575C9.00614 14.222 8.16889 13.9915 7.36496 13.6704L6.13734 14.8534C6.89411 15.2049 7.68437 15.4793 8.49613 15.6725Z" fill="white"/>
</g>
<g style="mix-blend-mode:soft-light">
<path d="M17.7879 8.16791C18.2523 8.37191 18.6904 8.631 19.0929 8.93961L20.2832 7.79298C20.0898 7.64467 19.889 7.50617 19.6817 7.37801C19.4688 7.24606 19.2431 7.11866 19.0065 6.99854L17.7879 8.16791Z" fill="white"/>
</g>
<g style="mix-blend-mode:soft-light">
<path d="M14.4596 7.28414C15.2268 7.37921 15.9841 7.54152 16.7228 7.76918L17.9887 6.5543C17.18 6.24684 16.3443 6.0159 15.4925 5.8645L14.0583 7.24683C14.192 7.25684 14.3258 7.26685 14.4596 7.28414Z" fill="white"/>
</g>
</g>
<path d="M22.0824 8.08179H20.57V10.2467H22.0824V8.08179Z" fill="#FA8A00"/>
<path d="M4.31762 8.08179H2.80516V10.2467H4.31762V8.08179Z" fill="#FA8A00"/>
<path d="M12.4442 15.5251C17.7661 15.5251 22.0804 13.1625 22.0804 10.2479C22.0804 7.3334 17.7661 4.9707 12.4442 4.9707C7.12224 4.9707 2.80795 7.3334 2.80795 10.2479C2.80795 13.1625 7.12224 15.5251 12.4442 15.5251Z" fill="#FA8A00"/>
<path d="M12.4442 13.3591C17.7661 13.3591 22.0804 10.9964 22.0804 8.08191C22.0804 5.16738 17.7661 2.80469 12.4442 2.80469C7.12224 2.80469 2.80795 5.16738 2.80795 8.08191C2.80795 10.9964 7.12224 13.3591 12.4442 13.3591Z" fill="#FFCA00"/>
<path d="M12.4445 11.7883C16.7462 11.7883 20.2334 10.1288 20.2334 8.08177C20.2334 6.03471 16.7462 4.37524 12.4445 4.37524C8.1428 4.37524 4.65559 6.03471 4.65559 8.08177C4.65559 10.1288 8.1428 11.7883 12.4445 11.7883Z" fill="#FA8A00"/>
<path d="M12.4431 11.7884C16.7453 11.7884 20.2329 10.1742 20.2329 8.1829C20.2329 6.19163 16.7453 4.57739 12.4431 4.57739C8.14088 4.57739 4.65327 6.19163 4.65327 8.1829C4.65327 10.1742 8.14088 11.7884 12.4431 11.7884Z" fill="#FFE700"/>
<path d="M12.444 11.5172C16.7467 11.5172 20.2347 9.96369 20.2347 8.04731C20.2347 6.13093 16.7467 4.57739 12.444 4.57739C8.14129 4.57739 4.65327 6.13093 4.65327 8.04731C4.65327 9.96369 8.14129 11.5172 12.444 11.5172Z" fill="#FF9F00"/>
<path d="M11.7932 7.46604C10.6466 8.07849 10.2926 8.15493 10.0169 8.08031C9.75842 8.01114 9.6383 7.76453 10.1352 7.3077C10.5105 6.9709 10.9416 6.70207 11.4092 6.51325L11.7796 6.3549L10.8505 5.66602L10.5001 5.80889C10.0261 6.00002 9.57891 6.25176 9.16964 6.55784L8.15861 6.29484L7.08751 7.20486L8.19591 7.50426C7.60076 8.33056 7.83191 9.0513 8.8484 9.33523C10.157 9.7047 11.5239 9.07951 12.7542 8.37697C13.7926 7.79456 14.2021 7.78819 14.4687 7.85735C14.8882 7.96655 14.8955 8.35149 14.476 8.80286C14.0441 9.24349 13.5274 9.59206 12.9572 9.82755L12.5021 10.0196L13.6251 10.8823L13.9891 10.7303C14.6149 10.4551 15.1884 10.074 15.6845 9.60368L16.903 9.93311L17.7976 8.8693L16.5235 8.53714C16.994 7.55613 16.3525 6.91912 15.4725 6.6998C14.1047 6.35854 12.8043 6.92185 11.7932 7.46604Z" fill="#FFCA00"/>
<g style="mix-blend-mode:soft-light">
<g style="mix-blend-mode:soft-light">
<path d="M16.5309 8.53829C16.8722 7.82757 16.6219 7.29975 16.1305 6.97852L14.7764 8.27803C14.7296 8.47885 14.6252 8.66166 14.4761 8.80402C14.1541 9.13663 13.7808 9.41531 13.3704 9.62941L12.7598 10.2164L13.6279 10.8834L13.9919 10.7314C14.2564 10.6169 14.5109 10.4806 14.7527 10.3238L16.5937 8.55559L16.5309 8.53829Z" fill="white"/>
</g>
<g style="mix-blend-mode:soft-light">
<path d="M11.7942 7.46519C10.9561 7.91293 10.5438 8.07309 10.2736 8.10221L8.96222 9.36168C10.2363 9.66654 11.5594 9.06501 12.7543 8.3825C13.0342 8.22079 13.3263 8.08113 13.6279 7.9648L15.0221 6.62615C13.819 6.48692 12.6924 6.98197 11.7942 7.46519Z" fill="white"/>
</g>
<g style="mix-blend-mode:soft-light">
<path d="M10.1361 7.30694C10.3651 7.09619 10.618 6.91295 10.8896 6.76093L11.5184 6.15667L10.8505 5.66162L10.6685 5.73442L7.88106 8.4199C7.90563 8.71657 8.08309 8.96591 8.40796 9.14792L9.79938 7.8111C9.80939 7.68733 9.90313 7.51898 10.1361 7.30694Z" fill="white"/>
</g>
</g>
<g style="mix-blend-mode:soft-light">
<g style="mix-blend-mode:soft-light">
<path d="M13.3451 4.40417L14.8357 2.96907C14.4489 2.91537 14.0613 2.87806 13.6745 2.84985L12.0856 4.37687C12.5015 4.3705 12.9228 4.38051 13.3451 4.40417Z" fill="white"/>
</g>
<g style="mix-blend-mode:soft-light">
<path d="M13.256 11.7653C12.5624 11.8007 11.8672 11.7916 11.1748 11.738L9.71875 13.1386C9.79792 13.1513 9.87255 13.1677 9.95263 13.1795C10.2347 13.2214 10.5187 13.2523 10.8017 13.2796C11.0847 13.3069 11.3477 13.3224 11.6207 13.3351H11.6262L13.256 11.7653Z" fill="white"/>
</g>
<g style="mix-blend-mode:soft-light">
<path d="M6.8429 10.6516C6.56463 10.5163 6.2964 10.3612 6.04027 10.1875L4.85724 11.325C5.10823 11.5012 5.3689 11.6631 5.63803 11.8101L6.8429 10.6516Z" fill="white"/>
</g>
<g style="mix-blend-mode:soft-light">
<path d="M8.49613 12.8885L9.86116 11.5735C9.00614 11.4381 8.16889 11.2076 7.36496 10.8865L6.13734 12.0695C6.89411 12.421 7.68437 12.6954 8.49613 12.8885Z" fill="white"/>
</g>
<g style="mix-blend-mode:soft-light">
<path d="M17.7879 5.38491C18.2523 5.58891 18.6904 5.848 19.0929 6.15661L20.2832 5.01271C20.0898 4.86439 19.889 4.72589 19.6817 4.59774C19.4688 4.46579 19.2431 4.33838 19.0065 4.21826L17.7879 5.38491Z" fill="white"/>
</g>
<g style="mix-blend-mode:soft-light">
<path d="M14.4596 4.50142C15.2268 4.5965 15.9841 4.7588 16.7228 4.98646L17.9887 3.77158C17.18 3.46413 16.3443 3.23318 15.4925 3.08179L14.0583 4.46047C14.192 4.47412 14.3258 4.48413 14.4596 4.50142Z" fill="white"/>
</g>
</g>
<path d="M22.0824 5.27759H20.57V7.44253H22.0824V5.27759Z" fill="#FA8A00"/>
<path d="M4.31762 5.27759H2.80516V7.44253H4.31762V5.27759Z" fill="#FA8A00"/>
<path d="M12.4442 12.7195C17.7661 12.7195 22.0804 10.3568 22.0804 7.44226C22.0804 4.52773 17.7661 2.16504 12.4442 2.16504C7.12224 2.16504 2.80795 4.52773 2.80795 7.44226C2.80795 10.3568 7.12224 12.7195 12.4442 12.7195Z" fill="#FA8A00"/>
<path d="M12.4442 10.5544C17.7661 10.5544 22.0804 8.19175 22.0804 5.27722C22.0804 2.36269 17.7661 0 12.4442 0C7.12224 0 2.80795 2.36269 2.80795 5.27722C2.80795 8.19175 7.12224 10.5544 12.4442 10.5544Z" fill="#FFCA00"/>
<path d="M12.4445 8.9836C16.7462 8.9836 20.2334 7.32414 20.2334 5.27708C20.2334 3.23002 16.7462 1.57056 12.4445 1.57056C8.1428 1.57056 4.65559 3.23002 4.65559 5.27708C4.65559 7.32414 8.1428 8.9836 12.4445 8.9836Z" fill="#FA8A00"/>
<path d="M12.4431 8.98299C16.7453 8.98299 20.2329 7.36875 20.2329 5.37748C20.2329 3.38621 16.7453 1.77197 12.4431 1.77197C8.14088 1.77197 4.65327 3.38621 4.65327 5.37748C4.65327 7.36875 8.14088 8.98299 12.4431 8.98299Z" fill="#FFE700"/>
<path d="M12.444 8.71181C16.7467 8.71181 20.2347 7.15827 20.2347 5.24189C20.2347 3.32551 16.7467 1.77197 12.444 1.77197C8.14129 1.77197 4.65327 3.32551 4.65327 5.24189C4.65327 7.15827 8.14129 8.71181 12.444 8.71181Z" fill="#FF9F00"/>
<path d="M11.7932 4.66086C10.6466 5.27331 10.2926 5.34975 10.0169 5.27513C9.75842 5.20506 9.6383 4.95935 10.1352 4.50161C10.5105 4.16482 10.9416 3.89598 11.4092 3.70716L11.7796 3.54882L10.8505 2.86084L10.5001 3.0028C10.0259 3.19389 9.57866 3.44597 9.16964 3.75266L8.15861 3.48876L7.08751 4.39878L8.19591 4.69727C7.60076 5.52448 7.83191 6.23975 8.8484 6.52823C10.157 6.8977 11.5239 6.27343 12.7542 5.56998C13.7926 4.98756 14.2021 4.98119 14.4687 5.05035C14.8882 5.15956 14.8955 5.54541 14.476 5.99587C14.0441 6.43678 13.5275 6.78566 12.9572 7.02146L12.5021 7.21348L13.6251 8.07527L13.9891 7.9233C14.6149 7.64815 15.1884 7.26701 15.6845 6.79669L16.903 7.12612L17.7994 6.06321L16.5254 5.73105C16.9958 4.75005 16.3543 4.11394 15.4743 3.89372C14.1047 3.55246 12.8043 4.11576 11.7932 4.66086Z" fill="#FFCA00"/>
<g style="mix-blend-mode:soft-light">
<g style="mix-blend-mode:soft-light">
<path d="M16.5309 5.73287C16.8722 5.02215 16.6219 4.49524 16.1305 4.1731L14.7764 5.47352C14.7297 5.67413 14.6253 5.85668 14.4761 5.9986C14.1539 6.33123 13.7807 6.61019 13.3704 6.8249L12.7598 7.41096L13.6279 8.078L13.9919 7.92603C14.2564 7.81185 14.5109 7.67578 14.7527 7.51925L16.5937 5.75017L16.5309 5.73287Z" fill="white"/>
</g>
<g style="mix-blend-mode:soft-light">
<path d="M11.7942 4.66076C10.9561 5.10758 10.5438 5.26774 10.2736 5.29323L8.96222 6.5527C10.2363 6.85665 11.5594 6.25603 12.7543 5.5726C13.034 5.41074 13.3261 5.27137 13.6279 5.15581L15.0221 3.81717C13.819 3.68249 12.6924 4.17663 11.7942 4.66076Z" fill="white"/>
</g>
<g style="mix-blend-mode:soft-light">
<path d="M10.1361 4.50152C10.3651 4.29072 10.618 4.10746 10.8896 3.95551L11.5184 3.35125L10.8505 2.8562L10.6685 2.92809L7.88106 5.61448C7.90563 5.91206 8.08309 6.1605 8.40796 6.3425L9.79938 5.00477C9.80939 4.88009 9.90313 4.71629 10.1361 4.50152Z" fill="white"/>
</g>
</g>
<g style="mix-blend-mode:soft-light">
<g style="mix-blend-mode:soft-light">
<path d="M13.3451 1.60426L14.8357 0.17188C14.4489 0.117279 14.0613 0.0808785 13.6745 0.0517578L12.0856 1.57878C12.5015 1.56513 12.9228 1.57605 13.3451 1.60426Z" fill="white"/>
</g>
<g style="mix-blend-mode:soft-light">
<path d="M13.256 8.95992C12.5624 8.99528 11.8672 8.98616 11.1748 8.93262L9.71875 10.3331C9.79792 10.3459 9.87255 10.3623 9.95263 10.3741C10.2347 10.416 10.5187 10.4469 10.8017 10.4742C11.0847 10.5015 11.3477 10.517 11.6207 10.5306H11.6262L13.256 8.95992Z" fill="white"/>
</g>
<g style="mix-blend-mode:soft-light">
<path d="M6.8429 7.84686C6.5646 7.7112 6.29637 7.5558 6.04027 7.38184L4.85724 8.52027C5.10842 8.69641 5.36908 8.85864 5.63803 9.00623L6.8429 7.84686Z" fill="white"/>
</g>
<g style="mix-blend-mode:soft-light">
<path d="M8.49613 10.0844L9.86116 8.76941C9.00627 8.63377 8.16907 8.40364 7.36496 8.08325L6.13734 9.26628C6.89399 9.61787 7.68428 9.89197 8.49613 10.0844Z" fill="white"/>
</g>
<g style="mix-blend-mode:soft-light">
<path d="M17.7879 2.5798C18.2521 2.78417 18.6902 3.04324 19.0929 3.3515L20.2832 2.2076C20.0898 2.05959 19.889 1.92139 19.6817 1.79354C19.4688 1.66159 19.2431 1.5351 19.0065 1.41406L17.7879 2.5798Z" fill="white"/>
</g>
<g style="mix-blend-mode:soft-light">
<path d="M14.4596 1.69498C15.2268 1.78962 15.9842 1.95193 16.7228 2.18002L17.9887 0.966964C17.18 0.65982 16.3442 0.429181 15.4925 0.278076L14.0583 1.65585C14.192 1.66859 14.3258 1.67951 14.4596 1.69498Z" fill="white"/>
</g>
</g>
<path d="M33.9998 22.8555H32.4874V25.0204H33.9998V22.8555Z" fill="#FA8A00"/>
<path d="M16.2355 22.8555H14.7231V25.0204H16.2355V22.8555Z" fill="#FA8A00"/>
<path d="M24.3616 30.2976C29.6835 30.2976 33.9978 27.9349 33.9978 25.0204C33.9978 22.1059 29.6835 19.7432 24.3616 19.7432C19.0397 19.7432 14.7254 22.1059 14.7254 25.0204C14.7254 27.9349 19.0397 30.2976 24.3616 30.2976Z" fill="#FA8A00"/>
<path d="M24.3616 28.1323C29.6835 28.1323 33.9978 25.7696 33.9978 22.8551C33.9978 19.9406 29.6835 17.5779 24.3616 17.5779C19.0397 17.5779 14.7254 19.9406 14.7254 22.8551C14.7254 25.7696 19.0397 28.1323 24.3616 28.1323Z" fill="#FFCA00"/>
<path d="M24.3619 26.5615C28.6636 26.5615 32.1508 24.902 32.1508 22.855C32.1508 20.8079 28.6636 19.1484 24.3619 19.1484C20.0602 19.1484 16.573 20.8079 16.573 22.855C16.573 24.902 20.0602 26.5615 24.3619 26.5615Z" fill="#FA8A00"/>
<path d="M24.3609 26.5609C28.6631 26.5609 32.1507 24.9466 32.1507 22.9554C32.1507 20.9641 28.6631 19.3499 24.3609 19.3499C20.0588 19.3499 16.5712 20.9641 16.5712 22.9554C16.5712 24.9466 20.0588 26.5609 24.3609 26.5609Z" fill="#FFE700"/>
<path d="M24.3619 26.2897C28.6645 26.2897 32.1526 24.7362 32.1526 22.8198C32.1526 20.9034 28.6645 19.3499 24.3619 19.3499C20.0592 19.3499 16.5712 20.9034 16.5712 22.8198C16.5712 24.7362 20.0592 26.2897 24.3619 26.2897Z" fill="#FF9F00"/>
<path d="M23.7148 22.239C22.5682 22.8514 22.2142 22.9279 21.9385 22.8533C21.68 22.7832 21.5599 22.5375 22.0568 22.0797C22.4322 21.7431 22.8633 21.4743 23.3308 21.2853L23.7003 21.1269L22.7721 20.439L22.4217 20.5809C21.9479 20.7727 21.5007 21.0248 21.0912 21.3308L20.0802 21.0669L19.0091 21.9769L20.1175 22.2754C19.5224 23.1026 19.749 23.8179 20.77 24.1064C22.0786 24.4758 23.4455 23.8515 24.6758 23.1481C25.7142 22.5657 26.1237 22.5593 26.3903 22.6294C26.8098 22.7377 26.8171 23.1235 26.3976 23.574C25.9656 24.0147 25.449 24.3635 24.8788 24.5996L24.4237 24.7916L25.5467 25.6534L25.9107 25.5014C26.5367 25.2267 27.1103 24.8455 27.6061 24.3748L28.8246 24.7042L29.7183 23.6404L28.4442 23.3083C28.9147 22.3273 28.2731 21.6912 27.3922 21.4709C26.0227 21.1306 24.7222 21.6939 23.7148 22.239Z" fill="#FFCA00"/>
<g style="mix-blend-mode:soft-light">
<g style="mix-blend-mode:soft-light">
<path d="M28.4471 23.3112C28.7884 22.6005 28.5381 22.0736 28.0458 21.7515L26.6926 23.0519C26.646 23.2525 26.5416 23.4351 26.3923 23.577C26.0704 23.9099 25.6971 24.1889 25.2866 24.4033L24.6751 24.9902L25.5441 25.6564L25.9082 25.5044C26.1727 25.3904 26.4272 25.2543 26.6689 25.0976L28.5099 23.3285L28.4471 23.3112Z" fill="white"/>
</g>
<g style="mix-blend-mode:soft-light">
<path d="M23.7151 22.2391C22.877 22.6869 22.4638 22.8461 22.1935 22.8716L20.8831 24.1311C22.1571 24.435 23.4803 23.8344 24.6752 23.151C24.9549 22.9891 25.247 22.8497 25.5488 22.7342L26.942 21.3955C25.7362 21.2609 24.6096 21.755 23.7151 22.2391Z" fill="white"/>
</g>
<g style="mix-blend-mode:soft-light">
<path d="M22.0533 22.08C22.2824 21.871 22.535 21.6893 22.8059 21.5385L23.4348 20.9343L22.7668 20.4392L22.5893 20.5111L19.8019 23.1938C19.8265 23.4905 20.004 23.7399 20.3279 23.9219L21.7203 22.5841C21.7266 22.4613 21.8204 22.2947 22.0533 22.08Z" fill="white"/>
</g>
</g>
<g style="mix-blend-mode:soft-light">
<g style="mix-blend-mode:soft-light">
<path d="M25.2619 19.1778L26.7525 17.7454C26.3649 17.6908 25.9781 17.6544 25.5913 17.6262L24.0024 19.1523C24.4192 19.1432 24.8397 19.1541 25.2619 19.1778Z" fill="white"/>
</g>
<g style="mix-blend-mode:soft-light">
<path d="M25.171 26.539C24.4777 26.5744 23.7829 26.5653 23.0907 26.5117L21.6347 27.9122C21.7138 27.925 21.7885 27.9423 21.8676 27.9532C22.1507 27.9951 22.4337 28.026 22.7167 28.0533C22.9997 28.0806 23.2627 28.0961 23.5357 28.1097H23.5412L25.171 26.539Z" fill="white"/>
</g>
<g style="mix-blend-mode:soft-light">
<path d="M18.7607 25.4252C18.4824 25.2896 18.2142 25.1342 17.9581 24.9602L16.775 26.0986C17.0259 26.2748 17.2863 26.437 17.5549 26.5846L18.7607 25.4252Z" fill="white"/>
</g>
<g style="mix-blend-mode:soft-light">
<path d="M20.4139 27.6625L21.7789 26.3484C20.924 26.2126 20.0868 25.9822 19.2827 25.6614L18.0551 26.8399C18.8116 27.193 19.6019 27.4686 20.4139 27.6625Z" fill="white"/>
</g>
<g style="mix-blend-mode:soft-light">
<path d="M29.7057 20.1577C30.1699 20.3621 30.608 20.6211 31.0107 20.9294L32.201 19.7855C32.019 19.6426 31.8134 19.5043 31.5995 19.3714C31.3866 19.2395 31.1609 19.113 30.9243 18.9919L29.7057 20.1577Z" fill="white"/>
</g>
<g style="mix-blend-mode:soft-light">
<path d="M26.3774 19.2751C27.1446 19.3698 27.902 19.5321 28.6406 19.7601L29.9055 18.5444C29.0972 18.2371 28.2618 18.0065 27.4103 17.8555L25.9761 19.2342C26.1098 19.2478 26.2436 19.2587 26.3774 19.2751Z" fill="white"/>
</g>
</g>
<path d="M33.9998 20.073H32.4874V22.2379H33.9998V20.073Z" fill="#FA8A00"/>
<path d="M16.2355 20.073H14.7231V22.2379H16.2355V20.073Z" fill="#FA8A00"/>
<path d="M24.3616 27.5151C29.6835 27.5151 33.9978 25.1524 33.9978 22.2379C33.9978 19.3234 29.6835 16.9607 24.3616 16.9607C19.0397 16.9607 14.7254 19.3234 14.7254 22.2379C14.7254 25.1524 19.0397 27.5151 24.3616 27.5151Z" fill="#FA8A00"/>
<path d="M24.3616 25.3506C29.6835 25.3506 33.9978 22.9879 33.9978 20.0734C33.9978 17.1588 29.6835 14.7961 24.3616 14.7961C19.0397 14.7961 14.7254 17.1588 14.7254 20.0734C14.7254 22.9879 19.0397 25.3506 24.3616 25.3506Z" fill="#FFCA00"/>
<path d="M24.3619 23.7802C28.6636 23.7802 32.1508 22.1208 32.1508 20.0737C32.1508 18.0267 28.6636 16.3672 24.3619 16.3672C20.0602 16.3672 16.573 18.0267 16.573 20.0737C16.573 22.1208 20.0602 23.7802 24.3619 23.7802Z" fill="#FA8A00"/>
<path d="M24.3609 23.7789C28.6631 23.7789 32.1507 22.1646 32.1507 20.1734C32.1507 18.1821 28.6631 16.5679 24.3609 16.5679C20.0588 16.5679 16.5712 18.1821 16.5712 20.1734C16.5712 22.1646 20.0588 23.7789 24.3609 23.7789Z" fill="#FFE700"/>
<path d="M24.3619 23.5077C28.6645 23.5077 32.1526 21.9542 32.1526 20.0378C32.1526 18.1214 28.6645 16.5679 24.3619 16.5679C20.0592 16.5679 16.5712 18.1214 16.5712 20.0378C16.5712 21.9542 20.0592 23.5077 24.3619 23.5077Z" fill="#FF9F00"/>
<path d="M23.7147 19.457C22.5681 20.0695 22.2141 20.1459 21.9384 20.0713C21.6799 20.0012 21.5598 19.7555 22.0567 19.2978C22.4321 18.9611 22.8632 18.6923 23.3307 18.5033L23.7002 18.345L22.7719 17.657L22.4216 17.7989C21.9478 17.9907 21.5006 18.2428 21.0911 18.5488L20.0746 18.2849L19.0035 19.1949L20.112 19.4934C19.5168 20.3206 19.7434 21.0359 20.7644 21.3244C22.073 21.6938 23.4399 21.0696 24.6703 20.3661C25.7086 19.7837 26.1181 19.7773 26.3847 19.8474C26.8043 19.9557 26.8115 20.3416 26.392 20.792C25.9603 21.233 25.4436 21.5819 24.8732 21.8176L24.4182 22.0096L25.5411 22.8714L25.9051 22.7194C26.5311 22.4447 27.1047 22.0635 27.6005 21.5928L28.819 21.9223L29.7127 20.8584L28.4468 20.5327C28.9173 19.5517 28.2758 18.9155 27.3949 18.6953C26.0225 18.3486 24.7221 18.9119 23.7147 19.457Z" fill="#FFCA00"/>
<g style="mix-blend-mode:soft-light">
<g style="mix-blend-mode:soft-light">
<path d="M28.4471 20.5329C28.7884 19.8222 28.5381 19.2953 28.0458 18.9731L26.6926 20.2736C26.646 20.4742 26.5416 20.6567 26.3923 20.7987C26.0704 21.1316 25.6971 21.4106 25.2866 21.625L24.6751 22.2119L25.5441 22.8781L25.9082 22.7261C26.1727 22.6121 26.4272 22.476 26.6689 22.3193L28.5099 20.5502L28.4471 20.5329Z" fill="white"/>
</g>
<g style="mix-blend-mode:soft-light">
<path d="M23.715 19.4572C22.8769 19.9049 22.4637 20.0642 22.1935 20.0897L20.8794 21.3519C22.1534 21.6558 23.4766 21.0552 24.6714 20.3718C24.9511 20.2099 25.2433 20.0705 25.5451 19.955L26.9383 18.6163C25.7362 18.4789 24.6096 18.9731 23.715 19.4572Z" fill="white"/>
</g>
<g style="mix-blend-mode:soft-light">
<path d="M22.0533 19.298C22.2824 19.089 22.535 18.9073 22.8059 18.7565L23.4348 18.1523L22.7668 17.6572L22.5893 17.7291L19.8019 20.4119C19.8265 20.7085 20.004 20.9579 20.3279 21.1399L21.713 19.8049C21.7266 19.6793 21.8204 19.5128 22.0533 19.298Z" fill="white"/>
</g>
</g>
<g style="mix-blend-mode:soft-light">
<g style="mix-blend-mode:soft-light">
<path d="M25.2619 16.3966L26.7525 14.9642C26.3649 14.9096 25.9781 14.8732 25.5913 14.845L24.0024 16.3711C24.4192 16.362 24.8397 16.3729 25.2619 16.3966Z" fill="white"/>
</g>
<g style="mix-blend-mode:soft-light">
<path d="M25.171 23.7568C24.4777 23.7922 23.7829 23.783 23.0907 23.7295L21.6347 25.13C21.7138 25.1428 21.7885 25.16 21.8676 25.171C22.1507 25.2128 22.4337 25.2438 22.7167 25.2711C22.9997 25.2984 23.2627 25.3138 23.5357 25.3275H23.5412L25.171 23.7568Z" fill="white"/>
</g>
<g style="mix-blend-mode:soft-light">
<path d="M18.7607 22.644C18.4824 22.5083 18.2142 22.3529 17.9581 22.179L16.775 23.3174C17.0257 23.4939 17.2861 23.6561 17.5549 23.8033L18.7607 22.644Z" fill="white"/>
</g>
<g style="mix-blend-mode:soft-light">
<path d="M20.4139 24.8813L21.7789 23.5672C20.924 23.4314 20.0868 23.201 19.2827 22.8801L18.0551 24.0586C18.8114 24.4122 19.6018 24.6878 20.4139 24.8813Z" fill="white"/>
</g>
<g style="mix-blend-mode:soft-light">
<path d="M29.7057 17.3764C30.1701 17.5807 30.6083 17.8401 31.0107 18.149L32.201 17.0042C32.019 16.8614 31.8134 16.723 31.5995 16.5902C31.3866 16.4582 31.1609 16.3317 30.9243 16.2107L29.7057 17.3764Z" fill="white"/>
</g>
<g style="mix-blend-mode:soft-light">
<path d="M26.3774 16.4939C27.1446 16.5886 27.902 16.7509 28.6406 16.9789L29.9055 15.7631C29.0972 15.4558 28.2618 15.2252 27.4103 15.0742L25.9761 16.4529C26.1098 16.4666 26.2436 16.4766 26.3774 16.4939Z" fill="white"/>
</g>
</g>
<path d="M33.9998 17.2673H32.4874V19.4323H33.9998V17.2673Z" fill="#FA8A00"/>
<path d="M16.2355 17.2673H14.7231V19.4323H16.2355V17.2673Z" fill="#FA8A00"/>
<path d="M24.3616 24.7109C29.6835 24.7109 33.9978 22.3482 33.9978 19.4337C33.9978 16.5192 29.6835 14.1565 24.3616 14.1565C19.0397 14.1565 14.7254 16.5192 14.7254 19.4337C14.7254 22.3482 19.0397 24.7109 24.3616 24.7109Z" fill="#FA8A00"/>
<path d="M24.3616 22.5449C29.6835 22.5449 33.9978 20.1822 33.9978 17.2677C33.9978 14.3532 29.6835 11.9905 24.3616 11.9905C19.0397 11.9905 14.7254 14.3532 14.7254 17.2677C14.7254 20.1822 19.0397 22.5449 24.3616 22.5449Z" fill="#FFCA00"/>
<path d="M24.3619 20.9741C28.6636 20.9741 32.1508 19.3146 32.1508 17.2676C32.1508 15.2205 28.6636 13.561 24.3619 13.561C20.0602 13.561 16.573 15.2205 16.573 17.2676C16.573 19.3146 20.0602 20.9741 24.3619 20.9741Z" fill="#FA8A00"/>
<path d="M24.3609 20.9742C28.6631 20.9742 32.1507 19.36 32.1507 17.3687C32.1507 15.3774 28.6631 13.7632 24.3609 13.7632C20.0588 13.7632 16.5712 15.3774 16.5712 17.3687C16.5712 19.36 20.0588 20.9742 24.3609 20.9742Z" fill="#FFE700"/>
<path d="M24.3619 20.703C28.6645 20.703 32.1526 19.1495 32.1526 17.2331C32.1526 15.3167 28.6645 13.7632 24.3619 13.7632C20.0592 13.7632 16.5712 15.3167 16.5712 17.2331C16.5712 19.1495 20.0592 20.703 24.3619 20.703Z" fill="#FF9F00"/>
<path d="M23.7147 16.6518C22.5681 17.2643 22.2141 17.3407 21.9384 17.2661C21.6799 17.196 21.5598 16.9503 22.0567 16.4935C22.4321 16.1567 22.8632 15.8876 23.3307 15.6981L23.7002 15.5407L22.7719 14.8518L22.4216 14.9947C21.9476 15.1858 21.5004 15.4376 21.0911 15.7436L20.0746 15.4806L19.0035 16.3907L20.112 16.6901C19.5168 17.5164 19.7434 18.2316 20.7644 18.521C22.073 18.8905 23.4399 18.2653 24.6703 17.5628C25.7086 16.9803 26.1181 16.974 26.3847 17.0431C26.8043 17.1523 26.8115 17.5373 26.392 17.9887C25.96 18.4291 25.4433 18.7776 24.8732 19.0133L24.4182 19.2054L25.5411 20.0681L25.9051 19.9152C26.5311 19.6407 27.1047 19.2598 27.6005 18.7895L28.819 19.1189L29.7127 18.0551L28.4387 17.7229C28.9091 16.7419 28.2676 16.1049 27.3867 15.8856C26.0225 15.5443 24.7221 16.1076 23.7147 16.6518Z" fill="#FFCA00"/>
<g style="mix-blend-mode:soft-light">
<g style="mix-blend-mode:soft-light">
<path d="M28.4471 17.7246C28.7884 17.0129 28.5381 16.486 28.0458 16.1648L26.6926 17.4643C26.6458 17.6651 26.5415 17.8479 26.3923 17.9903C26.0702 18.3227 25.6969 18.6014 25.2866 18.8157L24.6751 19.4027L25.5441 20.0697L25.9082 19.9168C26.1727 19.8028 26.4272 19.6667 26.6689 19.51L28.5099 17.7419L28.4471 17.7246Z" fill="white"/>
</g>
<g style="mix-blend-mode:soft-light">
<path d="M23.7151 16.6516C22.877 17.0993 22.4638 17.2586 22.1935 17.284L20.8831 18.5435C22.1571 18.8475 23.4803 18.2468 24.6752 17.5643C24.9551 17.4026 25.2472 17.263 25.5488 17.1466L26.942 15.808C25.7362 15.6733 24.6096 16.1647 23.7151 16.6516Z" fill="white"/>
</g>
<g style="mix-blend-mode:soft-light">
<path d="M22.0533 16.4932C22.2822 16.2827 22.5348 16.0995 22.8059 15.9472L23.4348 15.343L22.7668 14.8479L22.5893 14.9207L19.8019 17.6062C19.8265 17.9028 20.004 18.1522 20.3279 18.3342L21.7203 16.9974C21.7266 16.8736 21.8204 16.7107 22.0533 16.4932Z" fill="white"/>
</g>
</g>
<g style="mix-blend-mode:soft-light">
<g style="mix-blend-mode:soft-light">
<path d="M25.2619 13.5904L26.7535 12.1607C26.3658 12.1061 25.979 12.0697 25.5923 12.0415L24.0034 13.5685C24.4193 13.5567 24.8397 13.5667 25.2619 13.5904Z" fill="white"/>
</g>
<g style="mix-blend-mode:soft-light">
<path d="M25.171 20.9505C24.4777 20.9866 23.7829 20.9778 23.0907 20.9241L21.6347 22.3237C21.7138 22.3364 21.7885 22.3537 21.8676 22.3656C22.1507 22.4065 22.4337 22.4384 22.7167 22.4647C22.9997 22.4911 23.2627 22.5084 23.5357 22.5212H23.5412L25.171 20.9505Z" fill="white"/>
</g>
<g style="mix-blend-mode:soft-light">
<path d="M18.7607 19.8376C18.4824 19.7023 18.2142 19.5472 17.9581 19.3735L16.775 20.5111C17.0259 20.6869 17.2863 20.8488 17.5549 20.9961L18.7607 19.8376Z" fill="white"/>
</g>
<g style="mix-blend-mode:soft-light">
<path d="M20.4139 22.0802L21.7789 20.7652C20.9239 20.6298 20.0866 20.3994 19.2827 20.0781L18.0551 21.2612C18.8119 21.6127 19.6021 21.887 20.4139 22.0802Z" fill="white"/>
</g>
<g style="mix-blend-mode:soft-light">
<path d="M29.7057 14.5714C30.1701 14.7754 30.6082 15.0345 31.0107 15.3431L32.201 14.1992C32.0076 14.0508 31.8068 13.9124 31.5995 13.7842C31.3866 13.6513 31.1609 13.5248 30.9243 13.4038L29.7057 14.5714Z" fill="white"/>
</g>
<g style="mix-blend-mode:soft-light">
<path d="M26.3774 13.6875C27.1445 13.7826 27.9018 13.9449 28.6406 14.1725L29.9055 12.9567C29.0971 12.6499 28.2617 12.4192 27.4103 12.2678L25.9761 13.6465C26.1098 13.6602 26.2436 13.6702 26.3774 13.6875Z" fill="white"/>
</g>
</g>
<path d="M17.5794 16.3479L16.4861 17.3931L17.9821 18.958L19.0754 17.9129L17.5794 16.3479Z" fill="#FA8A00"/>
<path d="M4.7379 28.6226L3.64462 29.6677L5.14062 31.2326L6.23389 30.1875L4.7379 28.6226Z" fill="#FA8A00"/>
<path d="M15.754 28.3873C19.601 24.7098 21.0869 20.0207 19.073 17.9139C17.059 15.8072 12.3078 17.0805 8.46083 20.758C4.61388 24.4355 3.12796 29.1246 5.14192 31.2314C7.15589 33.3381 11.9071 32.0648 15.754 28.3873Z" fill="#FA8A00"/>
<path d="M14.2587 26.8218C18.1057 23.1443 19.5916 18.4553 17.5776 16.3485C15.5637 14.2417 10.8125 15.5151 6.96552 19.1926C3.11857 22.8701 1.63264 27.5592 3.64661 29.6659C5.66057 31.7727 10.4118 30.4994 14.2587 26.8218Z" fill="#FFCA00"/>
<path d="M13.1729 25.6868C16.2824 22.7143 17.6564 19.105 16.2419 17.6253C14.8273 16.1456 11.1599 17.3558 8.05047 20.3283C4.94101 23.3008 3.56701 26.91 4.98154 28.3897C6.39608 29.8694 10.0635 28.6593 13.1729 25.6868Z" fill="#FA8A00"/>
<path d="M13.1716 25.6868C16.2814 22.714 17.687 19.1372 16.311 17.6978C14.935 16.2584 11.2985 17.5015 8.1887 20.4744C5.07888 23.4472 3.67333 27.024 5.04932 28.4634C6.4253 29.9028 10.0618 28.6597 13.1716 25.6868Z" fill="#FFE700"/>
<path d="M12.9858 25.4902C16.096 22.517 17.5438 18.9838 16.2195 17.5985C14.8953 16.2133 11.3005 17.5005 8.19029 20.4737C5.08011 23.4469 3.63231 26.9801 4.95655 28.3654C6.28079 29.7506 9.87559 28.4634 12.9858 25.4902Z" fill="#FF9F00"/>
<path d="M10.6587 22.1038C11.9136 21.7644 12.2239 21.5778 12.3741 21.3348C12.5142 21.1073 12.4332 20.8453 11.758 20.8525C11.2539 20.8637 10.7556 20.9629 10.2856 21.1456L9.90793 21.2839L10.1136 20.1454L10.4658 20.0099C10.9423 19.8246 11.441 19.7023 11.9491 19.6458L12.5051 18.7613L13.9102 18.6921L13.3078 19.6695C14.3088 19.8642 14.6328 20.5404 14.0858 21.4504C13.3851 22.6162 11.9618 23.0966 10.5841 23.427C9.42834 23.7136 9.12803 23.9894 8.97879 24.2223C8.74764 24.5864 9.00609 24.8748 9.6158 24.9167C10.2324 24.9418 10.8478 24.8421 11.4249 24.6237L11.8863 24.4535L11.6588 25.8504L11.2866 25.9905C10.6439 26.2187 9.96659 26.3342 9.28456 26.3318L8.62207 27.4056L7.24338 27.2418L7.94228 26.1288C6.92761 25.7366 6.95945 24.833 7.44996 24.0704C8.21529 22.8792 9.54847 22.3996 10.6587 22.1038Z" fill="#FFCA00"/>
<g style="mix-blend-mode:soft-light">
<g style="mix-blend-mode:soft-light">
<path d="M8.71527 19.7137L8.80627 17.6479C8.48958 17.8764 8.18382 18.1166 7.88533 18.3641L7.79433 20.5655C8.08189 20.2761 8.39403 19.9922 8.71527 19.7137Z" fill="white"/>
</g>
<g style="mix-blend-mode:soft-light">
<path d="M13.738 25.0996C13.2611 25.6043 12.7526 26.0781 12.2156 26.5183L12.1246 28.5377C12.191 28.4922 12.2556 28.453 12.322 28.4057C12.555 28.241 12.777 28.0672 13.0046 27.8916C13.2321 27.7159 13.4277 27.5467 13.6325 27.3683L13.738 25.0996Z" fill="white"/>
</g>
<g style="mix-blend-mode:soft-light">
<path d="M8.33491 28.7227C8.04024 28.8172 7.73915 28.8905 7.43398 28.942L7.36391 30.58C7.66717 30.5339 7.96764 30.471 8.26392 30.3916L8.33491 28.7227Z" fill="white"/>
</g>
<g style="mix-blend-mode:soft-light">
<path d="M11.075 29.201L11.156 27.3054C10.4457 27.7983 9.68261 28.2104 8.88092 28.534L8.80902 30.2339C9.59724 29.9669 10.3564 29.6208 11.075 29.201Z" fill="white"/>
</g>
<g style="mix-blend-mode:soft-light">
<path d="M12.6047 17.3559C13.0811 17.1824 13.5767 17.0669 14.0808 17.0119L14.1508 15.3621C13.917 15.3875 13.6758 15.4267 13.4301 15.4785C13.1853 15.5304 12.9341 15.5941 12.6802 15.6706L12.6047 17.3559Z" fill="white"/>
</g>
<g style="mix-blend-mode:soft-light">
<path d="M9.58909 19.0167C10.2093 18.555 10.8688 18.1488 11.5602 17.8028L11.6348 16.05C10.8383 16.387 10.0748 16.7974 9.3543 17.2758L9.27058 19.2643C9.37615 19.1823 9.4808 19.0968 9.58909 19.0167Z" fill="white"/>
</g>
</g>
<g style="mix-blend-mode:soft-light">
<g style="mix-blend-mode:soft-light">
<path d="M11.4293 24.6226L11.8907 24.4524L11.6632 25.8493L11.291 25.9894C11.2482 26.0058 11.2 26.0185 11.1517 26.034L11.2145 24.6899C11.2864 24.6672 11.3583 24.648 11.4293 24.6226Z" fill="white"/>
</g>
<g style="mix-blend-mode:soft-light">
<path d="M11.7575 20.8523C11.6282 20.8523 11.5108 20.8668 11.3934 20.8796L11.4471 19.7338C11.6137 19.7002 11.7784 19.6638 11.9495 19.6428L12.5055 18.7583H12.5191L12.4109 21.0661C12.3535 20.9424 12.1651 20.8477 11.7575 20.8523Z" fill="white"/>
</g>
<g style="mix-blend-mode:soft-light">
<path d="M9.08102 22.6753L9.01096 24.1759C9.00004 24.1914 8.98729 24.2069 8.97819 24.2214C8.86079 24.4034 8.87081 24.5718 8.98639 24.6946L8.88082 26.987L8.62238 27.4047L8.32753 27.3701L8.53229 22.9892C8.70807 22.8726 8.89137 22.7677 9.08102 22.6753Z" fill="white"/>
</g>
<g style="mix-blend-mode:soft-light">
<path d="M12.3999 21.2781L12.3252 22.867C11.9862 23.0142 11.6378 23.1389 11.2824 23.2401L11.3452 21.9024C12.0331 21.6812 12.2552 21.5247 12.3735 21.3345C12.3834 21.3162 12.3922 21.2974 12.3999 21.2781Z" fill="white"/>
</g>
<g style="mix-blend-mode:soft-light">
<path d="M7.5051 25.8684C6.95908 25.4134 7.04554 24.6963 7.44868 24.0702C7.49509 23.9992 7.54878 23.9383 7.59792 23.8718L7.5051 25.8684Z" fill="white"/>
</g>
<g style="mix-blend-mode:soft-light">
<path d="M13.9271 19.9004C14.4149 20.2153 14.4959 20.7667 14.0855 21.4474C14.0113 21.5662 13.9289 21.6796 13.8389 21.7869L13.9271 19.9004Z" fill="white"/>
</g>
<g style="mix-blend-mode:soft-light">
<path d="M7.43873 27.2653L7.24126 27.2426L7.45602 26.9004L7.43873 27.2653Z" fill="white"/>
</g>
</g>
</svg>
