<svg width="76" height="3" viewBox="0 0 76 3" fill="none" xmlns="http://www.w3.org/2000/svg">
<path d="M75.8733 2.48496C75.5036 2.42293 75.1309 2.40902 74.7592 2.37907C74.3875 2.34912 74.0194 2.31295 73.6528 2.25433C72.8332 2.1252 72.0171 1.99307 71.2004 1.87056C69.6242 1.6356 68.0432 1.42611 66.459 1.26794C65.0061 1.12236 63.5514 1.00246 62.0952 0.908207C61.7167 0.884266 61.3414 0.860529 60.9629 0.836588C59.5193 0.745289 58.0736 0.68927 56.6244 0.636262C53.2407 0.515649 49.857 0.395038 46.4724 0.338785C43.165 0.284193 39.8568 0.242435 36.5496 0.236164C34.9234 0.233148 33.2973 0.226925 31.6695 0.249572C29.9137 0.257689 28.1557 0.249558 26.3957 0.273511L15.5133 0.422602C12.3671 0.468379 9.21953 0.636459 6.08193 0.901789C4.05837 1.0701 2.03478 1.28995 0.0153663 1.54549C2.29669 1.83363 4.58515 2.05996 6.88074 2.22448C8.382 2.31943 9.88128 2.39493 11.3768 2.42832C12.3416 2.45069 13.3073 2.45703 14.29 2.45154C14.8861 2.44737 15.4836 2.42075 16.0805 2.40375L20.8881 2.26337C22.7145 2.20819 24.5417 2.14018 26.3735 2.10145L32.0247 1.96611C33.7177 1.93148 35.4091 1.92251 37.1045 1.90091C38.8 1.87932 40.4064 1.89074 42.0585 1.89217C43.7106 1.8936 45.3903 1.9161 47.0545 1.93117C48.7186 1.94625 50.4442 2.00709 52.1356 2.04965C55.2321 2.12955 58.3206 2.28302 61.411 2.45915C63.1272 2.5677 64.851 2.60587 66.5711 2.65347C68.2911 2.70106 69.9639 2.73278 71.6577 2.73685C72.35 2.73877 73.0415 2.75352 73.7324 2.72637C74.0659 2.71784 74.3987 2.69158 74.7294 2.64771C75.0219 2.60502 75.3129 2.53647 75.608 2.50361C75.6979 2.50929 75.7859 2.49231 75.8761 2.49158L75.8733 2.48496Z" fill="#FFB62D"/>
</svg>
