<svg width="17" height="17" viewBox="0 0 17 17" fill="none" xmlns="http://www.w3.org/2000/svg">
<path d="M9.94971 15.8396H16.0001" stroke="#A5A5A5" stroke-width="1.5" stroke-linecap="round" stroke-linejoin="round"/>
<path d="M9.14439 1.67131C9.45645 1.29379 9.90551 1.05543 10.3931 1.00851C10.8806 0.961594 11.3668 1.10994 11.7452 1.42102L11.8758 1.52984L13.1925 2.61804C13.6065 2.87631 13.9016 3.28768 14.0137 3.76257C14.1258 4.23746 14.0458 4.7374 13.791 5.15354L13.7039 5.295L5.83628 15.3173C5.70788 15.4836 5.54297 15.6182 5.35429 15.7106C5.1656 15.8031 4.9582 15.8509 4.74809 15.8505H1.71201L1.03733 12.9015C0.989145 12.6951 0.987588 12.4806 1.03277 12.2735C1.07795 12.0664 1.16873 11.872 1.29851 11.7045L9.14439 1.67131Z" stroke="#A5A5A5" stroke-width="1.5" stroke-linecap="round" stroke-linejoin="round"/>
<path d="M7.6864 3.55396L12.2242 7.11236" stroke="#A5A5A5" stroke-width="1.5" stroke-linecap="round" stroke-linejoin="round"/>
</svg>
