<svg width="20" height="20" viewBox="0 0 20 20" fill="none" xmlns="http://www.w3.org/2000/svg">
<circle cx="10" cy="10" r="10" fill="#FF7B65"/>
<path d="M10.5282 10.002L12.8899 7.64411C12.9604 7.57305 13 7.47701 13 7.37691C13 7.27681 12.9604 7.18077 12.8899 7.10971C12.8196 7.03946 12.7242 7 12.6248 7C12.5254 7 12.43 7.03946 12.3597 7.10971L10.002 9.47171L7.64031 7.10971C7.56996 7.03946 7.4746 7 7.37518 7C7.27576 7 7.1804 7.03946 7.11005 7.10971C7.03955 7.18077 7 7.27681 7 7.37691C7 7.47701 7.03955 7.57305 7.11005 7.64411L9.47177 10.002L7.11005 12.36C7.03981 12.4303 7.00035 12.5257 7.00035 12.6251C7.00035 12.7246 7.03981 12.8199 7.11005 12.8903C7.1804 12.9605 7.27576 13 7.37518 13C7.4746 13 7.56996 12.9605 7.64031 12.8903L10.002 10.5283L12.3597 12.8903C12.43 12.9605 12.5254 13 12.6248 13C12.7242 13 12.8196 12.9605 12.8899 12.8903C12.9602 12.8199 12.9996 12.7246 12.9996 12.6251C12.9996 12.5257 12.9602 12.4303 12.8899 12.36L10.5282 10.002Z" fill="white"/>
</svg>
