<svg width="20" height="20" viewBox="0 0 20 20" fill="none" xmlns="http://www.w3.org/2000/svg">
<circle cx="10" cy="10" r="10" fill="#63CF9D"/>
<path d="M8.19277 13.999C8.13514 13.9992 8.07808 13.9879 8.02521 13.9657C7.97234 13.9436 7.92479 13.9111 7.88557 13.8703L5.17866 11.1671C5.12678 11.1306 5.08392 11.0834 5.05316 11.029C5.0224 10.9746 5.0045 10.9143 5.00074 10.8524C4.99699 10.7905 5.00747 10.7286 5.03144 10.6711C5.05541 10.6136 5.09227 10.562 5.13937 10.5199C5.18647 10.4777 5.24265 10.4462 5.30387 10.4276C5.36508 10.4089 5.42982 10.4036 5.49342 10.4119C5.55703 10.4203 5.61793 10.4422 5.67174 10.476C5.72555 10.5098 5.77095 10.5546 5.80467 10.6074L8.20437 13.0028L13.2472 8.1336C13.287 8.09236 13.335 8.05928 13.3883 8.03634C13.4417 8.0134 13.4992 8.00106 13.5576 8.00007C13.616 7.99907 13.674 8.00944 13.7281 8.03055C13.7822 8.05166 13.8314 8.08309 13.8727 8.12295C13.9139 8.16281 13.9465 8.21028 13.9684 8.26255C13.9902 8.31482 14.001 8.3708 13.9999 8.42717C13.9989 8.48353 13.9861 8.53911 13.9624 8.5906C13.9386 8.64209 13.9043 8.68843 13.8616 8.72686L8.50578 13.8983C8.41921 13.9703 8.30677 14.0065 8.19277 13.999Z" fill="white" stroke="white" stroke-width="0.3"/>
</svg>
