<svg width="30" height="30" viewBox="0 0 30 30" fill="none" xmlns="http://www.w3.org/2000/svg">
<mask id="mask0_1_30" style="mask-type:alpha" maskUnits="userSpaceOnUse" x="0" y="0" width="30" height="30">
<rect width="30" height="30" fill="#C4C4C4"/>
</mask>
<g mask="url(#mask0_1_30)">
<path d="M25.17 22.874C23.3606 25.2459 20.9709 26.7515 18.0778 27.4647C17.8852 27.5123 17.6891 27.5461 17.4947 27.588C17.4477 27.5977 17.4019 27.6115 17.364 27.5673C17.4873 27.5501 17.4638 27.4555 17.4638 27.3753C17.4638 24.5823 17.4638 21.7896 17.4638 18.9971C17.4638 18.8612 17.4924 18.8211 17.6358 18.8222C18.4385 18.8302 19.2451 18.8251 20.0501 18.8279C20.1401 18.8279 20.1929 18.8142 20.2095 18.7098C20.3765 17.6514 20.5468 16.5936 20.7203 15.5364C20.7438 15.3959 20.7129 15.3592 20.5673 15.3604C19.5834 15.3667 18.6001 15.3604 17.6169 15.3661C17.5022 15.3661 17.4649 15.3363 17.4661 15.2171C17.4724 14.5703 17.4661 13.923 17.4701 13.2763C17.4626 13.0187 17.4724 12.7609 17.4993 12.5046C17.5853 11.8837 17.9356 11.4772 18.5394 11.3161C18.8101 11.2491 19.0884 11.2179 19.3673 11.2232C19.8351 11.2232 20.3035 11.2186 20.7714 11.2232C20.9044 11.2232 20.9376 11.1848 20.9371 11.0552C20.9325 10.1241 20.9325 9.19318 20.9371 8.26246C20.9371 8.11282 20.9021 8.05377 20.7461 8.03313C19.9693 7.93681 19.1924 7.83762 18.4081 7.81927C17.688 7.80207 16.9799 7.88062 16.2976 8.12314C15.2983 8.47747 14.5076 9.09151 13.9934 10.0301C13.5892 10.768 13.4063 11.5678 13.3954 12.4043C13.3833 13.3296 13.3873 14.2556 13.3954 15.1809C13.3954 15.3306 13.3495 15.3633 13.209 15.3627C12.2917 15.3569 11.3789 15.3627 10.4639 15.3564C10.3303 15.3564 10.2976 15.3954 10.2982 15.5249C10.3036 16.5719 10.3036 17.6186 10.2982 18.6651C10.2982 18.8033 10.3441 18.8256 10.4702 18.8251C11.3749 18.8199 12.2797 18.8216 13.1838 18.8251C13.4131 18.8251 13.3937 18.7935 13.3937 19.0361C13.3937 21.8026 13.3948 24.569 13.3971 27.3351C13.3971 27.4028 13.4028 27.471 13.4063 27.5392C13.3105 27.6539 13.1941 27.5765 13.0978 27.557C10.969 27.1207 9.06094 26.2217 7.40342 24.8101C5.30844 23.0259 3.94428 20.7937 3.31093 18.1136C3.04655 16.982 2.94996 15.8177 3.02426 14.6581C3.18059 12.0539 4.07156 9.72792 5.69716 7.67995C6.94548 6.09658 8.56427 4.84473 10.4107 4.03483C12.2572 3.22493 14.2746 2.88187 16.285 3.03591C16.8506 3.069 17.4123 3.14974 17.9643 3.27729C18.6821 3.44821 19.3863 3.67244 20.0707 3.9481C21.3305 4.45947 22.4939 5.18191 23.5108 6.08435C25.0181 7.41851 26.1544 9.01755 26.8831 10.897C27.2626 11.8584 27.5147 12.8653 27.6331 13.8921C28.0023 17.214 27.1956 20.2189 25.17 22.874Z" fill="#4186C6"/>
<path d="M20.9348 11.058C20.9348 11.1876 20.9021 11.23 20.7691 11.226C20.3012 11.2185 19.8328 11.226 19.365 11.226C19.0861 11.2207 18.8078 11.2519 18.5371 11.3189C17.9334 11.48 17.583 11.8865 17.497 12.5074C17.4701 12.7637 17.4604 13.0215 17.4678 13.2791C17.4678 13.9258 17.4678 14.5731 17.4638 15.2199C17.4638 15.3391 17.4976 15.3695 17.6146 15.3689C18.5979 15.3643 19.5811 15.3689 20.565 15.3632C20.7106 15.3632 20.7416 15.3987 20.7181 15.5392C20.5434 16.5964 20.3731 17.6543 20.2072 18.7126C20.1906 18.817 20.1378 18.8307 20.0478 18.8307C19.2452 18.8279 18.4385 18.8307 17.6335 18.825C17.4913 18.825 17.4615 18.864 17.4615 18.9999C17.4649 21.7928 17.4649 24.5855 17.4615 27.3781C17.4615 27.4583 17.485 27.5501 17.3617 27.5701C16.9197 27.6275 16.4788 27.6882 16.0333 27.7135C15.3829 27.7504 14.7304 27.7283 14.084 27.6475C13.8546 27.6194 13.6282 27.5787 13.4005 27.5438C13.3971 27.4755 13.3914 27.4073 13.3914 27.3397C13.3914 24.5735 13.3902 21.8071 13.3879 19.0406C13.3879 18.7981 13.4097 18.8296 13.1781 18.8296C12.2739 18.8296 11.3692 18.8296 10.4645 18.8296C10.3401 18.8296 10.2925 18.8078 10.2925 18.6696C10.2982 17.6227 10.2982 16.576 10.2925 15.5295C10.2925 15.3999 10.3246 15.3603 10.4582 15.3609C11.3755 15.3666 12.2883 15.3609 13.2033 15.3672C13.3438 15.3672 13.3902 15.3351 13.3897 15.1855C13.3833 14.2601 13.3793 13.3342 13.3897 12.4088C13.4005 11.5723 13.5834 10.7725 13.9876 10.0346C14.5036 9.09604 15.2926 8.482 16.2919 8.12767C16.9742 7.88515 17.6822 7.8066 18.4023 7.8238C19.1867 7.84215 19.9635 7.94134 20.7404 8.03766C20.8964 8.05715 20.9325 8.11621 20.9313 8.26699C20.9279 9.19733 20.929 10.1277 20.9348 11.058Z" fill="#FEFFFF"/>
</g>
</svg>
