<svg width="19" height="23" viewBox="0 0 19 23" fill="none" xmlns="http://www.w3.org/2000/svg">
<path d="M12.4434 17.1533C12.443 17.1533 12.4427 17.1533 12.4423 17.1532C12.3463 17.1474 12.2557 17.1066 12.1878 17.0386C12.125 16.9758 12.0854 16.8937 12.0751 16.8057C12.0774 16.7714 12.0853 16.7376 12.0986 16.7059C12.1146 16.6675 12.1381 16.6327 12.1675 16.6036C12.197 16.5744 12.232 16.5514 12.2704 16.5358C12.3087 16.5203 12.3499 16.5125 12.3916 16.513L12.4169 16.5132L12.4422 16.5118L17.6556 16.2158C17.8116 16.2202 17.9602 16.284 18.0708 16.3946C18.1853 16.5091 18.2498 16.6646 18.2498 16.8268C18.2498 16.9889 18.1854 17.1443 18.0708 17.2589C17.96 17.3697 17.8111 17.4336 17.655 17.4378L12.4434 17.1533Z" stroke="#B0B0B0" stroke-width="1.5"/>
<mask id="path-2-inside-1_48_15" fill="white">
<path d="M8.14431 22.02C8.47518 21.839 8.7367 21.5535 8.88786 21.2079C8.9907 20.8977 9.07094 20.5803 9.12803 20.2585C9.29627 19.1226 9.37279 17.975 9.35682 16.8269C9.36876 15.7214 9.29995 14.6165 9.15093 13.5211C9.08467 13.111 8.97734 12.7086 8.83061 12.32C8.68945 12.0542 8.47862 11.8317 8.22069 11.6766C7.96276 11.5214 7.66749 11.4393 7.36649 11.4392H7.30931C6.88173 11.4997 6.46541 11.623 6.07391 11.8053C4.12892 12.6989 2.34062 13.9001 0.777768 15.3627C0.616585 15.5184 0.463892 15.6825 0.320261 15.8545C0.113096 16.1321 0.00076131 16.4691 -5.72038e-05 16.8154C0.0032032 17.1826 0.123393 17.5392 0.343091 17.8335L0.789218 18.291C2.39072 19.7762 4.22161 20.993 6.21117 21.8942C6.57746 22.0463 6.96197 22.1502 7.35504 22.2031C7.64438 22.2012 7.92964 22.1347 8.19004 22.0086"/>
</mask>
<path d="M8.88786 21.2079L10.2621 21.8091L10.2899 21.7456L10.3117 21.6799L8.88786 21.2079ZM9.12803 20.2585L10.605 20.5205L10.6087 20.4994L10.6118 20.4783L9.12803 20.2585ZM9.35682 16.8269L7.8569 16.8107L7.8567 16.8292L7.85696 16.8477L9.35682 16.8269ZM9.15093 13.5211L10.6372 13.3189L10.6347 13.3003L10.6317 13.2818L9.15093 13.5211ZM8.83061 12.32L10.2339 11.7902L10.2002 11.7009L10.1554 11.6166L8.83061 12.32ZM7.36649 11.4392L7.36718 9.93921H7.36649V11.4392ZM7.30931 11.4392V9.93921H7.20378L7.0993 9.95398L7.30931 11.4392ZM6.07391 11.8053L6.70018 13.1683L6.7069 13.1652L6.07391 11.8053ZM0.777768 15.3627L-0.247174 14.2675L-0.255798 14.2755L-0.264295 14.2837L0.777768 15.3627ZM0.320261 15.8545L-0.831092 14.8931L-0.857355 14.9245L-0.881863 14.9574L0.320261 15.8545ZM-5.72205e-05 16.8154L-1.50005 16.8119L-1.50007 16.8203L-1.5 16.8287L-5.72205e-05 16.8154ZM0.343091 17.8335L-0.858837 18.7309L-0.799769 18.81L-0.730842 18.8807L0.343091 17.8335ZM0.789218 18.291L-0.284715 19.3382L-0.258394 19.3652L-0.230751 19.3908L0.789218 18.291ZM6.21117 21.8942L5.59221 23.2606L5.61393 23.2704L5.63596 23.2796L6.21117 21.8942ZM7.35504 22.2031L7.15483 23.6897L7.25936 23.7038L7.36482 23.7031L7.35504 22.2031ZM8.8642 23.336C9.48614 22.9958 9.97786 22.4589 10.2621 21.8091L7.51361 20.6067C7.49554 20.648 7.46423 20.6823 7.42443 20.7041L8.8642 23.336ZM10.3117 21.6799C10.4373 21.3008 10.5353 20.9134 10.605 20.5205L7.65109 19.9965C7.60659 20.2473 7.54409 20.4945 7.46404 20.736L10.3117 21.6799ZM10.6118 20.4783C10.7919 19.2628 10.8738 18.0347 10.8567 16.806L7.85696 16.8477C7.87181 17.9154 7.80066 18.9825 7.64422 20.0387L10.6118 20.4783ZM10.8567 16.8431C10.8695 15.6646 10.7961 14.4867 10.6372 13.3189L7.66462 13.7233C7.80379 14.7463 7.86805 15.7782 7.8569 16.8107L10.8567 16.8431ZM10.6317 13.2818C10.5494 12.7724 10.4161 12.2727 10.2339 11.7902L7.4273 12.8499C7.53856 13.1445 7.61992 13.4495 7.67013 13.7603L10.6317 13.2818ZM10.1554 11.6166C9.88663 11.1103 9.48513 10.6867 8.99391 10.3912L7.44747 12.9619C7.47212 12.9768 7.49228 12.998 7.50579 13.0235L10.1554 11.6166ZM8.99391 10.3912C8.50282 10.0958 7.94052 9.93947 7.36718 9.93921L7.3658 12.9392C7.39447 12.9392 7.4227 12.947 7.44747 12.9619L8.99391 10.3912ZM7.36649 9.93921H7.30931V12.9392H7.36649V9.93921ZM7.0993 9.95398C6.52531 10.0351 5.96646 10.2007 5.44092 10.4454L6.7069 13.1652C6.96436 13.0453 7.23814 12.9642 7.51932 12.9244L7.0993 9.95398ZM5.44764 10.4422C3.35625 11.4032 1.43333 12.6948 -0.247174 14.2675L1.80271 16.4579C3.24791 15.1054 4.90159 13.9947 6.70017 13.1683L5.44764 10.4422ZM-0.264295 14.2837C-0.464058 14.4767 -0.653224 14.6801 -0.831092 14.8931L1.47161 16.816C1.58101 16.685 1.69723 16.56 1.81983 16.4416L-0.264295 14.2837ZM-0.881863 14.9574C-1.28166 15.4931 -1.49847 16.1433 -1.50005 16.8119L1.49994 16.819C1.5 16.7948 1.50785 16.7712 1.52238 16.7517L-0.881863 14.9574ZM-1.5 16.8287C-1.49391 17.5148 -1.26936 18.1811 -0.858837 18.7309L1.54502 16.9361C1.51615 16.8974 1.50031 16.8505 1.49988 16.8021L-1.5 16.8287ZM-0.730842 18.8807L-0.284715 19.3382L1.86315 17.2438L1.41702 16.7863L-0.730842 18.8807ZM-0.230751 19.3908C1.48919 20.9859 3.4555 22.2926 5.59221 23.2606L6.83012 20.5279C4.98773 19.6933 3.29225 18.5665 1.80919 17.1912L-0.230751 19.3908ZM5.63596 23.2796C6.12229 23.4815 6.63285 23.6194 7.15483 23.6897L7.55525 20.7165C7.2911 20.6809 7.03264 20.6111 6.78637 20.5089L5.63596 23.2796ZM7.36482 23.7031C7.87755 23.6997 8.38284 23.5819 8.84395 23.3586L7.53614 20.6586C7.47643 20.6875 7.41122 20.7027 7.34526 20.7031L7.36482 23.7031Z" fill="#B0B0B0" mask="url(#path-2-inside-1_48_15)"/>
<path d="M6.55662 5.04982C6.55697 5.04984 6.55731 5.04986 6.55766 5.04988C6.65367 5.05574 6.74426 5.09654 6.81223 5.16452C6.87505 5.22733 6.91464 5.30944 6.92489 5.39741C6.92259 5.43176 6.91466 5.46549 6.90141 5.49725C6.88538 5.53566 6.86194 5.57041 6.83253 5.5995C6.80303 5.62868 6.76804 5.65173 6.72958 5.6673C6.69126 5.68281 6.65006 5.69062 6.60841 5.69017L6.5831 5.6899L6.55784 5.69134L1.34438 5.98731C1.1884 5.98296 1.03977 5.91911 0.929226 5.80857C0.814656 5.694 0.750244 5.53851 0.750244 5.37634C0.750244 5.2142 0.814627 5.05878 0.929226 4.94418C1.03999 4.83341 1.18891 4.76954 1.34504 4.76535L6.55662 5.04982Z" stroke="#B0B0B0" stroke-width="1.5"/>
<mask id="path-5-inside-2_48_15" fill="white">
<path d="M10.8557 0.183089C10.5248 0.364087 10.2633 0.649671 10.1121 0.995194C10.0093 1.30546 9.92906 1.62278 9.87197 1.94463C9.70373 3.08051 9.62721 4.22809 9.64318 5.37625C9.63124 6.48172 9.70005 7.58661 9.84907 8.68206C9.91533 9.09213 10.0227 9.4945 10.1694 9.88311C10.3105 10.149 10.5214 10.3714 10.7793 10.5265C11.0372 10.6817 11.3325 10.7638 11.6335 10.7639H11.6907C12.1183 10.7035 12.5346 10.5801 12.9261 10.3979C14.8711 9.5042 16.6594 8.30301 18.2222 6.84044C18.3834 6.68476 18.5361 6.52058 18.6797 6.34858C18.8869 6.071 18.9992 5.73406 19.0001 5.3877C18.9968 5.0205 18.8766 4.66388 18.6569 4.36963L18.2108 3.91213C16.6093 2.42693 14.7784 1.21017 12.7888 0.308898C12.4225 0.156808 12.038 0.0529667 11.645 2.99679e-05C11.3556 0.00191712 11.0704 0.0684014 10.81 0.194539"/>
</mask>
<path d="M10.1121 0.995194L8.73789 0.393994L8.71012 0.457479L8.68832 0.523255L10.1121 0.995194ZM9.87197 1.94463L8.39503 1.68264L8.39129 1.7037L8.38816 1.72485L9.87197 1.94463ZM9.64318 5.37625L11.1431 5.39245L11.1433 5.37391L11.143 5.35538L9.64318 5.37625ZM9.84907 8.68206L8.36276 8.88425L8.36529 8.90281L8.36827 8.92131L9.84907 8.68206ZM10.1694 9.88311L8.76608 10.413L8.7998 10.5023L8.84456 10.5866L10.1694 9.88311ZM11.6335 10.7639L11.6328 12.2639H11.6335V10.7639ZM11.6907 10.7639V12.2639H11.7962L11.9007 12.2491L11.6907 10.7639ZM12.9261 10.3979L12.2998 9.03484L12.2931 9.03797L12.9261 10.3979ZM18.2222 6.84044L19.2472 7.93565L19.2558 7.92758L19.2643 7.91938L18.2222 6.84044ZM18.6797 6.34858L19.8311 7.31003L19.8574 7.27858L19.8819 7.24574L18.6797 6.34858ZM19.0001 5.3877L20.5001 5.39124L20.5001 5.38281L20.5 5.37438L19.0001 5.3877ZM18.6569 4.36963L19.8588 3.47221L19.7998 3.3931L19.7308 3.32241L18.6569 4.36963ZM18.2108 3.91213L19.2847 2.86491L19.2584 2.83792L19.2308 2.81228L18.2108 3.91213ZM12.7888 0.308898L13.4078 -1.05745L13.3861 -1.06729L13.364 -1.07643L12.7888 0.308898ZM11.645 2.95639e-05L11.8452 -1.48655L11.7406 -1.50063L11.6352 -1.49994L11.645 2.95639e-05ZM10.1358 -1.13288C9.51386 -0.792652 9.02214 -0.255752 8.73789 0.393994L11.4864 1.59639C11.5045 1.55509 11.5358 1.52083 11.5756 1.49905L10.1358 -1.13288ZM8.68832 0.523255C8.56269 0.902277 8.46472 1.28977 8.39503 1.68264L11.3489 2.20662C11.3934 1.9558 11.4559 1.70865 11.536 1.46713L8.68832 0.523255ZM8.38816 1.72485C8.20812 2.94037 8.12623 4.16843 8.14333 5.39711L11.143 5.35538C11.1282 4.28775 11.1993 3.22064 11.3558 2.1644L8.38816 1.72485ZM8.14327 5.36005C8.13054 6.53855 8.2039 7.71642 8.36276 8.88425L11.3354 8.47987C11.1962 7.45679 11.1319 6.4249 11.1431 5.39245L8.14327 5.36005ZM8.36827 8.92131C8.45057 9.43069 8.58389 9.9304 8.76608 10.413L11.5727 9.35327C11.4614 9.0586 11.3801 8.75358 11.3299 8.44281L8.36827 8.92131ZM8.84456 10.5866C9.11337 11.0928 9.51487 11.5164 10.0061 11.8119L11.5525 9.24119C11.5279 9.22636 11.5077 9.20511 11.4942 9.17966L8.84456 10.5866ZM10.0061 11.8119C10.4972 12.1073 11.0595 12.2637 11.6328 12.2639L11.6342 9.26392C11.6055 9.2639 11.5773 9.25609 11.5525 9.24119L10.0061 11.8119ZM11.6335 12.2639H11.6907V9.26392H11.6335V12.2639ZM11.9007 12.2491C12.4747 12.168 13.0335 12.0024 13.5591 11.7578L12.2931 9.03797C12.0356 9.15781 11.7619 9.23893 11.4807 9.27869L11.9007 12.2491ZM13.5524 11.7609C15.6438 10.7999 17.5667 9.50833 19.2472 7.93565L17.1973 5.74522C15.7521 7.09769 14.0984 8.20846 12.2998 9.03486L13.5524 11.7609ZM19.2643 7.91938C19.4641 7.72644 19.6532 7.52303 19.8311 7.31003L17.5284 5.38713C17.419 5.51813 17.3028 5.64309 17.1802 5.7615L19.2643 7.91938ZM19.8819 7.24574C20.2817 6.71005 20.4985 6.05981 20.5001 5.39124L17.5001 5.38415C17.5 5.40832 17.4922 5.43194 17.4776 5.45142L19.8819 7.24574ZM20.5 5.37438C20.4939 4.68835 20.2694 4.02203 19.8588 3.47221L17.455 5.26706C17.4839 5.30573 17.4997 5.35265 17.5001 5.40102L20.5 5.37438ZM19.7308 3.32241L19.2847 2.86491L17.1368 4.95935L17.583 5.41685L19.7308 3.32241ZM19.2308 2.81228C17.5108 1.21725 15.5445 -0.0895128 13.4078 -1.05745L12.1699 1.67524C14.0123 2.50985 15.7077 3.63662 17.1908 5.01197L19.2308 2.81228ZM13.364 -1.07643C12.8777 -1.27836 12.3671 -1.41625 11.8452 -1.48655L11.4448 1.48661C11.7089 1.52218 11.9674 1.59198 12.2136 1.69423L13.364 -1.07643ZM11.6352 -1.49994C11.1224 -1.49659 10.6172 -1.37878 10.1561 -1.15543L11.4639 1.54451C11.5236 1.51558 11.5888 1.50043 11.6547 1.5L11.6352 -1.49994Z" fill="#B0B0B0" mask="url(#path-5-inside-2_48_15)"/>
</svg>
