<svg width="30" height="30" viewBox="0 0 30 30" fill="none" xmlns="http://www.w3.org/2000/svg">
<mask id="mask0_1_8" style="mask-type:alpha" maskUnits="userSpaceOnUse" x="0" y="0" width="30" height="30">
<rect width="30" height="30" fill="#C4C4C4"/>
</mask>
<g mask="url(#mask0_1_8)">
<path d="M4.96387 10.0155C5.98751 7.94911 7.51852 6.36074 9.5161 5.22173C11.5388 4.07242 13.8676 3.57706 16.183 3.80357C18.4984 4.03009 20.687 4.9674 22.4487 6.48694C22.6584 6.6686 22.6724 6.76166 22.464 6.96435C21.5079 7.89684 20.5639 8.84719 19.6251 9.79881C19.4823 9.9435 19.3975 9.95433 19.2426 9.81474C16.7721 7.58388 12.6775 7.76108 10.2287 10.4477C9.57502 11.1744 9.07043 12.0225 8.74358 12.9437L4.96387 10.0155Z" fill="#E74233"/>
<path d="M22.5857 23.704C21.3086 24.9117 19.7238 25.7445 18.0048 26.1114C14.0447 26.9879 10.4836 26.1873 7.42417 23.4561C6.39676 22.5478 5.5647 21.4401 4.97852 20.2003L8.74803 17.2766C9.26176 18.6789 10.0712 19.8701 11.3173 20.7064C13.7356 22.3285 16.231 22.3247 18.7614 20.9613C18.8251 20.9263 18.8889 20.888 18.9526 20.8511L20.1235 21.767L22.5857 23.704Z" fill="#34A752"/>
<path d="M22.5858 23.7041L20.1235 21.7671L18.9514 20.8486C19.7736 20.2399 20.4467 19.5063 20.8476 18.554C20.96 18.2702 21.0557 17.9802 21.1344 17.6853C21.1982 17.4596 21.1261 17.4341 20.9356 17.4354C20.1286 17.4412 19.3217 17.4354 18.5135 17.4354C17.4841 17.4354 16.4541 17.4278 15.4247 17.4405C15.1697 17.4437 15.0748 17.3882 15.078 17.1116C15.0926 15.8585 15.0894 14.606 15.078 13.351C15.078 13.1177 15.1168 13.0177 15.3877 13.0183C18.7523 13.0285 22.1175 13.0285 25.4833 13.0183C25.7542 13.0183 25.802 13.119 25.8383 13.3638C26.1985 15.9178 25.9422 18.3838 24.8121 20.7263C24.2665 21.864 23.5457 22.8742 22.5858 23.7041Z" fill="#5179BB"/>
<path d="M8.74561 17.2767L4.97609 20.2004C4.37057 19.1054 4.02384 17.9224 3.86003 16.6948C3.56811 14.4977 3.84983 12.3739 4.79189 10.3534C4.84543 10.2393 4.90662 10.129 4.96462 10.0168L8.7437 12.9437C8.28757 14.3521 8.28824 15.8687 8.74561 17.2767Z" fill="#F6BA19"/>
</g>
</svg>
