<svg width="14" height="14" viewBox="0 0 14 14" fill="none" xmlns="http://www.w3.org/2000/svg">
    <path d="M13.5 6.99999C13.5 8.28557 13.1188 9.54229 12.4046 10.6112C11.6903 11.6801 10.6751 12.5133 9.48741 13.0052C8.2997 13.4972 6.99278 13.6259 5.7319 13.3751C4.47102 13.1243 3.31283 12.5052 2.40379 11.5962C1.49476 10.6872 0.875708 9.52898 0.624904 8.2681C0.374099 7.00722 0.502805 5.70026 0.994772 4.51255C1.48674 3.32483 2.31987 2.30968 3.38879 1.59545C4.45771 0.881218 5.71443 0.5 7.00001 0.5C8.72391 0.5 10.3772 1.18483 11.5962 2.40382C12.8152 3.62281 13.5 5.27609 13.5 6.99999Z" fill="white" stroke="#FFBE78"/>
    <path d="M6.33609 8.90921V6.52421C6.32864 6.45797 6.3359 6.39099 6.35742 6.3276C6.37894 6.26421 6.41424 6.20583 6.461 6.15628C6.50775 6.10673 6.56493 6.06711 6.62882 6.03999C6.69271 6.01286 6.76189 5.99885 6.83185 5.99885C6.9018 5.99885 6.97095 6.01286 7.03484 6.03999C7.09873 6.06711 7.15594 6.10673 7.2027 6.15628C7.24946 6.20583 7.28472 6.26421 7.30624 6.3276C7.32776 6.39099 7.33506 6.45797 7.32761 6.52421V8.90921C7.31451 9.02573 7.25663 9.13351 7.16511 9.21184C7.07359 9.29017 6.95489 9.3335 6.83185 9.3335C6.7088 9.3335 6.59007 9.29017 6.49855 9.21184C6.40703 9.13351 6.34918 9.02573 6.33609 8.90921ZM6.33609 4.80833C6.33609 4.71442 6.3653 4.62262 6.42009 4.54453C6.47487 4.46645 6.55276 4.40559 6.64386 4.36965C6.73497 4.33371 6.83521 4.32429 6.93193 4.34262C7.02865 4.36094 7.11751 4.40617 7.18724 4.47257C7.25697 4.53898 7.30443 4.62358 7.32367 4.71569C7.34291 4.8078 7.33305 4.9033 7.29531 4.99006C7.25757 5.07683 7.19368 5.15097 7.11168 5.20314C7.02969 5.25532 6.9333 5.28317 6.83468 5.28317C6.70291 5.28177 6.57694 5.23129 6.48375 5.14254C6.39056 5.0538 6.33756 4.93383 6.33609 4.80833Z" fill="#FFBE78"/>
</svg>
