<svg width="24" height="24" viewBox="0 0 24 24" fill="none" xmlns="http://www.w3.org/2000/svg">
    <mask id="mask0_2391_142" style="mask-type:alpha" maskUnits="userSpaceOnUse" x="0" y="0" width="24" height="24">
        <rect width="24" height="24" fill="#D9D9D9"/>
    </mask>
    <g mask="url(#mask0_2391_142)">
        <path d="M14.8637 17.4337C14.8664 17.4077 14.8737 17.3806 14.8866 17.3529C14.9038 17.3163 14.9318 17.277 14.9737 17.2401C15.0159 17.203 15.0705 17.1697 15.1364 17.1459C15.2021 17.1222 15.2751 17.1096 15.3504 17.1103L15.3729 17.1105L15.3954 17.1094L21.44 16.8038C21.6789 16.8076 21.8928 16.8943 22.0394 17.0248C22.1865 17.1558 22.2498 17.3137 22.2498 17.4571C22.2498 17.6004 22.1866 17.7582 22.0394 17.8892C21.8926 18.02 21.6784 18.1067 21.4394 18.1103L15.3965 17.8166C15.3962 17.8166 15.3958 17.8166 15.3955 17.8166C15.2319 17.8078 15.0914 17.7462 14.9969 17.6621C14.9142 17.5884 14.8749 17.5065 14.8637 17.4337Z" stroke="#8A8A8A" stroke-width="1.5"/>
        <mask id="path-3-inside-1_2391_142" fill="white">
            <path d="M10.4303 22.8113C10.8134 22.6247 11.1162 22.3303 11.2913 21.9741C11.4104 21.6542 11.5033 21.3271 11.5694 20.9952C11.7642 19.8242 11.8528 18.6411 11.8343 17.4573C11.8481 16.3176 11.7684 15.1785 11.5959 14.0492C11.5192 13.6264 11.3949 13.2116 11.225 12.8109C11.0615 12.5368 10.8174 12.3075 10.5188 12.1476C10.2201 11.9876 9.87822 11.903 9.52969 11.9028H9.46348C8.96839 11.9652 8.48634 12.0923 8.03302 12.2802C5.78094 13.2016 3.71028 14.4399 1.90067 15.9478C1.71404 16.1083 1.53723 16.2776 1.37092 16.4549C1.13105 16.7411 1.00098 17.0885 1.00003 17.4455C1.00381 17.8241 1.14297 18.1918 1.39736 18.4951L1.91393 18.9668C3.76829 20.498 5.88826 21.7524 8.19195 22.6816C8.61608 22.8384 9.06131 22.9455 9.51643 23.0001C9.85146 22.9981 10.1818 22.9296 10.4833 22.7995"/>
        </mask>
        <path d="M11.2913 21.9741L12.6375 22.6355L12.6708 22.568L12.697 22.4974L11.2913 21.9741ZM11.5694 20.9952L13.0405 21.2883L13.0451 21.2649L13.049 21.2414L11.5694 20.9952ZM11.8343 17.4573L10.3344 17.4392L10.3341 17.46L10.3345 17.4808L11.8343 17.4573ZM11.5959 14.0492L13.0787 13.8226L13.0755 13.8019L13.0718 13.7813L11.5959 14.0492ZM11.225 12.8109L12.606 12.2253L12.5659 12.1308L12.5133 12.0426L11.225 12.8109ZM9.52969 11.9028L9.5303 10.4028H9.52969V11.9028ZM9.46348 11.9028V10.4028H9.36943L9.27611 10.4146L9.46348 11.9028ZM8.03302 12.2802L8.60099 13.6685L8.60732 13.6659L8.03302 12.2802ZM1.90067 15.9478L0.940445 14.7954L0.931483 14.8029L0.922639 14.8105L1.90067 15.9478ZM1.37092 16.4549L0.276818 15.4288L0.248209 15.4593L0.221344 15.4913L1.37092 16.4549ZM1.00003 17.4455L-0.499964 17.4416L-0.499989 17.451L-0.499895 17.4605L1.00003 17.4455ZM1.39736 18.4951L0.247995 19.459L0.312169 19.5355L0.385922 19.6028L1.39736 18.4951ZM1.91393 18.9668L0.902489 20.0745L0.930063 20.0997L0.958856 20.1235L1.91393 18.9668ZM8.19195 22.6816L7.63086 24.0727L7.65122 24.0809L7.67181 24.0886L8.19195 22.6816ZM9.51643 23.0001L9.33784 24.4894L9.43116 24.5006L9.52514 24.5L9.51643 23.0001ZM11.0872 24.1599C11.7464 23.8388 12.3043 23.3139 12.6375 22.6355L9.945 21.3126C9.92825 21.3467 9.88051 21.4107 9.77349 21.4628L11.0872 24.1599ZM12.697 22.4974C12.8438 22.1031 12.9586 21.699 13.0405 21.2883L10.0983 20.7022C10.0479 20.9551 9.97691 21.2053 9.88552 21.4508L12.697 22.4974ZM13.049 21.2414C13.2586 19.9815 13.354 18.7082 13.3341 17.4339L10.3345 17.4808C10.3515 18.5739 10.2697 19.6668 10.0897 20.7491L13.049 21.2414ZM13.3342 17.4755C13.349 16.2537 13.2636 15.0328 13.0787 13.8226L10.1131 14.2757C10.2733 15.3243 10.3472 16.3815 10.3344 17.4392L13.3342 17.4755ZM13.0718 13.7813C12.975 13.248 12.8185 12.7267 12.606 12.2253L9.84402 13.3965C9.97121 13.6965 10.0633 14.0048 10.12 14.317L13.0718 13.7813ZM12.5133 12.0426C12.2017 11.5201 11.7503 11.1056 11.227 10.8253L9.81053 13.4698C9.88451 13.5095 9.92139 13.5536 9.93667 13.5792L12.5133 12.0426ZM11.227 10.8253C10.7044 10.5454 10.1185 10.4031 9.5303 10.4028L9.52908 13.4028C9.63796 13.4029 9.73584 13.4298 9.81053 13.4698L11.227 10.8253ZM9.52969 10.4028H9.46348V13.4028H9.52969V10.4028ZM9.27611 10.4146C8.6503 10.4934 8.03795 10.6545 7.45872 10.8945L8.60732 13.6659C8.93473 13.5302 9.28647 13.437 9.65085 13.3911L9.27611 10.4146ZM7.46505 10.8919C5.07566 11.8694 2.87184 13.1861 0.940445 14.7954L2.86089 17.1002C4.54872 15.6938 6.48621 14.5337 8.60099 13.6685L7.46505 10.8919ZM0.922639 14.8105C0.695777 15.0056 0.480184 15.2119 0.276818 15.4288L2.46503 17.481C2.59428 17.3432 2.73229 17.211 2.8787 17.0851L0.922639 14.8105ZM0.221344 15.4913C-0.232784 16.0331 -0.498039 16.7164 -0.499964 17.4416L2.50003 17.4495C2.50002 17.4528 2.49929 17.4532 2.50065 17.4496C2.50209 17.4457 2.50696 17.4346 2.5205 17.4185L0.221344 15.4913ZM-0.499895 17.4605C-0.492489 18.2032 -0.218576 18.9026 0.247995 19.459L2.54672 17.5313C2.50452 17.481 2.5001 17.4451 2.49996 17.4306L-0.499895 17.4605ZM0.385922 19.6028L0.902489 20.0745L2.92536 17.8591L2.4088 17.3874L0.385922 19.6028ZM0.958856 20.1235C2.93562 21.7557 5.18933 23.088 7.63086 24.0727L8.75305 21.2905C6.5872 20.4169 4.60096 19.2403 2.869 17.8102L0.958856 20.1235ZM7.67181 24.0886C8.20763 24.2866 8.76759 24.421 9.33784 24.4894L9.69502 21.5107C9.35502 21.47 9.02453 21.3902 8.71209 21.2747L7.67181 24.0886ZM9.52514 24.5C10.0575 24.4969 10.5872 24.3883 11.0773 24.1769L9.88924 21.4222C9.77627 21.4709 9.6454 21.4993 9.50772 21.5001L9.52514 24.5Z" fill="#8A8A8A" mask="url(#path-3-inside-1_2391_142)"/>
        <path d="M9.13626 6.56633C9.13358 6.5923 9.12634 6.61938 9.11336 6.64707C9.09619 6.68372 9.0682 6.72297 9.0263 6.75989C8.98413 6.79704 8.92947 6.83032 8.86363 6.85405C8.79788 6.87775 8.72488 6.89042 8.64962 6.88969L8.62709 6.88948L8.60458 6.89062L2.56001 7.19616C2.32112 7.19236 2.10722 7.10572 1.96058 6.97515C1.81345 6.84415 1.75024 6.68633 1.75024 6.54292C1.75024 6.39956 1.81342 6.2418 1.96058 6.11077C2.10741 5.98003 2.32159 5.89333 2.56064 5.88968L8.6035 6.18337C8.60385 6.18339 8.60419 6.1834 8.60454 6.18342C8.76812 6.19216 8.90862 6.2538 9.00311 6.33793C9.0858 6.41156 9.12512 6.49348 9.13626 6.56633Z" stroke="#8A8A8A" stroke-width="1.5"/>
        <mask id="path-6-inside-2_2391_142" fill="white">
            <path d="M13.5697 1.18867C13.1866 1.37527 12.8838 1.6697 12.7087 2.02592C12.5896 2.3458 12.4967 2.67295 12.4306 3.00476C12.2358 4.17582 12.1472 5.35894 12.1657 6.54265C12.1519 7.68236 12.2316 8.82146 12.4041 9.95084C12.4808 10.3736 12.6051 10.7884 12.775 11.1891C12.9385 11.4632 13.1826 11.6925 13.4812 11.8524C13.7799 12.0124 14.1218 12.097 14.4703 12.0972H14.5365C15.0316 12.0348 15.5137 11.9077 15.967 11.7198C18.2191 10.7984 20.2897 9.56005 22.0993 8.05219C22.286 7.89169 22.4628 7.72243 22.6291 7.5451C22.869 7.25892 22.999 6.91155 23 6.55446C22.9962 6.17589 22.857 5.80822 22.6026 5.50486L22.0861 5.03319C20.2317 3.502 18.1117 2.24755 15.808 1.31837C15.3839 1.16157 14.9387 1.05452 14.4836 0.999941C14.1485 1.00189 13.8182 1.07043 13.5167 1.20047"/>
        </mask>
        <path d="M12.7087 2.02592L11.3625 1.36445L11.3292 1.43204L11.303 1.50261L12.7087 2.02592ZM12.4306 3.00476L10.9595 2.71168L10.9549 2.73508L10.951 2.75862L12.4306 3.00476ZM12.1657 6.54265L13.6656 6.56084L13.6659 6.54003L13.6655 6.51922L12.1657 6.54265ZM12.4041 9.95084L10.9213 10.1774L10.9245 10.1981L10.9282 10.2187L12.4041 9.95084ZM12.775 11.1891L11.394 11.7747L11.4341 11.8692L11.4867 11.9574L12.775 11.1891ZM14.4703 12.0972L14.4697 13.5972H14.4703V12.0972ZM14.5365 12.0972V13.5972H14.6306L14.7239 13.5854L14.5365 12.0972ZM15.967 11.7198L15.399 10.3315L15.3927 10.3341L15.967 11.7198ZM22.0993 8.05219L23.0596 9.20456L23.0685 9.1971L23.0774 9.18949L22.0993 8.05219ZM22.6291 7.5451L23.7232 8.57122L23.7518 8.54072L23.7787 8.50867L22.6291 7.5451ZM23 6.55446L24.5 6.55844L24.5 6.54897L24.4999 6.5395L23 6.55446ZM22.6026 5.50486L23.752 4.54104L23.6878 4.46451L23.6141 4.39717L22.6026 5.50486ZM22.0861 5.03319L23.0975 3.92549L23.0699 3.90031L23.0411 3.87654L22.0861 5.03319ZM15.808 1.31837L16.3691 -0.0727307L16.3488 -0.080943L16.3282 -0.0885559L15.808 1.31837ZM14.4836 0.999941L14.6622 -0.489389L14.5688 -0.50058L14.4749 -0.500034L14.4836 0.999941ZM12.9128 -0.159871C12.2536 0.161207 11.6957 0.686103 11.3625 1.36445L14.055 2.68739C14.0718 2.6533 14.1195 2.58934 14.2265 2.53721L12.9128 -0.159871ZM11.303 1.50261C11.1562 1.89686 11.0414 2.30098 10.9595 2.71168L13.9017 3.29784C13.9521 3.04492 14.0231 2.79474 14.1145 2.54924L11.303 1.50261ZM10.951 2.75862C10.7414 4.01848 10.646 5.29182 10.6659 6.56609L13.6655 6.51922C13.6485 5.42605 13.7303 4.33315 13.9103 3.2509L10.951 2.75862ZM10.6658 6.52446C10.651 7.74626 10.7364 8.96722 10.9213 10.1774L13.8869 9.72429C13.7267 8.67571 13.6528 7.61846 13.6656 6.56084L10.6658 6.52446ZM10.9282 10.2187C11.025 10.752 11.1815 11.2733 11.394 11.7747L14.156 10.6035C14.0288 10.3035 13.9367 9.99519 13.88 9.68302L10.9282 10.2187ZM11.4867 11.9574C11.7983 12.4799 12.2497 12.8944 12.773 13.1747L14.1895 10.5302C14.1155 10.4905 14.0786 10.4464 14.0633 10.4208L11.4867 11.9574ZM12.773 13.1747C13.2956 13.4546 13.8815 13.5969 14.4697 13.5972L14.4709 10.5972C14.362 10.5971 14.2642 10.5702 14.1895 10.5302L12.773 13.1747ZM14.4703 13.5972H14.5365V10.5972H14.4703V13.5972ZM14.7239 13.5854C15.3497 13.5066 15.9621 13.3455 16.5413 13.1055L15.3927 10.3341C15.0653 10.4698 14.7135 10.563 14.3491 10.6089L14.7239 13.5854ZM16.5349 13.1081C18.9243 12.1306 21.1282 10.8139 23.0596 9.20456L21.1391 6.89981C19.4513 8.3062 17.5138 9.46631 15.399 10.3315L16.5349 13.1081ZM23.0774 9.18949C23.3042 8.9944 23.5198 8.78806 23.7232 8.57122L21.535 6.51897C21.4057 6.65679 21.2677 6.78898 21.1213 6.91488L23.0774 9.18949ZM23.7787 8.50867C24.2328 7.96687 24.498 7.28363 24.5 6.55844L21.5 6.55048C21.5 6.54723 21.5007 6.54678 21.4994 6.55041C21.4979 6.55426 21.493 6.56537 21.4795 6.58153L23.7787 8.50867ZM24.4999 6.5395C24.4925 5.79683 24.2186 5.09742 23.752 4.54104L21.4533 6.46869C21.4955 6.51902 21.4999 6.55494 21.5 6.56941L24.4999 6.5395ZM23.6141 4.39717L23.0975 3.92549L21.0746 6.14089L21.5912 6.61256L23.6141 4.39717ZM23.0411 3.87654C21.0644 2.24428 18.8107 0.912044 16.3691 -0.0727307L15.247 2.70948C17.4128 3.58306 19.399 4.75972 21.131 6.18984L23.0411 3.87654ZM16.3282 -0.0885559C15.7924 -0.28665 15.2324 -0.421009 14.6622 -0.489389L14.305 2.48927C14.645 2.53004 14.9755 2.6098 15.2879 2.7253L16.3282 -0.0885559ZM14.4749 -0.500034C13.9425 -0.496942 13.4128 -0.38825 12.9227 -0.176887L14.1108 2.57783C14.2237 2.52911 14.3546 2.50072 14.4923 2.49992L14.4749 -0.500034Z" fill="#8A8A8A" mask="url(#path-6-inside-2_2391_142)"/>
    </g>
</svg>