<svg width="24" height="24" viewBox="0 0 24 24" fill="none" xmlns="http://www.w3.org/2000/svg">
<path d="M5.80566 14.7335L9.14869 10.4112L12.9486 13.389L16.2136 9.18896" stroke="#8A8A8A" stroke-width="1.5" stroke-linecap="round" stroke-linejoin="round"/>
<path d="M20.0247 5.10016C21.2063 5.10016 22.1642 4.14504 22.1642 2.96683C22.1642 1.78862 21.2063 0.833496 20.0247 0.833496C18.843 0.833496 17.8851 1.78862 17.8851 2.96683C17.8851 4.14504 18.843 5.10016 20.0247 5.10016Z" stroke="#8A8A8A" stroke-width="1.5" stroke-linecap="round" stroke-linejoin="round"/>
<path d="M14.3638 1.76685H6.27368C2.93066 1.76685 0.835693 4.14465 0.835693 7.48909V16.4669C0.835693 19.8002 2.87494 22.1668 6.27368 22.1668H15.857C19.2 22.1668 21.2839 19.8113 21.2839 16.4669V8.68911" stroke="#8A8A8A" stroke-width="1.5" stroke-linecap="round" stroke-linejoin="round"/>
</svg>
