<svg width="24" height="24" viewBox="0 0 24 24" fill="none" xmlns="http://www.w3.org/2000/svg">
    <mask id="mask0_2387_74" style="mask-type:alpha" maskUnits="userSpaceOnUse" x="0" y="0" width="24" height="24">
        <rect width="24" height="24" fill="#D9D9D9"/>
    </mask>
    <g mask="url(#mask0_2387_74)">
        <path d="M16.2606 2H19.5306C20.1822 2.00528 20.8053 2.26782 21.2642 2.73047C21.7231 3.19311 21.9806 3.8184 21.9806 4.47003V7.77002C21.9806 8.42165 21.7231 9.04688 21.2642 9.50952C20.8053 9.97217 20.1822 10.2347 19.5306 10.24H16.2606C15.6099 10.2347 14.9878 9.97184 14.5305 9.50891C14.0732 9.04598 13.8179 8.42073 13.8206 7.77002V4.51001C13.8139 4.18445 13.872 3.86081 13.9914 3.55786C14.1108 3.25492 14.2892 2.97872 14.5162 2.74524C14.7431 2.51175 15.0142 2.32562 15.3137 2.19769C15.6131 2.06977 15.935 2.00258 16.2606 2Z" stroke="#8A8A8A" stroke-width="1.5" stroke-linecap="round" stroke-linejoin="round"/>
        <path d="M4.45052 2H7.71053C8.03358 2.00131 8.35321 2.06626 8.65117 2.1911C8.94913 2.31594 9.21957 2.49824 9.44707 2.7276C9.67458 2.95696 9.85469 3.22887 9.9771 3.52783C10.0995 3.8268 10.1618 4.14698 10.1605 4.47003V7.77002C10.1618 8.09307 10.0995 8.41319 9.9771 8.71216C9.85469 9.01112 9.67458 9.28309 9.44707 9.51245C9.21957 9.74181 8.94913 9.92411 8.65117 10.049C8.35321 10.1738 8.03358 10.2387 7.71053 10.24H4.45052C4.12747 10.2387 3.80784 10.1738 3.50988 10.049C3.21192 9.92411 2.94145 9.74181 2.71395 9.51245C2.48644 9.28309 2.30636 9.01112 2.18395 8.71216C2.06154 8.41319 1.99919 8.09307 2.00051 7.77002V4.51001C1.99387 4.18361 2.05227 3.85914 2.17229 3.55554C2.29232 3.25194 2.47157 2.97532 2.69961 2.7417C2.92764 2.50808 3.1999 2.32216 3.50051 2.19482C3.80111 2.06749 4.12406 2.00126 4.45052 2V2Z" stroke="#8A8A8A" stroke-width="1.5" stroke-linecap="round" stroke-linejoin="round"/>
        <path d="M4.45058 13.77H7.71059C8.03364 13.7713 8.35328 13.8362 8.65124 13.9611C8.94919 14.0859 9.21963 14.2683 9.44713 14.4976C9.67464 14.727 9.85475 14.9989 9.97716 15.2979C10.0996 15.5968 10.1619 15.9169 10.1606 16.24V16.24V19.51C10.1632 19.8334 10.1018 20.1542 9.97985 20.4537C9.85791 20.7533 9.67786 21.0257 9.45009 21.2554C9.22233 21.485 8.95135 21.6673 8.65279 21.7916C8.35423 21.916 8.03402 21.98 7.71059 21.98H4.45058C4.12715 21.98 3.80691 21.916 3.50835 21.7916C3.20979 21.6673 2.93882 21.485 2.71105 21.2554C2.48328 21.0257 2.30324 20.7533 2.1813 20.4537C2.05935 20.1542 1.99793 19.8334 2.00057 19.51V16.22C1.99925 15.897 2.0616 15.5768 2.18401 15.2778C2.30642 14.9789 2.48651 14.707 2.71401 14.4776C2.94151 14.2482 3.21198 14.0659 3.50994 13.9411C3.8079 13.8163 4.12753 13.7513 4.45058 13.75V13.77Z" stroke="#8A8A8A" stroke-width="1.5" stroke-linecap="round" stroke-linejoin="round"/>
        <path d="M16.2604 13.77H19.5304C19.8534 13.7713 20.1731 13.8362 20.471 13.9611C20.769 14.0859 21.0395 14.2683 21.267 14.4976C21.4945 14.727 21.6746 14.9989 21.797 15.2979C21.9194 15.5968 21.9817 15.9169 21.9804 16.24V19.51C21.9817 19.8331 21.9194 20.1532 21.797 20.4521C21.6746 20.7511 21.4945 21.0231 21.267 21.2524C21.0395 21.4818 20.769 21.6641 20.471 21.7889C20.1731 21.9138 19.8534 21.9787 19.5304 21.98H16.2604C15.9378 21.9787 15.6187 21.9137 15.3212 21.7888C15.0238 21.6638 14.7541 21.4813 14.5274 21.2518C14.3007 21.0223 14.1215 20.7503 14.0002 20.4514C13.8789 20.1525 13.8178 19.8326 13.8204 19.51V16.22C13.8177 15.5693 14.073 14.944 14.5303 14.4811C14.9876 14.0181 15.6097 13.7553 16.2604 13.75V13.77Z" stroke="#8A8A8A" stroke-width="1.5" stroke-linecap="round" stroke-linejoin="round"/>
    </g>
</svg>