<svg width="26" height="24" viewBox="0 0 26 24" fill="none" xmlns="http://www.w3.org/2000/svg">
<path d="M24.8167 15.1858H19.8394C18.9516 15.1858 18.1002 14.8331 17.4725 14.2054C16.8447 13.5776 16.4921 12.7263 16.4921 11.8385C16.4921 10.9507 16.8447 10.0994 17.4725 9.47163C18.1002 8.8439 18.9516 8.49121 19.8394 8.49121H24.8167" stroke="#8A8A8A" stroke-width="1.5" stroke-linecap="round" stroke-linejoin="round"/>
<path d="M20.3495 11.7634H19.9637" stroke="#8A8A8A" stroke-width="1.5" stroke-linecap="round" stroke-linejoin="round"/>
<path d="M7.53281 1H18.2839C20.0166 1 21.6782 1.68831 22.9033 2.91345C24.1285 4.13859 24.8168 5.8002 24.8168 7.53281V16.4672C24.8168 18.1998 24.1285 19.8615 22.9033 21.0866C21.6782 22.3118 20.0166 23 18.2839 23H7.53281C5.8002 23 4.13855 22.3118 2.91342 21.0866C1.68828 19.8615 1 18.1998 1 16.4672V7.53281C1 5.8002 1.68828 4.13859 2.91342 2.91345C4.13855 1.68831 5.8002 1 7.53281 1V1Z" stroke="#8A8A8A" stroke-width="1.5" stroke-linecap="round" stroke-linejoin="round"/>
<path d="M6.63684 6.61182H13.4061" stroke="#8A8A8A" stroke-width="1.5" stroke-linecap="round" stroke-linejoin="round"/>
</svg>
