<svg width="27" height="31" viewBox="0 0 27 31" fill="none" xmlns="http://www.w3.org/2000/svg">
<path d="M1.00174 18.7946V18.4971C1.05582 17.6137 1.33578 16.7596 1.81421 16.0184C2.62429 15.1306 3.18525 14.0402 3.43915 12.8599C3.43915 11.9534 3.43915 11.0327 3.43915 10.112C3.84539 5.73533 8.13188 2.71838 12.3483 2.71838H12.4604C16.6628 2.71838 20.9633 5.73533 21.3836 10.112C21.4676 11.0185 21.3836 11.9534 21.4536 12.8599C21.6966 14.0454 22.2534 15.142 23.0646 16.0326C23.5718 16.7571 23.8678 17.611 23.9191 18.4971V18.7804C23.9702 19.9883 23.5702 21.1714 22.7984 22.0948C21.7842 23.1742 20.4134 23.8395 18.9462 23.9645C14.6347 24.4319 10.2861 24.4319 5.97463 23.9645C4.51676 23.82 3.15679 23.1575 2.13639 22.0948C1.37347 21.1711 0.970032 19.9977 1.00174 18.7946V18.7946Z" stroke="black" stroke-width="1.5" stroke-linecap="round" stroke-linejoin="round"/>
<path d="M9.18262 28.4261C9.52402 28.8596 9.94781 29.2195 10.429 29.4846C10.9102 29.7498 11.439 29.9148 11.9842 29.97C13.0423 30.0977 14.1088 29.8142 14.968 29.1768C15.2248 28.9762 15.4596 28.7483 15.6684 28.497" stroke="black" stroke-width="1.5" stroke-linecap="round" stroke-linejoin="round"/>
<circle cx="20.0765" cy="5.99548" r="5.24548" fill="#4AD66D" stroke="white" stroke-width="1.5"/>
</svg>
