<svg width="21" height="25" viewBox="0 0 21 25" fill="none" xmlns="http://www.w3.org/2000/svg">
<path d="M13.4148 18.8879L12.9954 19.3073L13.4148 18.8879C13.331 18.8042 13.2789 18.6943 13.2669 18.5767C13.2693 18.5276 13.2802 18.4793 13.2992 18.434C13.3209 18.3819 13.3527 18.3347 13.3926 18.2952C13.4327 18.2556 13.4801 18.2244 13.5323 18.2032C13.5844 18.1822 13.6403 18.1716 13.6967 18.1722L13.722 18.1725L13.7473 18.171L19.5128 17.8437C19.7066 17.8482 19.8914 17.9272 20.0287 18.0645C20.1701 18.2059 20.2496 18.3978 20.2496 18.598C20.2496 18.7981 20.1702 18.99 20.0287 19.1315C19.8912 19.269 19.706 19.348 19.5121 19.3523L13.7485 19.0377C13.7481 19.0377 13.7478 19.0377 13.7474 19.0376C13.622 19.03 13.5036 18.9768 13.4148 18.8879Z" stroke="#C4C4C4" stroke-width="1.5"/>
<mask id="path-2-inside-1_37_5195" fill="white">
<path d="M9.00157 24.3377C9.36727 24.1376 9.65632 23.822 9.82339 23.4401C9.93705 23.0971 10.0257 22.7464 10.0888 22.3907C10.2748 21.1353 10.3594 19.8669 10.3417 18.5979C10.3549 17.376 10.2789 16.1548 10.1141 14.9441C10.0409 14.4908 9.92228 14.0461 9.76011 13.6166C9.60409 13.3228 9.37107 13.0769 9.08599 12.9054C8.80091 12.7339 8.47456 12.6432 8.14187 12.6431H8.07867C7.60608 12.7099 7.14594 12.8462 6.71323 13.0476C4.5635 14.0354 2.58696 15.363 0.8596 16.9795C0.681451 17.1516 0.512685 17.3331 0.353934 17.5232C0.124962 17.83 0.000802994 18.2024 -0.000102043 18.5852C0.00350189 18.9911 0.136343 19.3852 0.379168 19.7104L0.872255 20.2161C2.64234 21.8576 4.66595 23.2025 6.86493 24.1986C7.26979 24.3667 7.69477 24.4815 8.12922 24.54C8.44902 24.5379 8.7643 24.4644 9.05212 24.325"/>
</mask>
<path d="M9.82339 23.4401L11.1976 24.0413L11.2254 23.9778L11.2472 23.912L9.82339 23.4401ZM10.0888 22.3907L11.5658 22.6527L11.5695 22.6316L11.5726 22.6105L10.0888 22.3907ZM10.3417 18.5979L8.84179 18.5817L8.84159 18.6002L8.84185 18.6187L10.3417 18.5979ZM10.1141 14.9441L11.6005 14.7419L11.5979 14.7233L11.5949 14.7048L10.1141 14.9441ZM9.76011 13.6166L11.1634 13.0867L11.1297 12.9974L11.0849 12.9131L9.76011 13.6166ZM8.14187 12.6431L8.14256 11.1431H8.14187V12.6431ZM8.07867 12.6431V11.1431H7.97315L7.86866 11.1578L8.07867 12.6431ZM6.71323 13.0476L7.3395 14.4107L7.34622 14.4075L6.71323 13.0476ZM0.8596 16.9795L-0.165342 15.8843L-0.173966 15.8924L-0.182463 15.9006L0.8596 16.9795ZM0.353934 17.5232L-0.797419 16.5617L-0.823682 16.5932L-0.848189 16.626L0.353934 17.5232ZM-0.000102043 18.5852L-1.5001 18.5817L-1.50012 18.5901L-1.50004 18.5985L-0.000102043 18.5852ZM0.379168 19.7104L-0.822761 20.6079L-0.763693 20.687L-0.694765 20.7577L0.379168 19.7104ZM0.872255 20.2161L-0.201677 21.2633L-0.175357 21.2903L-0.147715 21.3159L0.872255 20.2161ZM6.86493 24.1986L6.24598 25.565L6.2677 25.5748L6.28973 25.5839L6.86493 24.1986ZM8.12922 24.54L7.92901 26.0266L8.03353 26.0406L8.139 26.04L8.12922 24.54ZM9.72146 25.6536C10.3782 25.2944 10.8975 24.7274 11.1976 24.0413L8.44914 22.8389C8.41516 22.9165 8.35632 22.9809 8.28169 23.0217L9.72146 25.6536ZM11.2472 23.912C11.3837 23.5003 11.4901 23.0794 11.5658 22.6527L8.61189 22.1287C8.56139 22.4134 8.49044 22.694 8.39956 22.9681L11.2472 23.912ZM11.5726 22.6105C11.7704 21.2754 11.8603 19.9265 11.8416 18.577L8.84185 18.6187C8.85839 19.8072 8.77918 20.9951 8.60502 22.1709L11.5726 22.6105ZM11.8416 18.6141C11.8556 17.3192 11.775 16.025 11.6005 14.7419L8.62784 15.1463C8.7827 16.2846 8.8542 17.4328 8.84179 18.5817L11.8416 18.6141ZM11.5949 14.7048C11.5057 14.1523 11.3611 13.6102 11.1634 13.0867L8.3568 14.1464C8.48351 14.482 8.57616 14.8294 8.63335 15.1833L11.5949 14.7048ZM11.0849 12.9131C10.8013 12.3789 10.3776 11.9319 9.85921 11.6201L8.31277 14.1908C8.36457 14.2219 8.40692 14.2666 8.43529 14.32L11.0849 12.9131ZM9.85921 11.6201C9.34097 11.3083 8.74758 11.1433 8.14256 11.1431L8.14118 14.1431C8.20153 14.1431 8.26085 14.1595 8.31277 14.1908L9.85921 11.6201ZM8.14187 11.1431H8.07867V14.1431H8.14187V11.1431ZM7.86866 11.1578C7.24966 11.2454 6.64699 11.4239 6.08024 11.6877L7.34622 14.4075C7.64489 14.2685 7.9625 14.1744 8.28868 14.1283L7.86866 11.1578ZM6.08696 11.6846C3.79083 12.7396 1.67967 14.1577 -0.165342 15.8843L1.88454 18.0748C3.49425 16.5683 5.33617 15.3311 7.33949 14.4107L6.08696 11.6846ZM-0.182463 15.9006C-0.399193 16.1099 -0.604432 16.3306 -0.797419 16.5617L1.50529 18.4846C1.6298 18.3355 1.76209 18.1933 1.90166 18.0585L-0.182463 15.9006ZM-0.848189 16.626C-1.26979 17.1909 -1.49843 17.8766 -1.5001 18.5817L1.49989 18.5887C1.50004 18.5281 1.51971 18.469 1.55606 18.4203L-0.848189 16.626ZM-1.50004 18.5985C-1.49361 19.3232 -1.25641 20.0271 -0.822761 20.6079L1.58109 18.813C1.5291 18.7434 1.50061 18.6589 1.49984 18.5719L-1.50004 18.5985ZM-0.694765 20.7577L-0.201677 21.2633L1.94619 19.1689L1.4531 18.6632L-0.694765 20.7577ZM-0.147715 21.3159C1.74081 23.0673 3.89984 24.5022 6.24598 25.565L7.48389 22.8323C5.43207 21.9028 3.54387 20.6479 1.89223 19.1163L-0.147715 21.3159ZM6.28973 25.5839C6.81461 25.8019 7.36565 25.9507 7.92901 26.0266L8.32942 23.0534C8.0239 23.0123 7.72496 22.9315 7.44014 22.8133L6.28973 25.5839ZM8.139 26.04C8.68218 26.0364 9.2175 25.9116 9.70602 25.675L8.39822 22.975C8.31109 23.0172 8.21585 23.0394 8.11943 23.04L8.139 26.04Z" fill="#C4C4C4" mask="url(#path-2-inside-1_37_5195)"/>
<path d="M7.58511 5.65222L8.00444 5.23289L7.58511 5.65222C7.66884 5.73595 7.72096 5.84591 7.73299 5.96344C7.73055 6.01254 7.71963 6.06084 7.7007 6.1062C7.67897 6.15828 7.64718 6.20543 7.60725 6.24493C7.56722 6.28453 7.51974 6.3158 7.46756 6.33692C7.41551 6.35799 7.35961 6.36858 7.30316 6.36797L7.27785 6.3677L7.25258 6.36914L1.4871 6.69645C1.29331 6.69192 1.10847 6.61299 0.97119 6.47571C0.829748 6.33427 0.750244 6.14234 0.750244 5.94216C0.750244 5.74202 0.829719 5.55015 0.97119 5.40868C1.1087 5.27118 1.29384 5.19221 1.48778 5.18785L7.25137 5.50246C7.25174 5.50248 7.25211 5.5025 7.25248 5.50252C7.37792 5.51012 7.49628 5.56339 7.58511 5.65222Z" stroke="#C4C4C4" stroke-width="1.5"/>
<mask id="path-5-inside-2_37_5195" fill="white">
<path d="M11.9983 0.202252C11.6326 0.402303 11.3436 0.717949 11.1765 1.09984C11.0628 1.44277 10.9741 1.79349 10.911 2.14922C10.7251 3.40466 10.6405 4.67304 10.6582 5.94206C10.645 7.1639 10.721 8.38509 10.8857 9.59585C10.959 10.0491 11.0776 10.4938 11.2398 10.9233C11.3958 11.2172 11.6288 11.463 11.9139 11.6345C12.199 11.806 12.5253 11.8967 12.858 11.8969H12.9212C13.3938 11.83 13.8539 11.6937 14.2867 11.4923C16.4364 10.5045 18.4129 9.1769 20.1403 7.56038C20.3184 7.38832 20.4872 7.20685 20.6459 7.01674C20.8749 6.70994 20.9991 6.33754 21 5.95471C20.9964 5.54886 20.8635 5.1547 20.6207 4.82949L20.1276 4.32382C18.3575 2.68229 16.3339 1.33744 14.1349 0.341305C13.7301 0.173204 13.3051 0.0584326 12.8707 -7.62939e-05C12.5509 0.00200939 12.2356 0.0754929 11.9478 0.214908"/>
</mask>
<path d="M11.1765 1.09984L9.80224 0.498642L9.77447 0.562127L9.75267 0.627903L11.1765 1.09984ZM10.911 2.14922L9.4341 1.88723L9.43036 1.90829L9.42723 1.92944L10.911 2.14922ZM10.6582 5.94206L12.1581 5.95826L12.1583 5.93973L12.158 5.92119L10.6582 5.94206ZM10.8857 9.59585L9.39942 9.79804L9.40195 9.81661L9.40494 9.8351L10.8857 9.59585ZM11.2398 10.9233L9.83646 11.4532L9.87018 11.5425L9.91494 11.6268L11.2398 10.9233ZM12.858 11.8969L12.8573 13.3969H12.858V11.8969ZM12.9212 11.8969V13.3969H13.0267L13.1312 13.3821L12.9212 11.8969ZM14.2867 11.4923L13.6604 10.1292L13.6537 10.1324L14.2867 11.4923ZM20.1403 7.56038L21.1652 8.65559L21.1738 8.64752L21.1823 8.63931L20.1403 7.56038ZM20.6459 7.01674L21.7973 7.9782L21.8236 7.94674L21.8481 7.91391L20.6459 7.01674ZM21 5.95471L22.5 5.95826L22.5 5.94983L22.4999 5.9414L21 5.95471ZM20.6207 4.82949L21.8226 3.93206L21.7636 3.85295L21.6946 3.78227L20.6207 4.82949ZM20.1276 4.32382L21.2016 3.2766L21.1752 3.24961L21.1476 3.22397L20.1276 4.32382ZM14.1349 0.341305L14.7539 -1.02504L14.7322 -1.03488L14.7102 -1.04402L14.1349 0.341305ZM12.8707 -7.62939e-05L13.0709 -1.48666L12.9663 -1.50073L12.8609 -1.50004L12.8707 -7.62939e-05ZM11.2784 -1.11371C10.6217 -0.754436 10.1024 -0.187474 9.80224 0.498642L12.5507 1.70104C12.5847 1.62337 12.6436 1.55904 12.7182 1.51822L11.2784 -1.11371ZM9.75267 0.627903C9.61621 1.03959 9.5098 1.46048 9.4341 1.88723L12.388 2.41121C12.4385 2.12651 12.5094 1.84596 12.6003 1.57178L9.75267 0.627903ZM9.42723 1.92944C9.22948 3.26453 9.13954 4.61338 9.15832 5.96292L12.158 5.92119C12.1415 4.7327 12.2207 3.5448 12.3949 2.36899L9.42723 1.92944ZM9.15826 5.92586C9.14428 7.22072 9.22487 8.5149 9.39942 9.79804L12.372 9.39366C12.2172 8.25528 12.1457 7.10708 12.1581 5.95826L9.15826 5.92586ZM9.40494 9.8351C9.49421 10.3876 9.63882 10.9297 9.83646 11.4532L12.6431 10.3935C12.5164 10.0579 12.4237 9.71054 12.3665 9.3566L9.40494 9.8351ZM9.91494 11.6268C10.1986 12.161 10.6223 12.608 11.1407 12.9198L12.6871 10.3491C12.6353 10.318 12.593 10.2733 12.5646 10.2199L9.91494 11.6268ZM11.1407 12.9198C11.6589 13.2316 12.2523 13.3966 12.8573 13.3969L12.8587 10.3969C12.7983 10.3968 12.739 10.3804 12.6871 10.3491L11.1407 12.9198ZM12.858 13.3969H12.9212V10.3969H12.858V13.3969ZM13.1312 13.3821C13.7502 13.2945 14.3529 13.116 14.9196 12.8522L13.6537 10.1324C13.355 10.2714 13.0374 10.3655 12.7112 10.4116L13.1312 13.3821ZM14.9129 12.8553C17.209 11.8003 19.3202 10.3822 21.1652 8.65559L19.1153 6.46516C17.5056 7.97159 15.6637 9.2088 13.6604 10.1293L14.9129 12.8553ZM21.1823 8.63931C21.3991 8.42999 21.6043 8.2093 21.7973 7.9782L19.4946 6.05529C19.3701 6.2044 19.2378 6.34664 19.0982 6.48144L21.1823 8.63931ZM21.8481 7.91391C22.2697 7.349 22.4983 6.66328 22.5 5.95826L19.5 5.95117C19.4998 6.0118 19.4802 6.07088 19.4438 6.11958L21.8481 7.91391ZM22.4999 5.9414C22.4935 5.21671 22.2563 4.51285 21.8226 3.93206L19.4188 5.72691C19.4708 5.79655 19.4993 5.88102 19.5 5.96803L22.4999 5.9414ZM21.6946 3.78227L21.2016 3.2766L19.0537 5.37104L19.5468 5.87671L21.6946 3.78227ZM21.1476 3.22397C19.2591 1.47261 17.1 0.0377645 14.7539 -1.02504L13.516 1.70765C15.5678 2.63712 17.456 3.89198 19.1077 5.42367L21.1476 3.22397ZM14.7102 -1.04402C14.1853 -1.26196 13.6342 -1.41078 13.0709 -1.48666L12.6705 1.4865C12.976 1.52765 13.2749 1.60837 13.5597 1.72663L14.7102 -1.04402ZM12.8609 -1.50004C12.3177 -1.4965 11.7824 -1.37169 11.2939 -1.13506L12.6017 1.56488C12.6888 1.52268 12.784 1.50052 12.8804 1.49989L12.8609 -1.50004Z" fill="#C4C4C4" mask="url(#path-5-inside-2_37_5195)"/>
</svg>
