<svg width="22" height="24" viewBox="0 0 22 24" fill="none" xmlns="http://www.w3.org/2000/svg">
<path d="M15.3519 17.1504H6.68201" stroke="#C4C4C4" stroke-width="1.5" stroke-linecap="round" stroke-linejoin="round"/>
<path d="M15.3519 12.1331H6.68201" stroke="#C4C4C4" stroke-width="1.5" stroke-linecap="round" stroke-linejoin="round"/>
<path d="M10.0111 7.1272H6.68201" stroke="#C4C4C4" stroke-width="1.5" stroke-linecap="round" stroke-linejoin="round"/>
<path d="M15.5914 1.00814H6.38261C5.03626 0.932947 3.71511 1.39518 2.70924 2.29327C1.70338 3.19136 1.09505 4.45189 1.01782 5.79813C0.999837 6.03729 0.999837 6.27751 1.01782 6.51667V17.5336C0.905028 18.8799 1.33086 20.216 2.20191 21.2487C3.07296 22.2814 4.31809 22.9263 5.66411 23.0421C5.91526 23.0601 6.16738 23.0601 6.41854 23.0421H15.6153C16.9617 23.1173 18.2828 22.6551 19.2887 21.757C20.2946 20.8589 20.9029 19.5984 20.9801 18.2521C20.9981 18.017 20.9981 17.7808 20.9801 17.5456V6.52859C21.0393 5.86227 20.9661 5.19087 20.765 4.5529C20.5638 3.91494 20.2385 3.32298 19.8079 2.81111C19.3772 2.29923 18.8497 1.87755 18.2556 1.57019C17.6614 1.26283 17.0124 1.07588 16.3458 1.02012C16.0949 0.998189 15.8428 0.994175 15.5914 1.00814V1.00814Z" stroke="#C4C4C4" stroke-width="1.5" stroke-linecap="round" stroke-linejoin="round"/>
</svg>
