<!--<svg width="22" height="22" viewBox="0 0 22 22" fill="none" xmlns="http://www.w3.org/2000/svg">-->
<!--<circle cx="11" cy="11" r="11" transform="rotate(180 11 11)" fill="#FFBA41"/>-->
<!--<path d="M13.8881 6.16075C13.9833 6.25349 14.0413 6.37779 14.0512 6.51034C14.0611 6.64288 14.0222 6.77449 13.9419 6.88036L13.8881 6.94095L9.36173 11.3799L13.8881 15.8121C13.9838 15.9059 14.0421 16.0314 14.052 16.1651C14.0619 16.2988 14.0227 16.4315 13.9419 16.5384L13.8881 16.599C13.7917 16.6927 13.6654 16.7495 13.5314 16.7593C13.3973 16.7692 13.264 16.7314 13.155 16.6528L13.0877 16.599L8.16454 11.7699C8.06933 11.6772 8.01132 11.5528 8.00141 11.4203C7.9915 11.2877 8.0304 11.1562 8.11077 11.0503L8.16454 10.9897L13.0877 6.16075C13.1954 6.05757 13.3388 6 13.4879 6C13.6371 6 13.7804 6.05757 13.8881 6.16075Z" fill="white" stroke="white" stroke-width="0.2"/>-->
<!--</svg>-->


<svg width="22" height="22" viewBox="0 0 22 22" fill="none" xmlns="http://www.w3.org/2000/svg">
    <g clip-path="url(#clip0)">
        <circle cx="11" cy="11" r="11" transform="rotate(180 11 11)" fill="#85E1B5"/>
        <path d="M13.8881 6.16075C13.9833 6.25349 14.0413 6.37779 14.0512 6.51034C14.0611 6.64288 14.0222 6.77449 13.9419 6.88036L13.8881 6.94095L9.36173 11.3799L13.8881 15.8121C13.9838 15.9059 14.0421 16.0314 14.052 16.1651C14.0619 16.2988 14.0227 16.4315 13.9419 16.5384L13.8881 16.599C13.7917 16.6927 13.6654 16.7495 13.5314 16.7593C13.3973 16.7692 13.264 16.7314 13.155 16.6528L13.0877 16.599L8.16454 11.7699C8.06933 11.6772 8.01132 11.5528 8.00141 11.4203C7.9915 11.2877 8.0304 11.1562 8.11077 11.0503L8.16454 10.9897L13.0877 6.16075C13.1954 6.05757 13.3388 6 13.4879 6C13.6371 6 13.7804 6.05757 13.8881 6.16075Z" fill="white" stroke="white" stroke-width="1"/>
    </g>
    <defs>
        <clipPath id="clip0">
            <rect width="22" height="22" fill="white"/>
        </clipPath>
    </defs>
</svg>