<!--<svg width="22" height="22" viewBox="0 0 22 22" fill="none" xmlns="http://www.w3.org/2000/svg">-->
<!--<circle cx="11" cy="11" r="11" fill="#FFBA41"/>-->
<!--<path d="M8.11167 15.8392C8.01645 15.7465 7.95844 15.6222 7.94853 15.4897C7.93862 15.3571 7.97753 15.2255 8.05789 15.1196L8.11167 15.059L12.638 10.6201L8.11167 6.18794C8.01595 6.09408 7.9577 5.96859 7.9478 5.83491C7.93789 5.70122 7.97705 5.56853 8.05789 5.4616L8.11167 5.40101C8.20803 5.30727 8.33432 5.2505 8.46839 5.24066C8.60247 5.23082 8.73572 5.26857 8.84474 5.34723L8.91206 5.40101L13.8352 10.2301C13.9304 10.3228 13.9884 10.4472 13.9983 10.5797C14.0083 10.7123 13.9694 10.8438 13.889 10.9497L13.8352 11.0103L8.91206 15.8392C8.80439 15.9424 8.66096 16 8.51183 16C8.36269 16 8.21935 15.9424 8.11167 15.8392V15.8392Z" fill="white" stroke="white" stroke-width="0.2"/>-->
<!--</svg>-->


<svg width="22" height="22" viewBox="0 0 22 22" fill="none" xmlns="http://www.w3.org/2000/svg">
<g clip-path="url(#clip0)">
    <circle cx="11" cy="11" r="11" transform="rotate(180 11 11)" fill="#FF7B65"/>
    <path d="M8.11167 15.8392C8.01645 15.7465 7.95844 15.6222 7.94853 15.4897C7.93862 15.3571 7.97753 15.2255 8.05789 15.1196L8.11167 15.059L12.638 10.6201L8.11167 6.18794C8.01595 6.09408 7.9577 5.96859 7.9478 5.83491C7.93789 5.70122 7.97705 5.56853 8.05789 5.4616L8.11167 5.40101C8.20803 5.30727 8.33432 5.2505 8.46839 5.24066C8.60247 5.23082 8.73572 5.26857 8.84474 5.34723L8.91206 5.40101L13.8352 10.2301C13.9304 10.3228 13.9884 10.4472 13.9983 10.5797C14.0083 10.7123 13.9694 10.8438 13.889 10.9497L13.8352 11.0103L8.91206 15.8392C8.80439 15.9424 8.66096 16 8.51183 16C8.36269 16 8.21935 15.9424 8.11167 15.8392V15.8392Z" fill="white" stroke="white" stroke-width="1"/>
</g>
<defs>
    <clipPath id="clip0">
        <rect width="22" height="22" fill="white"/>
    </clipPath>
</defs>
</svg>