<svg width="40" height="40" viewBox="0 0 40 40" fill="none" xmlns="http://www.w3.org/2000/svg">
    <g filter="url(#filter0_d_177_1346)">
        <circle cx="20" cy="16" r="16" fill="#63CF9D"/>
        <path d="M17.1084 22.3983C17.0162 22.3986 16.9249 22.3804 16.8403 22.345C16.7557 22.3095 16.6797 22.2576 16.6169 22.1923L12.2858 17.8671C12.2028 17.8087 12.1343 17.7332 12.0851 17.6462C12.0358 17.5592 12.0072 17.4627 12.0012 17.3637C11.9952 17.2647 12.012 17.1656 12.0503 17.0736C12.0887 16.9816 12.1476 16.8989 12.223 16.8316C12.2984 16.7642 12.3882 16.7138 12.4862 16.6839C12.5841 16.6541 12.6877 16.6455 12.7895 16.6589C12.8912 16.6723 12.9887 16.7073 13.0748 16.7614C13.1609 16.8154 13.2335 16.8872 13.2875 16.9716L17.127 20.8043L25.1955 13.0136C25.2592 12.9476 25.336 12.8947 25.4213 12.8579C25.5067 12.8212 25.5988 12.8015 25.6922 12.7999C25.7856 12.7983 25.8783 12.8149 25.9649 12.8487C26.0515 12.8825 26.1302 12.9327 26.1963 12.9965C26.2623 13.0603 26.3144 13.1363 26.3494 13.2199C26.3844 13.3035 26.4015 13.3931 26.3999 13.4833C26.3982 13.5734 26.3778 13.6624 26.3398 13.7448C26.3018 13.8271 26.247 13.9013 26.1786 13.9628L17.6092 22.2371C17.4707 22.3523 17.2908 22.4102 17.1084 22.3983Z" fill="white" stroke="white" stroke-width="0.3"/>
    </g>
    <defs>
        <filter id="filter0_d_177_1346" x="0" y="0" width="40" height="40" filterUnits="userSpaceOnUse" color-interpolation-filters="sRGB">
            <feFlood flood-opacity="0" result="BackgroundImageFix"/>
            <feColorMatrix in="SourceAlpha" type="matrix" values="0 0 0 0 0 0 0 0 0 0 0 0 0 0 0 0 0 0 127 0" result="hardAlpha"/>
            <feOffset dy="4"/>
            <feGaussianBlur stdDeviation="2"/>
            <feComposite in2="hardAlpha" operator="out"/>
            <feColorMatrix type="matrix" values="0 0 0 0 1 0 0 0 0 1 0 0 0 0 1 0 0 0 0.25 0"/>
            <feBlend mode="normal" in2="BackgroundImageFix" result="effect1_dropShadow_177_1346"/>
            <feBlend mode="normal" in="SourceGraphic" in2="effect1_dropShadow_177_1346" result="shape"/>
        </filter>
    </defs>
</svg>
