<svg width="19" height="18" viewBox="0 0 19 18" fill="none" xmlns="http://www.w3.org/2000/svg">
<path d="M18.3213 11.317H14.7014C14.0558 11.317 13.4366 11.0605 12.9801 10.604C12.5235 10.1475 12.267 9.52828 12.267 8.88263C12.267 8.23699 12.5235 7.61781 12.9801 7.16128C13.4366 6.70474 14.0558 6.44824 14.7014 6.44824H18.3213" stroke="#FF9D34" stroke-linecap="round" stroke-linejoin="round"/>
<path d="M15.0724 8.82812H14.7919" stroke="#FF9D34" stroke-linecap="round" stroke-linejoin="round"/>
<path d="M5.75113 1H13.5701C14.8302 1 16.0387 1.50059 16.9297 2.3916C17.8207 3.28261 18.3213 4.49105 18.3213 5.75113V12.2489C18.3213 13.5089 17.8207 14.7174 16.9297 15.6085C16.0387 16.4995 14.8302 17 13.5701 17H5.75113C4.49105 17 3.28258 16.4995 2.39157 15.6085C1.50056 14.7174 1 13.5089 1 12.2489V5.75113C1 4.49105 1.50056 3.28261 2.39157 2.3916C3.28258 1.50059 4.49105 1 5.75113 1V1Z" stroke="#FF9D34" stroke-linecap="round" stroke-linejoin="round"/>
<path d="M5.09943 5.08105H10.0225" stroke="#FF9D34" stroke-linecap="round" stroke-linejoin="round"/>
</svg>
