<svg width="17" height="17" viewBox="0 0 17 17" fill="none" xmlns="http://www.w3.org/2000/svg">
<g opacity="0.5">
<path d="M13.3476 5.27082C14.5364 5.27082 15.5001 4.30711 15.5001 3.11832C15.5001 1.92953 14.5364 0.96582 13.3476 0.96582C12.1588 0.96582 11.1951 1.92953 11.1951 3.11832C11.1951 4.30711 12.1588 5.27082 13.3476 5.27082Z" stroke="#FF9D35" stroke-width="1.5" stroke-linecap="round" stroke-linejoin="round"/>
<path d="M3.6525 5.27082C4.84129 5.27082 5.805 4.30711 5.805 3.11832C5.805 1.92953 4.84129 0.96582 3.6525 0.96582C2.46371 0.96582 1.5 1.92953 1.5 3.11832C1.5 4.30711 2.46371 5.27082 3.6525 5.27082Z" stroke="#FF9D35" stroke-width="1.5" stroke-linecap="round" stroke-linejoin="round"/>
<path d="M13.3476 16.0335C14.5364 16.0335 15.5001 15.0698 15.5001 13.881C15.5001 12.6922 14.5364 11.7285 13.3476 11.7285C12.1588 11.7285 11.1951 12.6922 11.1951 13.881C11.1951 15.0698 12.1588 16.0335 13.3476 16.0335Z" stroke="#FF9D35" stroke-width="1.5" stroke-linecap="round" stroke-linejoin="round"/>
<path d="M3.6525 16.0335C4.84129 16.0335 5.805 15.0698 5.805 13.881C5.805 12.6922 4.84129 11.7285 3.6525 11.7285C2.46371 11.7285 1.5 12.6922 1.5 13.881C1.5 15.0698 2.46371 16.0335 3.6525 16.0335Z" stroke="#FF9D35" stroke-width="1.5" stroke-linecap="round" stroke-linejoin="round"/>
</g>
</svg>
