<svg width="19" height="21" viewBox="0 0 19 21" fill="none" xmlns="http://www.w3.org/2000/svg">
<path d="M13.6067 1.00703H5.65047C4.48725 0.942068 3.3458 1.34143 2.47675 2.11736C1.60771 2.89329 1.08212 3.98237 1.0154 5.14549C0.999859 5.35212 0.999859 5.55967 1.0154 5.7663V15.2847C0.917946 16.4479 1.28586 17.6022 2.03843 18.4945C2.791 19.3867 3.86676 19.9439 5.0297 20.044C5.24669 20.0595 5.46452 20.0595 5.68151 20.044H13.6274C14.7906 20.1089 15.932 19.7096 16.8011 18.9336C17.6701 18.1577 18.1957 17.0686 18.2624 15.9055C18.2779 15.7023 18.2779 15.4982 18.2624 15.2951V5.77659C18.3135 5.20091 18.2503 4.62083 18.0765 4.06964C17.9027 3.51845 17.6217 3.00701 17.2496 2.56476C16.8776 2.12251 16.4218 1.75819 15.9085 1.49264C15.3951 1.22708 14.8344 1.06556 14.2585 1.01739C14.0417 0.998435 13.8239 0.994967 13.6067 1.00703V1.00703Z" stroke="#3A3A3A" stroke-linecap="round" stroke-linejoin="round"/>
<path d="M6 11.37L8.37 13.75L13.12 9" stroke="#3A3A3A" stroke-linecap="round" stroke-linejoin="round"/>
</svg>
